{"glyphs":{"0":{"ha":689,"x_min":14,"x_max":717,"o":"m 717 872 q 694 657 717 766 q 631 449 671 549 q 540 262 592 349 q 430 111 488 175 q 312 9 372 46 q 196 -28 252 -28 q 133 -19 165 -28 q 75 11 101 -11 q 31 71 48 33 q 14 167 14 109 q 27 302 14 231 q 64 447 40 373 q 121 594 87 521 q 194 733 154 667 q 279 857 234 800 q 372 956 324 914 q 469 1022 420 998 q 567 1046 519 1046 q 627 1036 600 1046 q 675 1006 655 1027 q 706 952 694 985 q 717 872 717 919 m 568 867 q 554 950 568 922 q 517 978 540 978 q 462 955 491 978 q 404 891 433 932 q 346 796 375 851 q 291 678 317 741 q 242 546 264 615 q 203 409 220 477 q 178 276 187 341 q 168 155 168 211 q 173 111 168 132 q 188 76 178 91 q 212 53 197 61 q 248 45 227 45 q 309 77 275 45 q 379 168 343 110 q 448 303 414 225 q 509 473 482 381 q 552 665 536 564 q 568 867 568 765 z "},"1":{"ha":406,"x_min":-118,"x_max":505,"o":"m 161 11 q 125 4 147 7 q 77 -2 103 1 q 24 -6 52 -5 q -29 -9 -4 -7 q -75 -11 -54 -10 q -107 -11 -96 -11 q -118 -5 -118 -11 q -92 26 -118 6 q -84 31 -89 28 q -72 36 -80 33 q -52 42 -64 39 q -20 49 -39 45 q 62 247 22 151 q 137 429 102 342 q 204 591 173 515 q 261 727 235 666 q 304 832 286 787 q 334 901 323 876 q 299 879 317 890 q 263 858 281 867 q 229 843 245 849 q 200 838 213 838 q 190 841 195 838 q 186 852 186 845 q 194 877 186 865 q 214 893 202 889 q 278 924 248 907 q 337 959 308 941 q 396 999 366 978 q 460 1043 425 1019 q 468 1046 465 1046 q 480 1040 474 1046 q 492 1028 487 1035 q 502 1014 498 1021 q 505 1004 505 1007 q 494 968 505 997 q 463 893 483 939 q 417 787 444 847 q 361 658 391 727 q 298 514 331 589 q 234 362 266 439 q 173 210 202 286 q 118 64 143 134 q 159 67 141 66 q 186 68 176 68 q 207 57 207 68 q 202 41 207 48 q 190 27 197 33 q 175 17 183 22 q 161 11 168 13 z "},"2":{"ha":526,"x_min":-115,"x_max":614,"o":"m 614 890 q 587 775 614 838 q 515 644 560 713 q 412 504 471 575 q 288 362 353 432 q 158 228 224 293 q 33 109 92 163 q 122 112 81 111 q 198 118 163 114 q 260 128 233 121 q 309 146 288 134 q 330 162 321 153 q 347 185 339 172 q 364 217 355 199 q 383 258 372 235 q 388 267 385 262 q 394 275 390 271 q 406 282 399 279 q 424 285 413 285 q 432 282 428 285 q 436 273 436 279 q 432 258 436 271 q 420 225 427 245 q 403 180 412 205 q 384 128 393 155 q 364 77 374 102 q 347 32 355 52 q 340 23 345 26 q 329 20 336 20 q 148 15 225 20 q 19 4 71 10 q -62 -6 -33 -1 q -98 -11 -91 -11 q -112 -8 -108 -11 q -115 1 -115 -5 q -107 40 -115 25 q -87 65 -98 55 q -34 116 -68 82 q 44 196 1 150 q 135 299 87 242 q 232 417 184 355 q 323 543 279 478 q 400 671 367 608 q 453 793 433 734 q 473 903 473 852 q 454 970 473 947 q 397 994 435 994 q 349 982 370 994 q 314 950 329 970 q 289 905 298 930 q 273 853 279 880 q 265 803 267 827 q 262 760 262 778 q 267 717 262 734 q 272 684 272 699 q 267 671 272 677 q 250 665 262 665 q 217 674 235 665 q 184 699 199 682 q 160 738 170 715 q 150 789 150 760 q 173 887 150 840 q 236 969 196 934 q 328 1025 275 1004 q 440 1046 381 1046 q 507 1036 475 1046 q 562 1007 538 1027 q 600 959 586 988 q 614 890 614 930 z "},"3":{"ha":547,"x_min":-62,"x_max":614,"o":"m 614 865 q 603 794 614 829 q 573 725 592 758 q 528 662 553 692 q 472 606 502 631 q 408 559 441 580 q 342 526 375 539 q 398 498 376 519 q 432 452 420 478 q 450 398 445 426 q 454 349 454 370 q 441 257 454 303 q 403 169 427 211 q 346 90 378 126 q 274 25 313 53 q 192 -18 235 -2 q 106 -33 149 -33 q 47 -27 77 -33 q -7 -5 18 -21 q -47 37 -31 10 q -62 104 -62 63 q -46 179 -62 145 q -8 238 -31 214 q 39 277 15 263 q 79 292 63 292 q 87 289 83 292 q 90 283 90 287 q 86 257 90 273 q 76 221 81 241 q 65 179 70 201 q 61 135 61 157 q 68 88 61 108 q 87 56 75 68 q 116 38 100 43 q 150 32 132 32 q 202 45 178 32 q 244 81 226 59 q 277 133 263 104 q 301 192 292 161 q 315 253 310 223 q 319 309 319 283 q 308 400 319 366 q 282 452 297 434 q 250 477 267 471 q 224 486 234 484 q 215 491 218 488 q 212 498 212 494 q 219 525 212 513 q 240 541 227 536 q 341 588 296 553 q 417 670 386 623 q 464 771 448 717 q 481 876 481 825 q 474 928 481 907 q 454 962 467 949 q 427 981 442 975 q 395 987 411 987 q 352 975 372 987 q 319 940 333 962 q 297 891 304 919 q 289 835 289 864 q 294 790 289 808 q 306 760 300 772 q 318 739 313 748 q 323 721 323 730 q 317 706 323 713 q 300 700 311 700 q 255 709 276 700 q 219 735 235 719 q 194 772 203 751 q 184 817 184 793 q 204 900 184 859 q 256 974 223 941 q 334 1026 290 1006 q 427 1046 378 1046 q 511 1030 475 1046 q 569 990 546 1015 q 603 932 592 965 q 614 865 614 900 z "},"4":{"ha":623,"x_min":-31,"x_max":675,"o":"m 675 1025 q 673 1017 675 1021 q 669 1010 671 1012 q 597 821 637 925 q 518 610 564 731 q 419 345 472 489 q 441 345 431 345 q 463 346 452 345 q 503 360 484 347 q 534 392 523 372 q 554 427 547 414 q 566 446 562 439 q 572 453 570 452 q 579 454 574 454 q 590 450 585 454 q 596 436 596 446 q 590 421 596 435 q 575 386 585 408 q 552 335 566 363 q 525 275 539 307 q 511 259 521 266 q 492 253 502 253 q 436 251 463 252 q 385 249 410 250 q 345 142 365 196 q 306 32 326 87 q 285 7 299 18 q 254 -12 271 -4 q 220 -25 237 -20 q 187 -29 202 -29 q 160 -24 171 -29 q 150 -5 150 -18 q 154 9 150 1 l 245 243 q 137 239 184 240 q 58 236 91 237 q -7 235 21 235 q -24 251 -18 235 q -31 294 -31 267 q -30 307 -31 300 q -25 318 -28 313 q -7 340 -25 318 q 42 401 11 363 q 113 488 73 439 q 198 592 154 538 q 287 702 242 646 q 371 807 332 758 q 442 896 410 857 q 490 960 473 936 q 509 976 496 967 q 538 995 522 985 q 573 1014 555 1004 q 609 1030 592 1023 q 638 1041 625 1037 q 659 1046 652 1046 q 668 1041 662 1046 q 675 1025 675 1036 m 45 325 q 90 327 64 326 q 148 331 117 329 q 214 334 179 332 q 285 338 249 336 q 361 527 324 436 q 429 694 397 617 q 485 830 460 770 q 525 928 509 890 l 45 325 z "},"5":{"ha":570,"x_min":-41,"x_max":690,"o":"m 453 869 q 394 871 427 869 q 318 882 361 872 l 164 564 q 214 598 187 583 q 270 624 241 614 q 326 639 298 634 q 382 644 355 644 q 443 632 417 644 q 485 600 468 621 q 509 552 501 580 q 517 492 517 524 q 499 380 517 439 q 452 263 481 321 q 382 153 422 205 q 297 60 342 100 q 205 -4 252 20 q 114 -28 158 -28 q 55 -19 83 -28 q 5 7 26 -10 q -29 51 -16 25 q -41 111 -41 77 q -28 171 -41 139 q 5 230 -16 203 q 51 274 25 256 q 103 292 77 292 q 109 289 107 292 q 111 283 111 287 q 106 257 110 274 q 98 220 102 240 q 91 178 94 199 q 87 139 87 157 q 106 67 87 90 q 165 45 125 45 q 216 64 191 45 q 266 115 242 83 q 310 188 289 146 q 345 273 330 229 q 369 361 360 317 q 378 441 378 405 q 369 498 378 475 q 347 535 361 521 q 317 555 334 549 q 282 561 300 561 q 240 554 262 561 q 199 535 219 547 q 160 509 178 524 q 129 481 142 495 q 121 477 127 479 q 111 475 115 475 q 95 486 102 478 q 89 509 89 494 q 94 524 89 512 q 109 559 98 536 q 138 620 120 583 q 180 711 155 657 q 238 839 205 766 q 313 1008 271 912 q 322 1019 315 1014 q 340 1025 329 1025 q 387 1021 356 1025 q 456 1018 417 1018 q 536 1021 496 1018 q 610 1038 576 1024 q 630 1051 622 1042 q 644 1067 637 1059 q 657 1082 650 1076 q 672 1088 663 1088 q 675 1087 673 1088 q 682 1083 678 1086 q 688 1075 685 1080 q 690 1061 690 1070 q 676 991 690 1025 q 633 930 663 957 q 559 886 604 903 q 453 869 515 869 z "},"6":{"ha":618,"x_min":24,"x_max":718,"o":"m 554 982 q 500 964 527 982 q 446 916 473 946 q 393 846 419 886 q 344 761 368 806 q 300 670 321 717 q 262 582 279 624 q 315 626 289 610 q 363 649 340 642 q 403 657 385 656 q 431 659 420 659 q 485 647 461 659 q 525 614 509 635 q 550 567 541 594 q 558 511 558 541 q 545 406 558 464 q 508 287 532 347 q 449 170 484 227 q 373 68 415 113 q 282 -3 331 24 q 179 -31 233 -31 q 127 -22 155 -31 q 77 6 100 -14 q 39 63 54 27 q 24 154 24 99 q 39 308 24 229 q 81 463 54 386 q 144 612 108 539 q 224 750 181 686 q 314 869 267 815 q 411 963 362 924 q 507 1024 459 1002 q 599 1046 555 1046 q 686 1020 653 1046 q 718 943 718 994 q 710 902 718 924 q 690 861 703 881 q 664 822 678 840 q 636 790 649 804 q 612 768 623 776 q 599 760 602 760 q 588 763 592 760 q 585 771 585 766 q 590 796 585 781 q 601 829 595 811 q 611 867 606 847 q 616 905 616 887 q 598 963 616 943 q 554 982 579 982 m 339 564 q 271 533 302 564 q 214 454 240 503 q 194 389 203 426 q 178 311 185 352 q 166 225 170 269 q 161 139 161 181 q 175 65 161 91 q 225 40 189 40 q 275 59 252 40 q 320 108 299 77 q 357 179 340 139 q 385 262 374 219 q 403 349 397 306 q 410 429 410 392 q 406 481 410 456 q 394 524 402 505 q 372 553 386 542 q 339 564 359 564 z "},"7":{"ha":473,"x_min":-1,"x_max":694,"o":"m 694 1028 q 678 1006 694 1025 q 634 951 662 986 q 568 868 606 917 q 486 759 530 819 q 395 626 442 698 q 302 475 349 555 q 261 389 280 436 q 226 292 243 341 q 195 195 210 243 q 167 108 180 147 q 140 43 153 69 q 113 9 126 16 q 77 -6 90 0 q 57 -15 65 -12 q 43 -20 50 -18 q 24 -21 36 -21 q 6 -13 14 -21 q -1 3 -1 -5 q 14 93 -1 42 q 55 203 28 144 q 118 327 81 262 q 196 458 154 392 q 285 590 238 525 q 379 715 332 655 q 473 829 427 776 q 561 924 519 882 q 479 904 524 911 q 390 892 434 897 q 306 887 346 888 q 239 886 267 886 l 216 886 q 191 853 204 873 q 168 808 178 833 q 159 793 165 800 q 140 786 153 786 q 126 792 132 786 q 121 804 121 798 q 127 819 121 808 q 146 856 133 831 q 181 923 160 882 q 233 1028 203 964 q 245 1041 237 1036 q 261 1046 253 1046 q 295 1042 276 1046 q 336 1033 313 1038 q 387 1025 359 1029 q 449 1021 415 1021 q 536 1025 496 1021 q 607 1033 576 1029 q 657 1042 637 1038 q 682 1046 677 1046 q 691 1039 688 1046 q 694 1028 694 1031 m 245 914 l 244 913 l 245 914 z "},"8":{"ha":555,"x_min":-25,"x_max":635,"o":"m 635 884 q 611 783 635 829 q 551 696 587 736 q 469 623 514 656 q 383 561 425 589 q 405 497 394 529 q 423 434 415 465 q 436 371 431 402 q 441 311 441 340 q 420 163 441 227 q 360 57 398 99 q 272 -7 323 14 q 164 -28 222 -28 q 85 -13 120 -28 q 25 27 50 1 q -12 89 1 53 q -25 167 -25 125 q 0 280 -25 229 q 63 373 24 331 q 149 451 102 416 q 243 517 197 486 q 213 625 225 571 q 200 733 200 678 q 218 851 200 795 q 271 951 237 908 q 355 1020 305 995 q 467 1046 404 1046 q 543 1031 511 1046 q 595 992 574 1016 q 625 940 615 969 q 635 884 635 911 m 311 227 q 295 349 311 290 q 260 467 279 408 q 180 406 216 439 q 117 335 144 372 q 76 256 91 297 q 61 172 61 215 q 91 71 61 109 q 175 33 120 33 q 240 50 214 33 q 282 93 266 66 q 304 154 298 119 q 311 227 311 189 m 325 811 q 338 711 325 763 q 370 604 352 659 q 433 653 406 629 q 479 702 460 678 q 511 749 498 726 q 531 791 524 772 q 547 882 549 838 q 540 932 547 910 q 519 969 532 954 q 489 991 507 984 q 453 999 472 999 q 406 989 429 999 q 365 957 383 979 q 336 899 347 935 q 325 811 325 863 z "},"9":{"ha":618,"x_min":-17,"x_max":650,"o":"m -17 75 q -9 116 -17 95 q 11 158 -1 138 q 38 196 23 178 q 65 228 52 214 q 89 250 79 242 q 103 258 100 258 q 113 255 109 258 q 117 248 117 252 q 112 223 117 238 q 101 189 106 208 q 90 151 95 171 q 85 113 85 132 q 103 55 85 75 q 147 36 122 36 q 195 53 171 36 q 243 99 220 70 q 290 167 267 128 q 334 248 313 205 q 374 336 355 291 q 410 422 393 381 q 359 379 384 394 q 313 359 334 365 q 275 353 292 353 q 248 353 258 353 q 191 366 217 353 q 146 403 165 378 q 116 463 127 428 q 106 543 106 498 q 119 648 106 591 q 157 761 132 705 q 216 869 182 817 q 294 962 251 922 q 389 1026 338 1002 q 496 1050 439 1050 q 547 1042 520 1050 q 597 1013 574 1034 q 635 956 620 992 q 650 865 650 920 q 636 712 650 790 q 597 556 622 633 q 538 406 572 479 q 464 268 504 333 q 378 149 423 203 q 287 55 333 94 q 193 -6 240 16 q 103 -28 146 -28 q 16 -2 48 -28 q -17 75 -17 24 m 325 433 q 362 443 344 433 q 396 468 380 452 q 428 507 413 484 q 457 555 444 529 l 457 557 q 477 624 467 585 q 496 708 488 664 q 509 797 504 752 q 514 880 514 842 q 500 954 514 929 q 450 979 486 979 q 396 960 421 979 q 348 908 370 941 q 309 834 326 876 q 279 748 292 793 q 261 657 267 703 q 254 574 254 612 q 258 519 254 545 q 270 475 262 494 q 292 445 278 456 q 325 433 305 433 z "}," ":{"ha":222,"x_min":0,"x_max":0,"o":""},"E":{"ha":596,"x_min":-78,"x_max":741,"o":"m 106 -157 q 32 -144 66 -157 q -26 -107 -2 -132 q -64 -49 -51 -83 q -78 29 -78 -15 q -51 161 -78 96 q 22 281 -24 226 q 129 379 68 336 q 260 446 191 422 q 219 469 238 454 q 186 504 200 484 q 164 549 172 524 q 157 604 157 574 q 173 715 157 659 q 219 824 190 772 q 288 921 248 876 q 375 1000 328 966 q 475 1053 422 1034 q 581 1072 527 1072 q 639 1066 610 1072 q 690 1043 668 1059 q 727 997 713 1026 q 741 924 741 968 q 726 857 741 889 q 687 801 711 825 q 635 761 664 776 q 581 746 607 746 q 572 750 576 746 q 568 760 568 753 q 575 788 568 771 q 590 825 582 804 q 606 869 599 846 q 612 918 612 893 q 592 989 612 962 q 534 1015 572 1015 q 465 995 497 1015 q 408 942 433 975 q 362 868 382 909 q 329 786 342 827 q 309 708 316 745 q 302 646 302 671 q 309 577 302 605 q 326 530 316 549 q 348 500 336 511 q 370 481 359 488 q 387 470 380 474 q 393 460 393 465 q 385 435 393 446 q 361 422 376 425 q 247 367 298 405 q 158 277 195 329 q 101 165 121 226 q 81 43 81 104 q 89 -5 81 14 q 109 -37 96 -25 q 139 -54 122 -49 q 176 -60 157 -60 q 250 -43 218 -60 q 306 -3 281 -27 q 347 49 330 21 q 378 101 365 77 q 400 142 391 125 q 418 158 410 158 q 433 154 425 158 q 441 139 441 149 q 441 134 441 137 q 439 127 440 131 q 381 21 413 73 q 309 -70 349 -30 q 219 -133 269 -109 q 106 -157 169 -157 z "},"F":{"ha":755,"x_min":-140,"x_max":1004,"o":"m 770 440 q 764 423 768 432 q 751 406 760 414 q 727 392 742 397 q 690 385 713 386 q 658 382 680 383 q 607 379 636 381 q 552 248 581 314 q 488 120 523 181 q 412 5 453 58 q 321 -89 370 -49 q 215 -151 273 -128 q 89 -174 157 -174 q 17 -169 56 -174 q -58 -148 -23 -163 q -117 -103 -93 -132 q -140 -25 -140 -73 q -138 -3 -140 -20 q -130 31 -136 14 q -114 63 -123 49 q -89 77 -104 77 q -77 71 -81 77 q -72 64 -73 65 q -20 -13 -49 18 q 39 -65 8 -45 q 100 -94 69 -85 q 160 -103 132 -103 q 253 -65 212 -103 q 329 39 294 -26 q 395 190 363 104 q 458 370 426 275 q 424 366 441 368 q 389 363 406 365 q 291 352 328 356 q 241 347 254 347 q 233 350 233 347 q 240 367 233 357 q 257 386 247 377 q 277 401 267 395 q 294 407 287 407 q 374 421 324 414 q 482 433 425 428 q 502 488 492 460 q 522 543 512 516 q 612 738 564 652 q 708 886 659 823 q 620 910 665 893 q 530 946 576 928 q 437 978 484 964 q 342 991 390 991 q 296 982 319 991 q 255 952 273 973 q 225 896 237 930 q 214 810 214 861 q 219 744 214 779 q 238 672 225 709 q 272 596 251 635 q 323 518 293 557 q 326 509 326 515 q 319 494 325 500 q 301 488 314 488 q 215 501 248 488 q 162 539 181 514 q 136 601 143 564 q 129 685 129 638 q 133 766 129 726 q 147 841 136 805 q 177 911 157 878 q 227 975 196 945 q 293 1033 261 1010 q 355 1069 326 1055 q 413 1089 385 1083 q 465 1095 440 1095 q 552 1081 511 1095 q 633 1048 593 1067 q 712 1010 673 1029 q 794 981 751 991 q 890 1049 844 1027 q 975 1071 937 1071 q 997 1064 989 1071 q 1004 1046 1004 1057 q 992 1007 1004 1029 q 957 962 980 985 q 900 920 934 939 q 822 890 865 901 q 769 786 798 846 q 708 646 741 726 q 672 553 690 603 q 633 447 654 503 q 709 452 676 450 q 757 454 742 454 q 767 452 764 454 q 770 440 770 450 m 946 1042 q 914 1026 933 1042 q 869 972 895 1010 q 912 982 895 973 q 939 1001 929 991 q 953 1021 949 1011 q 957 1032 957 1030 q 946 1042 957 1042 z "},"G":{"ha":710,"x_min":-35,"x_max":765,"o":"m 579 353 q 548 221 570 285 q 495 101 526 157 q 424 -3 463 44 q 339 -84 384 -50 q 246 -136 294 -117 q 149 -155 197 -155 q 83 -144 116 -155 q 24 -108 50 -133 q -18 -42 -2 -83 q -35 58 -35 -1 q -15 219 -35 136 q 39 387 5 303 q 120 552 74 471 q 219 706 166 633 q 330 841 273 779 q 444 947 387 903 q 553 1018 500 992 q 650 1043 606 1043 q 706 1033 684 1043 q 742 1008 728 1023 q 760 972 755 992 q 765 932 765 952 q 755 865 765 896 q 730 809 745 834 q 695 766 714 785 q 658 734 676 747 q 624 714 640 721 q 599 708 608 708 q 586 710 589 708 q 582 724 582 712 q 597 768 585 744 q 623 817 609 791 q 647 869 636 842 q 657 924 657 897 q 650 958 657 943 q 623 974 643 974 q 557 949 593 974 q 480 881 520 924 q 397 778 439 838 q 316 650 355 719 q 242 505 277 581 q 182 352 208 429 q 141 201 156 275 q 126 60 126 126 q 132 13 126 35 q 150 -24 138 -8 q 180 -49 162 -40 q 224 -58 199 -58 q 287 -43 256 -58 q 343 -3 317 -28 q 391 54 370 22 q 428 120 412 86 q 451 188 443 155 q 460 249 460 222 q 449 294 460 279 q 421 313 437 309 q 385 316 404 318 q 349 313 366 315 q 321 314 332 312 q 310 328 310 315 q 316 346 310 338 q 331 359 321 353 q 353 371 341 366 q 378 380 366 376 q 437 397 401 389 q 514 410 473 404 q 595 421 555 416 q 668 431 635 427 q 681 415 681 431 l 669 397 q 619 358 655 366 q 599 355 609 356 q 579 353 589 354 z "},"H":{"ha":757,"x_min":-171,"x_max":994,"o":"m 568 994 q 555 978 565 984 q 534 970 546 971 q 512 966 523 967 q 490 964 500 965 q 415 800 452 884 q 341 629 378 715 q 269 457 304 543 q 200 288 233 371 l 450 321 q 525 500 487 409 q 598 679 562 591 q 667 849 633 767 q 728 1000 700 930 q 682 997 705 998 q 637 997 659 997 q 634 999 635 997 q 631 1003 632 1001 q 630 1008 629 1005 q 632 1013 631 1010 l 642 1022 q 650 1037 646 1031 q 664 1044 654 1042 q 743 1056 703 1050 q 825 1066 784 1061 q 907 1073 867 1070 q 985 1075 947 1076 q 993 1072 987 1075 q 994 1067 994 1070 q 991 1063 993 1065 l 978 1038 q 965 1024 974 1029 q 946 1018 956 1019 q 907 1015 927 1016 q 867 1011 888 1013 q 795 839 833 932 q 716 647 757 746 q 635 447 676 548 q 557 249 595 345 q 485 65 519 153 q 424 -94 451 -23 q 470 -89 449 -91 q 503 -87 490 -87 q 533 -90 523 -87 q 546 -97 543 -92 q 546 -107 549 -101 q 538 -119 543 -113 q 529 -132 532 -126 q 520 -141 526 -137 q 505 -149 515 -146 q 475 -155 494 -153 q 437 -159 462 -157 q 383 -163 413 -161 q 321 -168 353 -165 q 260 -171 289 -170 q 210 -174 232 -173 q 179 -176 188 -176 q 149 -175 152 -178 q 164 -151 146 -171 q 188 -135 172 -141 q 229 -126 203 -130 q 241 -124 233 -125 q 258 -121 249 -123 q 335 51 293 -45 q 424 257 378 147 l 178 232 q 123 90 149 159 q 74 -40 97 22 q 138 -37 115 -36 q 157 -47 160 -38 q 142 -67 153 -59 q 113 -85 132 -75 q 86 -91 106 -88 q 39 -97 66 -94 q -18 -102 12 -100 q -75 -106 -48 -104 q -121 -108 -101 -107 q -147 -110 -141 -109 q -169 -101 -167 -112 q -147 -72 -171 -91 q -129 -65 -143 -68 q -83 -58 -115 -62 q -34 67 -62 -3 q 28 215 -5 137 l -58 207 q -64 208 -62 207 q -66 212 -66 209 q -65 218 -68 214 q -60 225 -63 222 l -50 239 q -28 255 -39 252 q -3 261 -18 258 l 50 268 q 128 449 87 356 q 207 630 168 541 q 283 802 246 720 q 350 950 319 884 q 303 947 327 948 q 253 945 279 946 q 248 947 250 945 q 250 954 248 951 l 258 965 q 267 979 262 975 q 281 985 271 983 q 349 996 316 990 q 415 1008 382 1002 q 484 1018 449 1013 q 558 1023 519 1022 q 572 1018 567 1025 q 575 1010 574 1015 q 572 1003 576 1006 l 568 994 z "},"I":{"ha":715,"x_min":-125,"x_max":715,"o":"m 715 782 q 701 624 715 705 q 659 462 686 543 q 595 305 632 382 q 512 159 557 228 q 416 32 467 90 q 310 -68 365 -26 q 198 -133 255 -110 q 85 -157 141 -157 q 8 -143 46 -157 q -59 -104 -29 -130 q -106 -40 -88 -78 q -125 49 -125 -1 q -111 119 -125 83 q -75 184 -96 155 q -30 233 -54 214 q 17 252 -5 252 q 28 247 22 252 q 33 235 33 243 q 30 216 33 225 q 23 193 27 206 q 17 162 20 180 q 14 118 14 144 q 25 41 14 76 q 55 -18 36 7 q 101 -57 75 -43 q 158 -71 127 -71 q 208 -61 182 -71 q 261 -31 234 -52 q 325 39 290 -8 q 393 150 359 85 q 458 292 427 214 q 513 455 489 370 q 551 628 537 540 q 566 802 566 717 q 560 878 566 847 q 545 927 554 908 q 523 954 535 946 q 496 962 510 962 q 465 954 484 962 q 425 925 446 945 q 383 869 404 904 q 345 783 362 835 q 318 659 328 730 q 307 493 307 587 q 311 433 307 468 q 318 365 314 398 q 326 306 322 332 q 329 272 329 279 q 323 256 329 258 q 310 253 317 253 q 265 268 288 253 q 224 307 242 283 q 195 361 206 330 q 183 422 183 391 q 188 502 183 455 q 205 603 193 549 q 238 716 217 657 q 293 832 260 775 q 367 937 330 895 q 441 1002 405 978 q 511 1036 477 1026 q 574 1046 545 1046 q 625 1032 603 1046 q 663 995 647 1018 q 689 944 679 972 q 705 886 699 916 q 713 830 711 857 q 715 782 715 802 z "},"J":{"ha":648,"x_min":-278,"x_max":648,"o":"m 648 787 q 624 592 648 692 q 558 393 600 492 q 458 199 515 294 q 336 20 401 104 q 200 -136 271 -65 q 60 -259 130 -208 q -76 -339 -10 -311 q -197 -368 -142 -368 q -230 -362 -215 -368 q -255 -345 -245 -355 q -272 -322 -266 -335 q -278 -294 -278 -309 q -249 -206 -278 -254 q -171 -108 -220 -158 q -58 -10 -122 -58 q 75 79 5 38 q 216 152 145 121 q 350 197 287 182 q 452 471 414 326 q 490 775 490 616 q 485 864 490 828 q 470 921 479 900 q 449 952 461 943 q 424 961 437 961 q 395 952 412 961 q 357 923 377 944 q 316 867 336 902 q 279 780 295 832 q 252 656 262 728 q 241 489 241 584 q 244 419 241 452 q 251 357 247 386 q 257 306 254 329 q 260 267 260 283 q 256 255 260 260 q 244 250 253 250 q 195 268 218 250 q 155 312 172 286 q 128 368 138 338 q 118 425 118 399 q 130 560 118 489 q 164 700 142 631 q 220 831 187 768 q 296 941 254 893 q 391 1016 339 988 q 503 1044 443 1044 q 554 1033 532 1044 q 593 1001 576 1021 q 620 956 609 981 q 637 901 631 930 q 646 843 643 872 q 648 787 648 814 m 163 -85 q 247 23 207 -34 q 321 143 286 80 q 135 55 212 102 q 9 -35 58 9 q -61 -117 -39 -79 q -83 -179 -83 -155 q -70 -205 -83 -199 q -40 -211 -57 -211 q 8 -201 -18 -211 q 61 -173 35 -191 q 115 -133 88 -156 q 163 -85 141 -111 z "},"K":{"ha":650,"x_min":-178,"x_max":985,"o":"m 557 1060 q 572 1050 576 1061 q 546 1022 569 1039 q 539 1018 543 1020 q 528 1012 535 1015 q 510 1006 521 1009 q 482 1000 499 1003 q 368 728 425 868 q 258 456 311 588 q 436 660 358 567 q 573 826 515 753 q 671 951 632 899 q 732 1032 711 1003 q 687 1030 706 1031 q 665 1031 669 1029 q 661 1039 661 1031 q 665 1054 661 1046 q 674 1069 668 1062 q 686 1079 680 1077 q 712 1082 689 1080 q 766 1088 734 1085 q 835 1095 798 1092 q 904 1101 872 1099 q 958 1104 936 1103 q 982 1101 979 1104 q 979 1089 985 1097 q 965 1073 974 1081 q 946 1057 956 1064 q 930 1047 937 1050 q 905 1043 926 1045 q 852 1039 883 1041 q 748 928 804 989 q 633 801 692 867 q 513 667 574 735 q 396 536 453 600 q 404 348 396 440 q 426 172 412 255 q 461 18 440 89 q 509 -103 482 -52 q 567 -183 535 -155 q 635 -212 599 -212 q 692 -195 668 -212 q 735 -156 717 -177 q 766 -117 753 -135 q 790 -100 779 -100 q 802 -106 800 -100 q 804 -118 804 -112 q 794 -165 804 -140 q 762 -211 784 -190 q 706 -246 741 -232 q 624 -260 672 -260 q 501 -231 553 -260 q 411 -153 449 -202 q 347 -39 372 -104 q 305 99 321 26 q 280 249 289 172 q 268 396 272 325 q 238 365 254 380 q 210 335 223 349 q 158 204 182 265 q 117 96 135 144 q 85 14 98 48 q 65 -36 72 -20 q 131 -33 108 -32 q 150 -43 153 -33 q 136 -63 146 -54 q 106 -81 125 -71 q 79 -87 99 -84 q 32 -93 59 -90 q -25 -98 5 -96 q -81 -102 -55 -100 q -128 -104 -108 -103 q -154 -106 -148 -106 q -176 -97 -174 -108 q -154 -68 -178 -87 q -133 -61 -149 -64 q -81 -53 -117 -58 q 79 331 7 157 q 203 637 150 505 q 291 857 256 770 q 340 982 326 944 q 279 979 298 978 q 267 989 261 981 q 281 1013 271 1000 q 311 1036 292 1027 q 337 1042 318 1039 q 381 1047 356 1045 q 434 1052 406 1050 q 487 1056 463 1054 q 531 1058 512 1057 q 557 1060 550 1059 z "},"L":{"ha":746,"x_min":-334,"x_max":815,"o":"m 815 926 q 807 870 815 901 q 783 809 798 840 q 747 750 768 779 q 701 700 726 722 q 650 665 677 678 q 596 652 623 652 q 585 655 589 652 q 582 663 582 659 q 590 683 582 671 q 609 712 597 695 q 635 750 621 728 q 660 800 648 772 q 680 862 672 827 q 688 940 688 897 q 681 982 688 964 q 663 1012 674 1000 q 637 1029 652 1024 q 606 1035 622 1035 q 537 1011 566 1035 q 486 944 509 988 q 442 836 463 899 q 396 690 421 772 q 365 589 382 644 q 328 472 349 533 q 281 347 307 411 q 222 219 255 282 q 147 98 189 157 q 53 -12 105 39 q 105 -18 80 -14 q 154 -25 130 -22 q 201 -31 178 -28 q 250 -33 225 -33 q 356 -16 307 -33 q 439 32 404 1 q 494 103 475 62 q 514 192 514 144 q 512 206 514 200 q 510 220 510 212 q 514 230 510 227 q 522 233 518 233 q 557 221 542 233 q 583 190 572 208 q 599 151 593 172 q 604 115 604 131 q 586 30 604 75 q 530 -55 568 -16 q 433 -119 492 -94 q 292 -144 374 -144 q 187 -138 233 -144 q 102 -123 140 -132 q 33 -102 64 -113 q -25 -81 2 -91 q -101 -134 -66 -113 q -164 -167 -136 -155 q -215 -184 -193 -179 q -256 -189 -238 -189 q -294 -185 -279 -189 q -317 -174 -309 -180 q -330 -158 -326 -167 q -334 -142 -334 -150 q -313 -90 -334 -114 q -254 -48 -293 -66 q -159 -20 -216 -31 q -32 -9 -103 -10 q 18 74 -6 28 q 62 167 41 119 q 101 262 83 214 q 133 352 119 309 q 159 429 148 394 q 179 486 171 464 q 222 607 198 541 q 278 742 247 673 q 347 874 309 810 q 432 988 385 939 q 536 1068 479 1038 q 661 1099 593 1099 q 722 1088 694 1099 q 770 1055 749 1077 q 803 1001 791 1034 q 815 926 815 969 m -201 -131 q -136 -113 -167 -131 q -77 -64 -105 -96 q -138 -56 -105 -56 q -172 -60 -156 -56 q -201 -71 -189 -64 q -220 -87 -213 -77 q -228 -107 -228 -96 q -221 -124 -228 -117 q -201 -131 -214 -131 z "},"M":{"ha":829,"x_min":-265,"x_max":831,"o":"m 29 -32 q 15 -59 26 -43 q -16 -83 3 -74 q -40 -90 -22 -87 q -81 -96 -58 -93 q -131 -101 -104 -98 q -181 -104 -157 -103 q -222 -107 -204 -106 q -245 -109 -239 -108 q -262 -99 -265 -111 q -235 -68 -258 -87 q -226 -61 -232 -65 q -207 -53 -220 -58 q -170 -44 -193 -49 q -109 -33 -146 -39 q 9 198 -46 91 q 106 385 64 305 q 196 557 155 479 q 287 729 249 659 q 349 844 324 800 q 389 911 374 888 q 408 943 403 935 q 419 954 414 951 q 430 954 425 956 q 439 948 435 953 q 449 940 444 944 q 460 917 458 932 q 456 872 461 901 q 437 779 451 852 q 421 702 431 748 q 400 592 412 656 q 371 443 387 528 q 334 248 355 357 q 386 349 357 292 q 449 469 416 406 q 516 600 481 533 q 584 729 551 666 q 646 849 616 793 q 698 949 675 905 q 735 1019 721 992 q 751 1048 749 1045 q 762 1063 757 1058 q 771 1069 766 1067 q 779 1069 775 1070 q 789 1065 783 1068 q 802 1058 794 1063 q 817 1047 810 1054 q 827 1032 823 1041 q 828 1013 831 1023 q 789 854 820 981 q 757 721 777 800 q 711 528 738 641 q 649 266 684 416 q 567 -77 613 117 q 607 -73 589 -75 q 637 -72 626 -72 q 668 -74 658 -72 q 681 -81 678 -77 q 681 -92 684 -85 q 672 -104 678 -98 q 664 -117 667 -111 q 655 -126 661 -122 q 640 -134 650 -131 q 610 -140 629 -138 q 572 -144 597 -142 q 518 -148 548 -146 q 456 -152 488 -150 q 395 -156 424 -154 q 345 -159 367 -158 q 314 -161 323 -161 q 284 -155 287 -163 q 298 -127 281 -147 q 322 -112 306 -117 q 364 -103 338 -106 q 382 -100 370 -102 q 410 -96 394 -98 l 614 690 q 487 444 543 551 q 391 257 432 337 q 321 120 350 176 q 273 26 292 63 q 216 -82 227 -62 q 204 -105 210 -94 q 191 -124 198 -116 q 176 -138 184 -133 q 158 -143 168 -143 q 130 -133 138 -143 q 126 -104 123 -123 q 149 1 131 -85 q 169 92 157 37 q 197 225 180 146 q 236 407 214 303 q 286 647 258 511 l -50 -26 q 13 -21 -6 -21 q 29 -32 33 -22 z "},"N":{"ha":673,"x_min":-533,"x_max":1118,"o":"m -370 -249 q -258 -224 -310 -249 q -155 -142 -205 -199 q -54 6 -105 -85 q 54 232 -3 98 q 177 544 111 366 q 323 953 243 723 q 285 949 304 951 q 250 944 266 946 q 223 942 234 942 q 211 943 213 941 q 208 952 207 948 q 220 972 208 957 q 242 991 227 983 q 273 1000 258 1000 q 314 1008 282 1000 q 390 1019 345 1015 q 428 1018 410 1019 q 453 1008 446 1017 q 463 996 458 1002 q 473 982 468 990 q 480 965 477 975 q 484 943 484 956 l 397 215 q 503 471 452 348 q 604 702 553 594 q 706 898 654 809 q 816 1049 758 986 q 940 1147 874 1112 q 1082 1182 1005 1182 q 1109 1171 1099 1182 q 1118 1143 1118 1160 q 1116 1116 1118 1132 q 1109 1085 1114 1100 q 1097 1060 1104 1071 q 1082 1050 1090 1050 q 1070 1053 1074 1050 q 1060 1060 1065 1057 q 1048 1067 1055 1064 q 1029 1071 1042 1071 q 902 1035 960 1071 q 791 929 844 999 q 686 759 737 860 q 579 528 635 658 q 463 241 524 398 q 328 -98 401 83 q 316 -115 326 -109 q 295 -126 307 -121 q 272 -134 283 -131 q 256 -139 261 -136 q 245 -140 250 -142 q 237 -133 240 -138 q 231 -122 233 -129 q 231 -107 229 -115 q 264 179 247 25 q 279 321 271 245 q 295 483 287 398 q 311 661 303 568 q 326 848 319 753 q 225 556 275 702 q 126 276 176 410 q 23 27 76 142 q -89 -173 -30 -88 q -216 -307 -149 -258 q -361 -355 -283 -355 q -428 -340 -397 -355 q -483 -304 -459 -326 q -519 -260 -506 -283 q -533 -220 -533 -237 q -514 -193 -533 -193 q -499 -197 -505 -193 q -488 -208 -494 -201 q -474 -221 -481 -214 q -453 -235 -466 -229 q -419 -245 -439 -241 q -370 -249 -399 -249 z "},"O":{"ha":730,"x_min":-35,"x_max":765,"o":"m 765 932 q 758 876 765 902 q 741 828 751 850 q 715 789 730 806 q 686 757 701 771 q 720 749 705 757 q 734 718 734 742 q 719 604 734 668 q 676 468 703 539 q 611 323 648 397 q 529 180 573 250 q 436 50 485 111 q 338 -57 388 -11 q 240 -129 289 -102 q 149 -155 192 -155 q 83 -144 116 -155 q 24 -108 50 -133 q -18 -42 -2 -83 q -35 58 -35 -1 q -15 219 -35 136 q 39 387 5 303 q 120 552 74 471 q 219 706 166 633 q 330 841 273 779 q 444 947 387 903 q 553 1018 500 992 q 650 1043 606 1043 q 706 1033 684 1043 q 742 1008 728 1023 q 760 972 755 992 q 765 932 765 952 m 224 -58 q 276 -37 247 -58 q 336 23 304 -15 q 399 113 367 61 q 462 223 431 164 q 520 347 492 283 q 569 476 547 412 q 605 602 591 541 q 624 715 619 663 q 610 710 616 711 q 599 708 603 708 q 586 710 589 708 q 582 724 582 712 q 597 768 585 744 q 623 817 609 791 q 647 869 636 842 q 657 924 657 897 q 650 958 657 943 q 623 974 643 974 q 557 949 593 974 q 481 881 521 924 q 400 778 441 838 q 321 650 359 719 q 248 505 282 581 q 189 352 214 429 q 150 201 164 275 q 135 60 135 126 q 139 13 135 35 q 154 -24 144 -8 q 182 -49 165 -40 q 224 -58 199 -58 z "},"P":{"ha":782,"x_min":-83,"x_max":865,"o":"m 290 309 q 223 133 256 222 q 158 -50 190 43 q 207 -46 186 -48 q 237 -45 227 -45 q 249 -49 249 -45 l 249 -50 q 235 -75 244 -62 q 204 -98 225 -89 q 177 -104 197 -102 q 128 -110 156 -107 q 68 -114 100 -112 q 9 -117 37 -116 q -40 -119 -19 -119 q -66 -121 -60 -120 l -72 -121 q -83 -115 -83 -121 q -54 -83 -83 -104 q -37 -72 -50 -79 q 7 -58 -24 -64 q 40 24 18 -31 q 91 148 62 78 q 153 299 120 218 q 220 462 186 380 q 287 621 254 544 q 347 760 319 698 q 393 865 374 823 q 421 918 413 907 q 437 929 425 924 q 465 939 450 935 q 497 945 481 943 q 525 947 513 947 q 553 940 544 947 q 554 936 554 940 q 549 919 554 930 q 536 890 544 907 q 518 851 528 873 q 498 807 509 830 q 400 577 448 692 q 304 345 351 463 q 314 343 310 343 q 321 343 317 343 q 452 367 393 343 q 555 429 510 390 q 631 519 600 468 q 684 626 663 570 q 714 738 705 682 q 724 844 724 795 q 712 913 724 882 q 678 967 700 945 q 626 1002 656 989 q 559 1014 596 1014 q 407 985 478 1014 q 282 906 335 957 q 199 783 229 854 q 168 624 168 711 q 163 604 168 612 q 144 595 157 595 q 121 602 136 595 q 93 621 107 609 q 70 649 79 633 q 60 682 60 665 q 82 777 60 730 q 144 865 105 823 q 235 943 183 907 q 346 1004 288 978 q 467 1044 405 1029 q 587 1059 529 1059 q 706 1039 654 1059 q 793 985 758 1020 q 847 903 829 951 q 865 798 865 854 q 844 673 865 734 q 785 558 823 612 q 695 458 747 504 q 582 379 643 412 q 453 327 521 346 q 317 309 386 309 l 290 309 z "},"Q":{"ha":730,"x_min":-35,"x_max":765,"o":"m 396 -309 q 315 -213 345 -264 q 273 -109 286 -161 q 209 -143 240 -130 q 149 -155 178 -155 q 83 -144 116 -155 q 24 -108 50 -133 q -18 -42 -2 -83 q -35 58 -35 -1 q -15 219 -35 136 q 39 387 5 303 q 120 552 74 471 q 219 706 166 633 q 330 841 273 779 q 444 947 387 903 q 553 1018 500 992 q 650 1043 606 1043 q 706 1033 684 1043 q 742 1008 728 1023 q 760 972 755 992 q 765 932 765 952 q 758 876 765 902 q 741 828 751 850 q 715 789 730 806 q 686 757 701 771 q 720 749 705 757 q 734 718 734 742 q 720 608 734 669 q 680 479 705 547 q 620 341 654 412 q 543 203 585 270 q 456 75 502 136 q 363 -33 410 14 q 393 -92 376 -62 q 431 -153 410 -123 q 478 -213 452 -184 q 534 -269 504 -243 q 556 -298 555 -286 q 546 -318 557 -310 q 514 -330 534 -326 q 472 -332 494 -333 q 429 -325 450 -331 q 396 -309 408 -319 m 315 146 q 319 141 317 144 q 321 134 321 139 q 321 94 317 122 q 338 26 325 65 q 401 116 369 64 q 464 226 433 167 q 521 350 494 286 q 569 477 548 414 q 605 602 591 541 q 624 715 619 663 q 610 710 616 711 q 599 708 603 708 q 586 710 589 708 q 582 724 582 712 q 597 768 585 744 q 623 817 609 791 q 647 869 636 842 q 657 924 657 897 q 650 958 657 943 q 623 974 643 974 q 557 949 593 974 q 481 881 521 924 q 400 778 441 838 q 321 650 359 719 q 248 505 282 581 q 189 352 214 429 q 150 201 164 275 q 135 60 135 126 q 139 13 135 35 q 154 -24 144 -8 q 182 -49 165 -40 q 224 -58 199 -58 q 242 -55 232 -58 q 262 -45 252 -51 q 260 18 259 -12 q 265 73 261 48 q 274 115 269 97 q 285 143 279 134 q 294 150 289 147 q 306 151 298 153 l 315 146 z "},"R":{"ha":781,"x_min":-86,"x_max":892,"o":"m 309 355 q 232 156 270 257 q 158 -50 194 56 q 229 -44 205 -47 q 249 -50 253 -41 q 235 -75 244 -62 q 204 -98 225 -89 q 177 -104 198 -102 q 129 -110 157 -107 q 69 -114 100 -112 q 9 -117 37 -116 q -40 -119 -19 -119 q -66 -121 -60 -120 q -82 -112 -86 -123 q -54 -83 -78 -101 q -37 -72 -50 -79 q 7 -58 -24 -64 q 39 20 18 -32 q 88 139 60 72 q 148 285 115 207 q 214 444 180 363 q 279 600 247 524 q 339 741 311 677 q 387 852 366 805 q 418 918 408 899 q 444 933 424 926 q 486 944 463 940 q 527 947 508 947 q 553 940 547 946 q 552 928 556 939 q 541 899 549 917 q 521 858 532 881 q 498 807 510 834 q 409 600 454 702 q 322 390 365 497 q 453 412 395 391 q 555 471 511 434 q 632 555 600 507 q 684 654 664 602 q 714 759 705 706 q 724 857 724 811 q 712 921 724 892 q 678 970 700 949 q 626 1002 656 991 q 559 1014 596 1014 q 407 985 478 1014 q 282 906 335 957 q 199 783 229 854 q 168 624 168 711 q 163 604 168 612 q 144 595 157 595 q 121 602 136 595 q 93 621 107 609 q 70 649 79 633 q 60 682 60 665 q 82 777 60 730 q 144 865 105 823 q 235 943 183 907 q 346 1004 288 978 q 467 1044 405 1029 q 587 1059 529 1059 q 706 1041 654 1059 q 793 990 758 1023 q 847 912 829 958 q 865 814 865 867 q 836 677 865 743 q 754 553 806 610 q 635 452 703 496 q 489 383 566 408 q 505 227 494 302 q 532 86 516 152 q 567 -35 547 20 q 611 -130 587 -90 q 663 -191 635 -169 q 722 -212 691 -212 q 780 -195 755 -212 q 822 -156 804 -177 q 853 -117 840 -135 q 878 -100 867 -100 q 889 -106 887 -100 q 892 -118 892 -112 q 882 -165 892 -140 q 850 -211 871 -190 q 794 -246 828 -232 q 711 -260 760 -260 q 594 -233 644 -260 q 506 -162 543 -207 q 442 -56 468 -117 q 399 73 416 5 q 372 214 382 142 q 358 357 363 287 q 337 355 348 355 q 317 355 327 355 l 309 355 z "},"S":{"ha":549,"x_min":-135,"x_max":648,"o":"m 488 1013 q 437 1003 464 1013 q 382 975 410 993 q 330 933 355 958 q 285 879 304 908 q 254 817 266 850 q 243 749 243 783 q 256 663 243 702 q 290 587 270 623 q 333 517 310 551 q 377 446 357 483 q 410 368 397 410 q 424 278 424 327 q 412 167 424 220 q 377 66 399 113 q 322 -20 354 19 q 252 -87 291 -59 q 168 -130 213 -115 q 74 -146 123 -146 q -22 -128 18 -146 q -86 -84 -61 -111 q -123 -26 -112 -57 q -135 33 -135 5 q -119 115 -135 81 q -79 171 -103 149 q -27 203 -55 193 q 24 214 0 214 q 38 207 33 214 q 43 193 43 201 q 33 173 43 182 q 12 149 24 163 q -9 112 1 135 q -18 49 -18 88 q -11 -1 -18 24 q 13 -44 -3 -25 q 53 -75 29 -63 q 110 -86 77 -86 q 179 -71 145 -86 q 241 -27 214 -56 q 284 42 268 1 q 301 135 301 83 q 288 218 301 177 q 255 299 275 259 q 212 379 235 340 q 170 459 189 419 q 137 539 150 499 q 123 621 123 579 q 139 721 123 669 q 183 822 155 772 q 250 916 211 871 q 334 995 288 961 q 430 1048 379 1029 q 533 1068 481 1068 q 589 1058 567 1068 q 625 1033 612 1048 q 643 997 638 1017 q 648 957 648 977 q 638 890 648 921 q 613 834 629 859 q 578 791 597 810 q 541 759 559 772 q 507 740 523 746 q 482 733 491 733 q 469 735 473 733 q 465 749 465 737 q 480 793 468 769 q 506 842 492 817 q 530 895 519 867 q 541 949 541 922 q 538 969 541 958 q 530 990 536 981 q 514 1006 524 1000 q 488 1013 504 1013 z "},"T":{"ha":755,"x_min":-140,"x_max":1004,"o":"m 1004 1046 q 992 1007 1004 1029 q 957 962 980 985 q 900 920 934 939 q 822 890 865 901 q 769 786 798 846 q 708 646 741 726 q 665 534 687 596 q 617 406 643 473 q 563 270 592 339 q 498 136 533 201 q 420 16 463 72 q 328 -83 378 -41 q 219 -149 278 -125 q 89 -174 159 -174 q 17 -169 56 -174 q -58 -148 -23 -163 q -117 -103 -93 -132 q -140 -25 -140 -73 q -138 -3 -140 -20 q -130 31 -136 14 q -114 63 -123 49 q -89 77 -104 77 q -77 71 -81 77 q -72 64 -73 65 q -20 -13 -49 18 q 39 -65 8 -45 q 100 -94 69 -85 q 160 -103 132 -103 q 238 -77 203 -103 q 303 -5 273 -51 q 360 103 334 41 q 413 237 387 165 q 465 387 439 309 q 522 543 492 465 q 612 738 564 652 q 708 886 659 823 q 620 910 665 893 q 530 946 576 928 q 437 978 484 964 q 342 991 390 991 q 296 982 319 991 q 255 952 273 973 q 225 896 237 930 q 214 810 214 861 q 219 744 214 779 q 238 672 225 709 q 272 596 251 635 q 323 518 293 557 q 326 509 326 515 q 319 494 325 500 q 301 488 314 488 q 215 501 248 488 q 162 539 181 514 q 136 601 143 564 q 129 685 129 638 q 133 766 129 726 q 147 841 136 805 q 177 911 157 878 q 227 975 196 945 q 293 1033 261 1010 q 355 1069 326 1055 q 413 1089 385 1083 q 465 1095 440 1095 q 552 1081 511 1095 q 633 1048 593 1067 q 712 1010 673 1029 q 794 981 751 991 q 890 1049 844 1027 q 975 1071 937 1071 q 997 1064 989 1071 q 1004 1046 1004 1057 m 946 1042 q 914 1026 933 1042 q 869 972 895 1010 q 912 982 895 973 q 939 1001 929 991 q 953 1021 949 1011 q 957 1032 957 1030 q 946 1042 957 1042 z "},"U":{"ha":675,"x_min":-8,"x_max":928,"o":"m 546 989 q 528 968 541 977 q 501 958 516 960 q 470 955 485 956 q 441 951 455 953 q 315 652 368 777 q 228 437 263 526 q 172 291 193 349 q 139 193 151 233 q 125 127 128 154 q 122 74 122 100 q 141 -13 122 18 q 193 -45 161 -45 q 258 -18 224 -45 q 324 54 291 8 q 391 162 357 100 q 455 294 424 224 q 516 439 487 364 q 571 588 545 515 q 618 728 597 661 q 657 850 640 795 q 684 942 673 904 q 697 993 694 979 q 667 993 683 993 q 637 995 651 994 q 615 999 624 996 q 606 1007 606 1002 q 609 1014 606 1010 q 614 1022 612 1018 l 614 1025 q 620 1035 615 1031 q 631 1040 625 1039 q 709 1053 673 1047 q 777 1062 744 1058 q 843 1067 810 1065 q 914 1069 876 1069 q 923 1066 918 1069 q 928 1055 928 1062 q 927 1052 928 1053 q 926 1048 926 1050 l 921 1031 q 904 1009 917 1017 q 878 1000 890 1002 q 838 997 857 999 q 800 994 819 996 q 772 932 788 968 q 738 854 756 896 q 702 768 720 812 q 665 682 683 724 q 579 473 623 582 q 452 191 511 307 q 339 4 393 76 q 234 -99 286 -67 q 131 -131 183 -131 q 27 -86 63 -131 q -8 41 -8 -41 q 7 159 -8 94 q 54 298 22 223 q 122 471 82 373 q 207 674 156 555 q 325 946 257 793 l 301 946 q 287 946 296 946 q 271 945 279 945 q 258 947 264 945 q 253 951 253 948 q 256 957 253 954 l 261 968 q 288 987 269 985 q 350 999 320 994 q 411 1008 380 1004 q 472 1015 441 1013 q 538 1021 503 1018 q 549 1018 543 1021 q 554 1008 554 1016 q 553 1006 554 1007 q 553 1003 553 1004 l 546 989 z "},"V":{"ha":583,"x_min":56,"x_max":886,"o":"m 618 1006 q 632 1030 623 1017 q 659 1053 641 1043 q 681 1059 665 1056 q 719 1064 697 1061 q 765 1068 741 1066 q 810 1072 789 1070 q 848 1074 831 1073 q 869 1075 864 1075 q 883 1066 886 1077 q 859 1039 880 1056 q 850 1033 855 1036 q 833 1026 845 1029 q 802 1018 822 1022 q 750 1008 783 1013 l 146 -157 q 141 -163 144 -160 q 135 -167 139 -165 q 121 -167 127 -170 l 56 -149 q 97 127 75 -29 q 143 451 117 262 q 200 879 169 640 q 148 874 172 876 q 111 873 123 873 q 81 876 91 873 q 68 883 71 878 q 69 893 66 887 q 78 905 72 899 q 86 918 83 912 q 95 928 90 923 q 111 936 100 932 q 140 942 121 939 q 180 945 153 943 q 240 949 207 947 q 309 954 273 951 q 376 957 345 956 q 431 960 408 959 q 464 962 455 962 q 495 957 492 964 q 481 928 497 949 q 456 912 472 918 q 414 903 440 907 q 392 900 408 901 q 357 896 376 898 q 330 749 345 828 q 302 588 316 670 q 274 425 288 506 q 248 273 260 345 q 225 145 235 202 q 210 53 216 87 l 696 1002 q 634 997 653 996 q 618 1006 614 997 z "},"W":{"ha":814,"x_min":45,"x_max":1105,"o":"m 489 979 q 466 964 481 970 q 425 954 450 958 q 406 951 418 953 q 378 947 393 949 q 353 816 366 884 q 327 679 340 747 q 301 543 314 610 q 278 417 289 477 q 257 309 267 358 q 240 224 247 259 q 349 468 302 361 q 432 653 396 574 q 492 789 467 733 q 534 882 517 845 q 583 990 574 970 q 595 1013 589 1002 q 606 1033 600 1024 q 620 1046 612 1041 q 637 1051 627 1051 q 672 1013 678 1051 q 657 907 669 994 q 644 815 652 871 q 625 682 636 760 q 598 498 613 603 q 564 257 583 393 l 893 1015 q 830 1010 849 1010 q 814 1021 810 1010 q 826 1047 817 1032 q 854 1072 836 1063 q 879 1079 861 1076 q 920 1085 897 1082 q 970 1089 943 1087 q 1021 1094 997 1092 q 1062 1096 1044 1095 q 1086 1097 1080 1097 q 1102 1087 1105 1099 q 1076 1057 1099 1076 q 1067 1050 1073 1055 q 1049 1042 1062 1046 q 1014 1033 1036 1038 q 953 1022 991 1027 q 897 897 925 959 q 843 776 869 835 q 792 663 817 718 q 746 562 768 609 q 650 351 695 450 q 570 179 604 249 q 515 65 537 109 q 481 -3 493 20 q 464 -35 469 -26 q 453 -45 458 -43 q 443 -46 448 -47 q 433 -40 438 -44 q 422 -32 427 -36 q 409 -8 412 -24 q 411 36 407 7 q 423 130 414 56 q 433 207 427 161 q 447 318 439 253 q 466 468 455 382 q 490 664 477 554 q 445 564 471 621 q 391 443 420 507 q 332 312 362 379 q 274 182 302 245 q 219 61 245 118 q 174 -40 193 3 q 142 -111 154 -84 q 127 -142 130 -138 q 109 -161 117 -161 q 90 -157 101 -162 q 78 -150 85 -154 q 62 -139 70 -145 q 50 -124 55 -132 q 47 -104 45 -115 q 104 209 75 41 q 132 363 117 280 q 161 539 146 447 q 194 729 177 631 q 227 929 210 827 q 184 926 203 927 q 153 925 164 925 q 121 927 132 925 q 109 934 111 930 q 109 944 106 939 q 117 957 111 950 q 123 969 121 964 q 131 979 125 975 q 145 987 136 983 q 175 993 155 990 q 213 997 188 995 q 267 1001 237 999 q 329 1005 296 1003 q 389 1009 361 1007 q 439 1012 418 1010 q 471 1014 461 1013 q 501 1008 498 1016 q 489 979 504 1000 z "},"X":{"ha":635,"x_min":-195,"x_max":868,"o":"m 432 979 q 446 972 446 979 q 438 959 446 967 q 416 942 430 951 q 410 938 414 940 q 399 932 406 935 q 380 927 392 930 q 350 921 368 924 q 359 737 354 824 q 368 572 364 650 q 423 654 395 611 q 484 745 452 696 q 554 848 517 793 q 635 968 591 903 q 577 965 601 966 q 553 964 554 964 q 538 971 538 964 q 567 1002 538 983 q 576 1008 570 1004 q 597 1015 583 1011 q 639 1024 612 1019 q 710 1034 665 1029 q 790 1042 758 1039 q 842 1044 823 1044 q 868 1036 868 1044 l 868 1035 q 854 1010 865 1024 q 822 987 843 997 q 792 981 814 984 q 742 975 770 979 q 552 738 645 851 q 372 510 460 625 q 398 124 387 272 q 415 -81 410 -23 q 465 -76 443 -77 q 501 -75 488 -75 q 536 -79 526 -75 q 546 -89 546 -83 q 538 -107 546 -96 q 530 -120 532 -114 q 522 -130 527 -125 q 508 -138 517 -134 q 478 -143 498 -141 q 441 -147 465 -145 q 387 -152 416 -149 q 325 -156 357 -154 q 264 -160 293 -159 q 214 -163 236 -162 q 183 -164 192 -164 l 172 -164 q 151 -155 151 -164 q 154 -144 151 -151 q 165 -130 157 -137 q 189 -116 174 -122 q 228 -106 203 -109 q 240 -104 232 -104 q 260 -102 249 -103 q 253 134 256 25 q 245 339 249 243 q 132 170 187 256 q 22 -14 77 83 q 76 -9 54 -10 q 113 -8 98 -8 q 138 -16 138 -8 l 138 -17 q 122 -42 134 -28 q 90 -65 111 -56 q 58 -72 82 -68 q 3 -77 34 -75 q -61 -82 -28 -80 q -122 -85 -94 -83 q -166 -87 -149 -86 q -182 -87 -184 -87 q -195 -82 -195 -87 q -165 -50 -195 -71 q -158 -45 -162 -48 q -145 -40 -153 -43 q -124 -34 -137 -37 q -89 -28 -111 -31 q 16 101 -32 42 q 104 211 64 159 q 178 308 144 262 q 243 395 212 353 q 227 734 235 609 q 216 905 220 859 q 170 901 189 902 q 138 900 150 900 q 114 905 114 900 q 127 932 114 916 q 161 957 140 947 q 189 963 169 960 q 237 968 210 966 q 294 972 264 970 q 352 976 325 975 q 399 978 379 977 q 427 979 420 979 l 432 979 z "},"Y":{"ha":800,"x_min":41,"x_max":925,"o":"m 925 1067 q 904 1022 925 1061 q 852 918 883 983 q 787 763 822 852 q 724 564 752 673 q 690 415 703 484 q 665 284 677 346 q 641 167 654 223 q 608 56 628 111 q 559 -54 589 1 q 486 -170 530 -110 q 410 -257 447 -222 q 340 -313 374 -292 q 278 -342 307 -334 q 224 -351 248 -351 q 177 -344 195 -351 q 148 -326 158 -337 q 133 -298 137 -314 q 129 -265 129 -283 q 143 -193 129 -235 q 198 -98 157 -150 q 312 12 239 -47 q 503 132 385 71 q 516 214 510 174 q 531 296 523 255 q 550 377 539 336 q 576 458 561 417 q 528 392 555 426 q 469 326 500 357 q 403 266 437 294 q 333 216 369 237 q 262 183 298 195 q 195 171 227 171 q 82 216 123 171 q 41 355 41 260 q 43 389 41 372 q 48 425 45 406 q 59 466 52 444 q 75 514 65 488 q 131 631 98 574 q 202 738 165 688 q 278 829 239 787 q 349 901 316 871 q 404 947 381 930 q 435 964 427 964 q 441 963 437 964 q 450 961 446 962 q 457 956 454 959 q 460 950 460 954 q 447 933 460 947 q 413 894 434 919 q 364 834 391 869 q 309 755 337 799 q 254 660 281 711 q 207 550 227 608 q 195 512 199 529 q 188 481 190 495 q 184 454 185 467 q 183 429 183 441 q 208 340 183 368 q 272 313 233 313 q 334 326 300 313 q 401 362 367 338 q 469 420 435 386 q 532 496 503 454 q 601 601 565 544 q 672 715 637 657 q 741 829 708 773 q 801 933 774 885 q 848 1016 828 981 q 878 1069 868 1052 q 886 1078 881 1075 q 897 1082 891 1082 q 905 1080 903 1082 l 917 1076 q 921 1073 919 1075 q 925 1067 924 1070 m 478 8 q 486 47 482 28 q 494 85 490 66 q 414 26 455 59 q 338 -44 372 -7 q 282 -122 304 -82 q 260 -201 260 -162 q 274 -243 260 -229 q 309 -258 288 -258 q 351 -249 330 -258 q 393 -211 372 -239 q 436 -130 414 -182 q 478 8 457 -78 z "},"Z":{"ha":628,"x_min":-139,"x_max":694,"o":"m 694 857 q 662 698 694 774 q 577 559 630 623 q 454 447 524 496 q 310 367 385 397 q 367 340 345 361 q 402 293 389 319 q 420 241 415 267 q 425 196 425 214 q 404 67 425 133 q 347 -60 382 1 q 263 -175 311 -121 q 164 -270 216 -229 q 59 -333 112 -310 q -41 -357 6 -357 q -79 -353 -61 -357 q -110 -340 -97 -349 q -131 -318 -123 -331 q -139 -286 -139 -304 q -121 -213 -139 -251 q -71 -136 -102 -174 q 2 -60 -40 -97 q 91 11 44 -22 q 188 72 138 44 q 285 118 237 99 q 287 134 286 126 q 288 150 288 142 q 277 218 288 190 q 252 264 267 245 q 219 294 237 283 q 185 312 201 304 q 160 323 170 319 q 150 332 150 327 q 153 343 150 337 q 162 355 157 349 q 173 364 167 360 q 184 370 179 368 q 251 397 213 378 q 329 444 289 415 q 408 514 369 473 q 477 608 446 555 q 526 729 507 662 q 545 879 545 796 q 536 944 545 918 q 513 986 527 970 q 480 1009 498 1002 q 441 1017 461 1017 q 371 996 406 1017 q 306 935 335 975 q 259 834 277 894 q 241 694 241 774 q 243 649 241 669 q 248 614 245 629 q 252 590 250 600 q 254 575 254 581 q 250 566 254 570 q 239 562 245 562 q 186 573 212 562 q 141 604 161 584 q 108 651 121 623 q 96 711 96 678 q 108 778 96 741 q 144 856 121 816 q 202 933 168 895 q 281 1002 237 972 q 379 1050 326 1031 q 494 1068 433 1068 q 577 1054 540 1068 q 640 1012 614 1039 q 680 946 666 985 q 694 857 694 907 m 53 -267 q 101 -251 77 -267 q 147 -210 125 -236 q 190 -150 170 -184 q 228 -78 211 -116 q 258 -1 245 -40 q 278 74 271 38 q 220 39 250 60 q 162 -6 190 19 q 108 -59 134 -31 q 64 -116 83 -87 q 34 -174 45 -145 q 22 -228 22 -202 q 53 -267 22 -267 z "},"a":{"ha":453,"x_min":-47,"x_max":465,"o":"m 463 225 q 427 146 448 187 q 380 70 406 104 q 325 14 354 36 q 267 -8 296 -8 q 234 2 247 -8 q 213 26 221 12 q 202 58 205 41 q 199 89 199 75 q 204 139 199 111 q 224 204 209 168 q 175 141 201 173 q 124 83 150 109 q 72 40 98 57 q 22 24 45 24 q -1 30 12 24 q -23 46 -13 35 q -41 74 -34 58 q -47 113 -47 91 q -31 194 -47 149 q 13 283 -14 238 q 71 370 39 328 q 132 443 102 412 q 183 492 159 472 q 229 525 208 513 q 269 544 250 538 q 306 550 288 549 q 333 546 322 550 q 350 536 344 543 q 358 522 356 530 q 361 505 361 514 q 355 481 361 496 q 340 451 350 466 q 318 426 331 436 q 292 415 306 415 q 285 419 286 415 q 283 429 283 423 q 286 456 283 441 q 289 484 289 472 q 287 498 289 494 q 277 503 284 503 q 239 474 259 495 q 199 424 219 452 q 162 361 180 395 q 130 295 144 328 q 108 232 116 262 q 100 183 100 203 q 104 161 100 169 q 114 153 108 153 q 129 161 119 153 q 152 184 139 170 q 180 217 165 199 q 208 252 194 235 q 233 286 222 270 q 252 311 245 301 q 276 351 269 337 q 292 366 283 366 q 301 360 295 366 q 314 348 308 355 q 326 333 321 340 q 330 322 330 326 q 321 295 330 313 q 297 240 313 278 q 271 164 279 199 q 262 102 262 129 q 264 83 262 92 q 269 65 265 73 q 278 53 272 58 q 294 47 284 47 q 328 61 311 47 q 361 94 345 74 q 391 138 377 115 q 416 182 406 161 q 434 218 427 203 q 441 235 440 233 q 454 245 447 245 q 462 243 458 245 q 465 235 465 240 q 463 225 465 231 z "},"b":{"ha":446,"x_min":-31,"x_max":465,"o":"m 123 87 q 163 110 138 87 q 215 168 188 132 q 199 271 199 205 q 208 368 199 321 q 234 448 218 414 q 272 503 250 483 q 317 524 293 524 q 367 499 349 524 q 385 436 385 475 q 378 376 385 405 q 359 316 372 347 q 326 253 346 286 q 278 180 305 220 q 269 168 273 174 q 260 155 264 162 q 281 134 268 142 q 314 126 295 126 q 356 137 338 126 q 390 165 375 148 q 417 203 405 182 q 440 244 429 224 q 454 258 447 258 q 462 256 458 258 q 465 249 465 253 q 463 237 465 243 q 440 193 454 217 q 407 148 427 168 q 363 113 388 127 q 309 98 338 98 q 277 105 296 98 q 239 131 258 111 q 193 81 217 105 q 144 37 169 56 q 95 6 119 18 q 47 -5 70 -5 q 11 4 26 -5 q -13 31 -3 14 q -26 68 -22 47 q -31 111 -31 89 q -26 169 -31 138 q -15 228 -22 199 q 1 285 -7 258 q 18 334 10 312 q 48 409 31 368 q 86 497 64 450 q 138 600 109 545 q 205 721 167 656 q 293 864 256 806 q 355 959 330 923 q 394 1012 380 996 q 415 1028 409 1028 q 425 1020 420 1028 q 431 994 431 1012 q 424 962 431 982 q 407 919 416 941 q 387 877 397 897 q 371 844 377 857 q 273 650 315 736 q 199 496 231 564 q 148 377 168 429 q 115 286 127 326 q 98 215 103 245 q 93 160 93 185 q 101 107 93 126 q 123 87 109 87 m 239 237 q 239 221 239 229 q 241 205 240 213 q 270 252 256 228 q 293 299 283 275 q 308 343 302 322 q 314 383 314 365 q 297 410 314 410 q 278 394 288 409 q 259 354 268 378 q 244 299 250 330 q 239 237 239 269 z "},"c":{"ha":385,"x_min":-36,"x_max":397,"o":"m 86 174 q 92 127 86 150 q 107 88 97 105 q 135 60 118 71 q 174 49 151 49 q 234 65 205 49 q 290 106 264 81 q 337 166 316 132 q 374 235 359 199 q 379 243 376 240 q 386 245 382 245 q 394 243 391 245 q 397 235 397 241 q 397 231 397 233 q 395 225 396 229 q 354 147 380 190 q 291 67 328 104 q 208 5 254 31 q 109 -20 161 -20 q 52 -8 78 -20 q 6 26 26 4 q -25 79 -14 47 q -36 150 -36 111 q -24 234 -36 189 q 10 321 -12 278 q 60 405 31 365 q 123 475 90 445 q 195 524 157 506 q 269 542 232 542 q 316 521 301 542 q 332 464 332 500 q 319 410 332 435 q 289 367 307 385 q 255 338 272 349 q 228 328 237 328 q 220 335 220 328 q 224 346 220 338 q 236 373 230 358 q 248 401 243 387 q 256 429 253 416 q 260 453 260 443 q 240 475 260 475 q 209 463 226 475 q 175 429 193 450 q 142 379 158 408 q 114 317 126 351 q 94 247 101 283 q 86 174 86 210 z "},"d":{"ha":481,"x_min":-53,"x_max":664,"o":"m 657 1008 q 662 990 661 1003 q 664 961 664 978 q 654 893 664 929 q 627 817 645 858 q 583 729 609 776 q 525 627 557 682 q 430 465 475 543 q 351 319 385 387 q 296 192 316 250 q 275 90 275 134 q 282 63 275 73 q 306 53 288 53 q 352 70 329 53 q 396 113 375 87 q 435 172 416 140 q 468 235 454 204 q 481 245 473 245 q 488 243 485 245 q 492 235 492 240 q 489 225 492 231 q 467 178 479 204 q 438 126 454 153 q 403 75 422 100 q 362 31 384 50 q 317 0 341 12 q 268 -12 294 -12 q 218 7 238 -12 q 199 77 199 27 q 200 105 199 90 q 204 136 201 121 q 164 81 185 108 q 120 34 142 55 q 74 0 97 13 q 28 -12 50 -12 q 2 -6 16 -12 q -24 13 -12 -1 q -45 48 -37 26 q -53 103 -53 71 q -36 195 -53 142 q 26 315 -18 248 q 96 397 55 357 q 181 468 137 437 q 265 519 224 500 q 334 538 306 538 q 339 536 336 538 q 346 532 342 534 q 456 761 396 650 q 587 964 515 871 q 621 999 604 985 q 648 1013 638 1013 q 657 1008 655 1013 m 296 404 q 311 446 303 425 q 328 488 319 467 q 299 475 315 483 q 264 454 283 467 q 222 422 244 441 q 175 378 199 404 q 94 264 125 325 q 62 144 62 203 q 72 109 62 117 q 93 100 81 100 q 124 111 107 100 q 159 141 141 122 q 196 185 177 159 q 233 239 215 210 q 266 328 249 285 q 296 404 283 372 z "},"e":{"ha":358,"x_min":-47,"x_max":372,"o":"m 370 225 q 313 130 345 175 q 242 52 280 85 q 163 -1 205 18 q 79 -21 121 -21 q 25 -8 49 -21 q -15 26 1 4 q -39 77 -31 47 q -47 139 -47 106 q -33 245 -47 194 q 7 340 -18 296 q 62 420 31 384 q 125 483 94 457 q 188 524 157 509 q 240 538 218 538 q 270 531 257 538 q 292 513 283 524 q 306 488 301 502 q 310 461 310 475 q 288 375 310 420 q 231 291 267 331 q 152 220 196 252 q 62 174 108 189 q 67 126 62 149 q 83 88 73 104 q 110 61 94 71 q 149 52 126 52 q 194 61 171 52 q 242 91 217 70 q 293 148 267 113 q 349 235 319 183 q 361 245 355 245 q 369 243 366 245 q 372 235 372 240 q 370 225 372 231 m 218 460 q 175 437 199 460 q 128 377 151 414 q 88 297 106 341 q 64 210 70 252 q 130 249 97 225 q 189 300 163 272 q 231 361 215 329 q 248 427 248 393 q 240 450 248 440 q 218 460 233 460 z "},"f":{"ha":297,"x_min":-149,"x_max":408,"o":"m 140 98 q 123 -30 137 31 q 89 -143 109 -91 q 43 -236 68 -195 q -7 -307 18 -278 q -56 -352 -33 -336 q -96 -368 -79 -368 q -120 -361 -110 -368 q -136 -340 -130 -353 q -145 -309 -142 -327 q -149 -271 -149 -292 q -133 -135 -149 -210 q -92 23 -118 -60 q -30 195 -65 106 q 44 372 5 283 q 124 545 83 460 q 204 705 165 629 q 276 845 242 781 q 334 954 309 908 q 355 986 342 973 q 378 999 368 1000 q 387 993 382 999 q 397 977 393 987 q 405 954 401 967 q 408 925 408 940 q 401 865 408 895 q 382 806 393 835 q 358 751 371 778 q 334 699 345 724 q 308 649 324 679 q 272 584 292 619 q 230 511 252 549 q 186 435 208 472 q 146 363 165 397 q 114 301 127 328 q 126 270 121 289 q 135 230 131 252 q 140 184 138 208 q 142 135 142 159 l 142 126 q 150 125 146 125 q 160 125 155 125 q 204 135 184 125 q 240 162 224 145 q 269 200 256 179 q 292 244 281 222 q 306 258 298 258 q 313 256 310 258 q 317 249 317 253 q 314 237 317 243 q 292 193 306 217 q 259 148 279 168 q 213 113 239 127 q 154 98 187 98 l 140 98 m -35 -268 q -17 -256 -29 -268 q 9 -221 -5 -243 q 39 -165 24 -198 q 68 -91 55 -132 q 92 1 82 -49 q 103 109 101 52 q 77 125 88 115 q 57 147 65 135 q 32 66 45 108 q 8 -15 19 24 q -13 -87 -3 -54 q -29 -142 -23 -121 q -47 -239 -47 -208 q -44 -260 -47 -252 q -35 -268 -41 -268 m 81 196 q 103 142 81 161 q 101 175 102 159 q 98 202 100 191 q 94 221 96 214 q 90 228 92 228 q 84 219 88 228 q 81 196 81 210 z "},"g":{"ha":479,"x_min":-69,"x_max":416,"o":"m 416 385 q 414 361 416 374 q 406 331 412 349 q 391 289 401 313 q 367 231 381 264 q 314 112 342 172 q 258 -6 287 52 q 202 -117 230 -64 q 148 -215 174 -170 q 99 -294 121 -260 q 60 -346 77 -328 q 36 -363 50 -357 q 7 -368 22 -368 q -23 -363 -9 -368 q -47 -346 -37 -358 q -63 -314 -58 -334 q -69 -264 -69 -294 q -59 -199 -69 -235 q -20 -121 -48 -163 q -28 -201 -28 -173 q -21 -244 -28 -233 q -4 -256 -14 -256 q 11 -250 2 -256 q 32 -227 19 -243 q 61 -181 44 -210 q 100 -106 77 -152 q 138 -29 116 -74 q 183 65 157 9 q 244 196 210 121 q 193 128 221 163 q 135 65 165 94 q 72 19 104 37 q 8 1 39 1 q -42 20 -22 1 q -61 83 -61 39 q -40 183 -61 133 q 15 280 -20 233 q 94 370 50 328 q 186 448 138 413 q 280 508 233 483 q 366 546 327 534 q 374 548 370 547 q 382 549 378 549 q 392 546 388 549 q 396 538 396 543 q 383 508 396 519 q 349 488 370 497 q 302 467 328 479 q 249 436 276 456 q 191 379 220 414 q 138 305 161 345 q 101 224 115 265 q 86 149 86 183 q 92 124 86 132 q 106 117 97 117 q 136 131 117 117 q 177 173 154 146 q 228 237 201 200 q 283 321 255 275 q 314 372 300 348 q 338 413 328 395 q 356 440 349 430 q 368 450 363 450 q 381 445 373 450 q 397 430 390 439 q 411 409 405 420 q 416 385 416 397 z "},"h":{"ha":492,"x_min":-85,"x_max":504,"o":"m 501 225 q 451 127 477 172 q 396 51 425 83 q 337 2 367 20 q 275 -16 307 -16 q 236 -5 252 -16 q 208 22 219 5 q 192 63 197 39 q 187 113 187 86 q 197 187 187 149 q 223 262 207 225 q 259 336 239 300 q 301 407 279 372 q 242 357 274 385 q 179 300 210 330 q 122 242 149 271 q 81 192 96 214 q 30 116 50 151 q -5 56 10 81 q -32 16 -20 31 q -57 1 -43 1 q -76 6 -66 1 q -85 26 -85 12 q -70 94 -85 48 q -26 203 -55 139 q 6 279 -12 235 q 46 374 24 322 q 95 482 68 425 q 150 599 121 539 q 211 715 178 658 q 272 823 243 773 q 326 911 302 873 q 364 970 351 949 q 386 999 376 987 q 406 1010 396 1010 q 418 1000 412 1010 q 429 977 424 991 q 436 948 433 963 q 439 922 439 933 q 438 908 439 919 q 433 881 437 898 q 418 842 428 864 q 389 794 408 820 q 354 743 374 774 q 310 676 333 713 q 263 598 287 639 q 216 518 239 557 q 181 454 200 489 q 143 384 163 420 q 105 313 124 349 q 71 248 87 278 q 130 320 102 288 q 180 373 158 351 q 227 418 205 399 q 340 513 298 481 q 404 545 382 545 q 422 539 412 545 q 441 525 433 534 q 455 503 450 515 q 461 478 461 491 q 448 438 461 461 q 416 386 435 416 q 375 321 397 357 q 335 241 353 285 q 305 156 316 197 q 294 85 294 114 q 300 51 294 65 q 319 36 306 36 q 353 51 334 36 q 395 92 373 66 q 439 155 417 119 q 481 235 462 191 q 493 245 486 245 q 500 243 497 245 q 504 235 504 240 q 503 230 504 233 q 501 225 503 227 z "},"i":{"ha":273,"x_min":-37,"x_max":370,"o":"m 370 694 q 361 659 370 680 q 338 620 352 638 q 308 588 324 601 q 275 575 291 575 q 240 588 254 575 q 225 615 225 601 q 230 633 225 621 q 241 660 234 646 q 258 690 248 675 q 279 718 268 705 q 301 738 290 730 q 323 746 313 746 q 360 733 351 746 q 370 694 370 720 m 282 225 q 230 127 258 172 q 172 51 202 83 q 111 2 142 20 q 49 -16 79 -16 q 9 -6 26 -16 q -17 21 -7 4 q -33 61 -28 38 q -37 110 -37 83 q -24 208 -37 159 q 11 303 -10 256 q 60 394 33 349 q 114 481 87 439 q 129 499 120 491 q 146 507 138 507 q 169 503 157 507 q 190 493 180 499 q 205 478 199 486 q 211 463 211 471 q 199 431 211 453 q 170 379 188 410 q 133 313 153 349 q 95 237 113 276 q 66 158 77 197 q 54 82 54 118 q 55 65 54 73 q 60 50 56 56 q 72 40 64 43 q 93 36 79 36 q 129 53 107 36 q 173 98 150 70 q 220 162 197 126 q 261 235 243 197 q 273 245 267 245 q 281 243 278 245 q 285 235 285 240 q 282 225 285 231 z "},"j":{"ha":248,"x_min":-296,"x_max":310,"o":"m 109 507 q 126 515 113 515 q 148 511 136 515 q 171 502 160 507 q 189 490 181 496 q 196 478 196 483 q 182 436 195 467 q 150 361 170 404 q 105 266 130 317 q 57 164 81 215 q 13 68 33 114 q -20 -8 -8 23 q -33 -43 -22 -16 q -60 -109 -44 -70 q 28 -35 -14 -72 q 107 42 71 1 q 177 131 144 83 q 236 235 209 178 q 249 245 240 245 q 256 242 253 245 q 260 233 260 239 q 257 225 260 231 q 199 117 233 167 q 123 20 165 66 q 29 -70 80 -26 q -81 -161 -22 -115 q -115 -244 -97 -202 q -148 -323 -132 -287 q -174 -386 -163 -359 q -189 -419 -185 -412 q -215 -456 -201 -444 q -252 -469 -229 -469 q -270 -461 -262 -469 q -284 -439 -279 -452 q -293 -408 -290 -425 q -296 -375 -296 -391 q -292 -346 -296 -363 q -277 -304 -289 -329 q -242 -245 -265 -279 q -179 -167 -219 -212 q -45 169 -114 -2 q 109 507 24 339 m 309 694 q 298 659 307 680 q 275 620 288 638 q 246 588 262 601 q 215 575 230 575 q 196 579 205 575 q 180 588 187 583 q 170 601 174 594 q 165 615 165 608 q 175 648 165 627 q 200 692 185 670 q 232 730 214 713 q 264 746 249 746 q 298 736 286 746 q 310 707 310 726 q 309 701 310 703 q 309 694 309 698 z "},"k":{"ha":492,"x_min":-93,"x_max":504,"o":"m 501 225 q 449 123 477 170 q 389 42 420 77 q 326 -12 358 7 q 261 -32 293 -32 q 215 -20 237 -32 q 174 10 193 -9 q 139 53 155 28 q 110 102 123 77 q 87 151 97 127 q 72 195 78 176 q 64 184 68 189 q 57 175 60 179 q 7 100 24 134 q -20 40 -9 65 q -40 0 -31 14 q -65 -16 -49 -15 q -83 -11 -74 -16 q -93 9 -93 -6 q -78 77 -93 31 q -35 186 -63 122 q -2 262 -20 218 q 38 357 16 305 q 86 465 60 408 q 142 581 113 522 q 202 698 170 640 q 263 805 234 755 q 317 893 293 854 q 355 951 342 931 q 377 982 368 970 q 397 993 387 993 q 410 983 404 993 q 420 960 416 973 q 428 931 425 946 q 431 905 431 916 q 430 891 431 902 q 424 864 429 880 q 408 825 418 847 q 380 778 398 803 q 345 725 366 756 q 301 657 324 694 q 254 580 278 621 q 208 500 230 540 q 174 437 192 471 q 136 368 155 403 q 99 297 117 332 q 64 232 80 262 q 123 304 95 273 q 172 357 151 335 q 218 401 197 382 q 332 496 290 465 q 396 528 374 528 q 416 521 406 528 q 433 504 426 515 q 445 479 440 493 q 449 450 449 465 q 436 392 449 421 q 402 335 423 362 q 353 282 380 307 q 296 238 326 258 q 237 207 267 219 q 183 191 208 194 q 213 109 196 139 q 247 62 230 78 q 280 41 264 45 q 306 36 296 36 q 352 52 329 36 q 397 95 375 68 q 440 158 420 121 q 481 235 461 194 q 493 245 486 245 q 500 243 497 245 q 504 235 504 240 q 501 225 504 231 m 332 428 q 289 399 315 420 q 231 350 262 378 q 167 292 199 323 q 107 232 134 260 q 156 242 130 234 q 208 264 182 250 q 255 297 233 277 q 293 340 277 316 q 308 368 300 353 q 321 396 314 380 q 332 428 328 412 z "},"l":{"ha":281,"x_min":-21,"x_max":453,"o":"m 453 940 q 440 865 453 909 q 402 767 427 821 q 345 651 378 713 q 270 522 311 589 q 181 386 229 455 q 82 250 134 317 q 80 212 80 231 q 79 176 79 193 q 81 130 79 151 q 89 94 83 109 q 105 71 95 79 q 131 62 115 62 q 158 72 144 62 q 185 96 172 81 q 211 130 199 111 q 235 168 224 149 q 254 204 245 186 q 268 235 263 222 q 276 244 271 242 q 282 245 280 245 q 289 242 286 245 q 292 233 292 239 q 289 225 292 231 q 239 123 266 170 q 185 43 213 77 q 130 -10 157 9 q 78 -29 102 -29 q 41 -21 59 -29 q 10 6 24 -13 q -13 57 -4 25 q -21 135 -21 88 q -8 268 -21 199 q 27 405 5 337 q 76 538 49 473 q 132 661 104 604 q 188 766 161 719 q 236 847 215 814 q 282 916 260 885 q 326 969 305 947 q 366 1003 347 991 q 401 1015 385 1015 q 440 995 427 1015 q 453 940 453 974 m 114 416 q 99 358 106 386 q 89 304 93 330 q 202 485 153 399 q 283 641 251 571 q 332 762 316 711 q 349 836 349 812 q 345 855 349 850 q 334 860 342 860 q 307 839 323 860 q 269 782 290 817 q 227 701 249 747 q 183 606 204 655 q 144 507 162 556 q 114 416 125 458 z "},"m":{"ha":635,"x_min":-89,"x_max":646,"o":"m 326 77 q 337 145 326 108 q 368 221 349 182 q 411 300 387 260 q 461 379 435 340 q 459 377 460 378 q 457 374 458 376 q 456 372 456 373 q 429 342 445 360 q 393 301 412 323 q 353 252 374 278 q 310 200 332 227 q 269 149 289 174 q 233 102 250 123 q 191 44 207 66 q 165 11 175 22 q 151 -4 156 -1 q 142 -8 146 -8 q 127 -5 136 -8 q 111 3 119 -3 q 96 17 102 9 q 90 36 90 25 q 94 52 90 43 q 146 168 119 110 q 170 220 157 193 q 197 275 183 248 q 225 329 211 302 q 254 379 240 355 q 208 331 233 357 q 160 276 184 304 q 114 222 136 249 q 77 175 92 196 q 17 86 40 125 q -21 20 -5 48 q -38 -6 -31 3 q -61 -16 -46 -16 q -79 -11 -69 -16 q -89 8 -89 -5 q -81 40 -89 16 q -62 98 -74 64 q -35 172 -50 132 q -3 253 -20 212 q 28 332 13 294 q 57 402 44 371 q 77 452 69 433 q 86 475 85 472 q 95 479 87 477 q 111 479 102 480 q 131 476 121 479 q 149 468 141 473 q 175 441 169 453 q 179 432 179 435 q 166 408 179 429 q 132 353 153 387 q 87 277 112 319 q 41 189 63 234 q 117 294 86 252 q 168 360 149 335 q 205 406 191 389 q 290 501 258 473 q 332 529 321 529 q 350 524 340 529 q 366 509 359 518 q 378 488 374 500 q 383 463 383 476 q 382 447 383 455 q 376 432 380 439 q 347 378 364 410 q 310 311 329 347 q 270 239 290 276 q 232 170 250 202 q 299 261 269 221 q 353 329 330 301 q 401 385 380 361 q 454 441 433 418 q 490 479 475 465 q 512 499 504 493 q 526 505 521 505 q 544 499 534 505 q 561 483 553 492 q 574 461 569 473 q 579 439 579 450 q 568 402 579 425 q 540 352 557 380 q 504 290 523 323 q 467 221 484 257 q 439 145 450 184 q 428 68 428 106 q 434 34 428 48 q 454 20 441 20 q 490 39 469 20 q 534 90 511 59 q 581 160 557 121 q 623 235 604 198 q 628 242 625 239 q 635 245 631 245 q 642 243 639 245 q 646 235 646 241 q 643 225 646 231 q 591 124 619 172 q 532 42 563 77 q 470 -13 502 7 q 407 -33 438 -33 q 370 -24 385 -33 q 345 -1 355 -16 q 331 34 336 14 q 326 77 326 54 z "},"n":{"ha":490,"x_min":-93,"x_max":503,"o":"m 500 225 q 448 124 476 172 q 389 42 420 77 q 327 -13 359 7 q 264 -33 295 -33 q 226 -24 242 -33 q 200 0 210 -16 q 184 37 189 16 q 179 85 179 59 q 193 162 179 120 q 228 249 207 205 q 276 336 250 293 q 326 415 302 378 q 287 386 309 404 q 241 347 265 368 q 192 303 217 326 q 144 257 167 279 q 103 213 122 234 q 72 175 84 192 q 11 83 35 124 q -26 17 -13 43 q -45 -9 -36 -2 q -65 -16 -55 -16 q -83 -11 -74 -16 q -93 8 -93 -5 q -85 41 -93 16 q -65 101 -78 66 q -37 178 -53 136 q -4 263 -21 220 q 31 348 14 307 q 62 421 47 389 q 86 475 76 454 q 100 500 96 496 q 129 503 109 509 q 168 486 149 498 q 183 474 178 480 q 191 463 188 468 q 191 456 192 459 q 189 452 191 454 q 174 428 187 450 q 140 371 160 406 q 97 294 121 337 q 52 208 73 252 q 115 288 84 253 q 169 349 145 323 q 221 401 196 378 q 334 496 294 465 q 396 528 374 528 q 415 522 405 528 q 433 507 425 516 q 446 485 441 497 q 452 460 452 473 q 439 425 452 447 q 409 373 427 403 q 369 308 391 344 q 329 233 347 273 q 298 152 311 194 q 286 68 286 110 q 292 34 286 48 q 311 20 298 20 q 347 39 326 20 q 392 90 368 59 q 438 160 415 121 q 479 235 462 198 q 492 245 485 245 q 499 243 495 245 q 503 235 503 241 q 500 225 503 231 z "},"o":{"ha":421,"x_min":-54,"x_max":439,"o":"m 436 237 q 414 193 428 217 q 381 148 400 168 q 337 113 361 127 q 282 98 313 98 q 266 100 273 98 q 250 104 258 101 q 210 51 231 76 q 164 7 189 26 q 113 -22 140 -12 q 57 -33 86 -33 q 9 -24 30 -33 q -26 3 -12 -14 q -47 43 -40 20 q -54 94 -54 66 q -47 157 -54 121 q -23 235 -40 194 q 19 317 -7 275 q 83 397 45 359 q 172 465 121 435 q 288 513 222 495 l 293 513 q 309 509 302 513 q 322 500 317 506 q 331 489 328 495 q 334 478 334 483 q 328 463 334 467 q 310 456 321 458 q 289 452 304 454 q 253 440 275 450 q 205 412 232 431 q 150 358 179 393 q 112 303 130 335 q 81 236 94 271 q 59 167 67 201 q 50 106 50 133 q 67 50 50 70 q 107 29 84 29 q 161 56 132 29 q 218 127 190 83 q 196 170 205 144 q 187 229 187 195 q 197 305 187 267 q 223 374 207 343 q 260 424 239 404 q 302 443 281 443 q 334 424 323 443 q 345 375 345 406 q 339 327 345 355 q 323 266 334 298 q 299 199 313 233 q 265 131 284 164 q 288 126 275 126 q 330 137 311 126 q 363 165 349 148 q 391 203 378 182 q 414 244 403 224 q 428 258 420 258 q 435 256 432 258 q 439 249 439 253 q 436 237 439 243 m 227 211 q 229 181 227 195 q 236 158 231 168 q 261 207 250 182 q 283 258 273 231 q 298 300 293 283 q 302 326 302 317 q 288 349 302 349 q 267 338 277 349 q 247 308 256 327 q 232 264 238 289 q 227 211 227 239 z "},"p":{"ha":492,"x_min":-240,"x_max":504,"o":"m 501 225 q 424 96 469 145 q 331 19 380 46 q 232 -18 282 -9 q 139 -28 182 -28 q 78 -20 104 -28 q 33 -2 52 -13 q 5 20 15 8 q -4 40 -4 31 q 0 62 -4 52 q 11 80 4 73 q 25 93 17 88 q 40 97 33 97 q 54 90 49 97 q 64 73 59 83 q 77 51 70 63 q 98 28 85 39 q 132 58 112 35 q 176 115 153 81 q 222 190 199 149 q 265 273 245 231 q 303 371 291 330 q 317 432 315 412 q 315 445 317 440 q 309 450 313 450 q 282 436 302 450 q 236 396 262 421 q 177 338 209 372 q 112 267 144 304 q 49 189 79 229 q -5 111 18 149 q -27 48 -14 88 q -56 -38 -40 9 q -88 -134 -72 -85 q -119 -226 -104 -184 q -144 -299 -133 -269 q -158 -339 -155 -330 q -182 -381 -170 -366 q -207 -396 -195 -396 q -219 -388 -213 -396 q -229 -365 -224 -379 q -237 -334 -234 -351 q -240 -298 -240 -316 q -234 -260 -240 -286 q -217 -201 -229 -235 q -189 -127 -205 -167 q -151 -47 -173 -88 q -80 95 -115 24 q -14 237 -45 165 q 45 381 18 309 q 93 528 72 454 l 122 631 q 127 644 123 637 q 137 658 132 652 q 149 669 143 665 q 161 673 155 673 q 178 663 168 673 q 198 639 189 653 q 214 612 208 625 q 221 591 221 598 q 209 535 221 573 q 172 449 196 498 q 145 396 161 428 q 109 330 128 365 q 140 366 126 351 q 164 393 155 382 q 184 415 176 405 q 238 468 213 448 q 284 500 263 489 q 322 515 304 511 q 353 519 339 519 q 371 515 361 519 q 389 499 380 511 q 402 468 397 488 q 407 418 407 448 q 398 347 407 386 q 373 268 389 309 q 334 186 357 227 q 284 111 311 146 q 224 47 256 75 q 158 4 193 20 l 170 4 q 257 15 214 4 q 338 52 299 26 q 414 123 378 79 q 481 235 450 168 q 486 243 483 240 q 493 245 490 245 q 500 243 497 245 q 504 235 504 240 q 501 225 504 231 z "},"q":{"ha":503,"x_min":-57,"x_max":515,"o":"m 513 225 q 470 139 492 180 q 421 65 448 98 q 362 7 395 31 q 289 -26 330 -16 q 301 -121 301 -73 q 294 -205 301 -163 q 273 -283 286 -246 q 240 -352 259 -321 q 198 -407 221 -384 q 150 -443 176 -430 q 96 -456 123 -456 q 40 -434 59 -456 q 21 -376 21 -412 q 42 -268 21 -329 q 99 -130 64 -206 q 181 38 135 -54 q 278 239 228 130 q 242 188 261 215 q 203 133 224 160 q 161 79 183 105 q 114 34 138 54 q 64 2 90 14 q 11 -9 38 -9 q -38 10 -20 -9 q -57 72 -57 29 q -51 131 -57 98 q -30 198 -44 163 q 8 272 -16 234 q 65 346 31 309 q 134 410 98 382 q 207 458 170 437 q 281 494 244 479 q 355 521 319 509 q 365 523 361 522 q 372 524 369 524 q 385 514 385 524 q 375 490 385 503 q 349 469 366 477 q 297 447 327 460 q 239 412 267 433 q 180 355 210 391 q 128 277 151 319 q 90 195 104 236 q 75 125 75 155 q 81 101 75 109 q 96 93 86 93 q 136 118 110 93 q 196 185 163 142 q 266 287 229 229 q 340 411 304 345 q 349 421 345 417 q 358 425 353 425 q 371 421 363 425 q 384 411 378 418 q 394 396 390 405 q 399 376 399 387 q 396 353 399 366 q 388 320 394 339 q 373 276 382 302 q 349 216 363 251 q 333 178 342 200 q 313 132 323 157 q 292 81 303 108 q 269 28 281 55 q 273 20 271 24 q 277 11 275 16 q 346 35 315 16 q 402 84 376 54 q 449 153 427 115 q 492 235 470 191 q 504 245 497 245 q 512 243 509 245 q 515 235 515 240 q 513 225 515 231 m 261 -97 q 259 -60 261 -76 q 253 -33 256 -45 l 244 -33 q 213 -109 228 -74 q 187 -170 198 -144 q 168 -216 179 -189 q 146 -273 156 -244 q 129 -328 136 -302 q 122 -371 121 -355 q 132 -389 122 -389 q 159 -375 144 -389 q 188 -340 174 -362 q 215 -288 202 -317 q 239 -227 229 -259 q 255 -161 249 -194 q 261 -97 261 -127 z "},"r":{"ha":364,"x_min":-31,"x_max":378,"o":"m 375 225 q 351 183 366 207 q 317 133 336 159 q 276 83 298 108 q 230 38 254 58 q 183 7 207 19 q 136 -5 159 -5 q 108 -1 122 -5 q 83 11 94 3 q 65 33 72 20 q 58 64 58 45 q 68 117 58 89 q 93 174 78 145 q 126 231 109 203 q 158 284 143 258 q 183 330 174 309 q 193 367 193 351 q 186 377 193 373 q 167 380 179 380 q 151 378 161 380 q 129 374 141 376 q 103 368 117 371 q 75 363 89 365 q 33 268 54 312 q -3 199 12 224 q -12 185 -8 189 q -21 182 -16 182 q -31 191 -31 182 q -30 198 -31 194 q -26 207 -28 203 q 11 282 -7 243 q 46 359 29 320 q 24 366 31 359 q 17 386 17 372 q 24 421 17 400 q 42 466 31 443 q 66 513 53 490 q 94 555 80 536 q 118 586 107 574 q 136 597 130 597 q 147 593 142 597 q 153 582 153 589 q 146 550 153 572 q 131 500 140 528 q 181 506 159 504 q 214 509 202 509 q 260 498 241 509 q 278 471 278 488 q 271 440 278 460 q 252 392 263 419 q 229 333 241 365 q 205 270 216 302 q 186 207 194 237 q 179 151 179 176 q 187 118 179 132 q 211 104 195 104 q 238 110 223 104 q 272 131 254 116 q 311 171 290 145 q 354 235 332 196 q 367 245 359 245 q 374 243 371 245 q 378 235 378 240 q 375 225 378 231 z "},"s":{"ha":390,"x_min":-41,"x_max":401,"o":"m 399 225 q 362 149 385 191 q 307 69 340 106 q 232 6 275 31 q 135 -20 189 -20 q 83 -11 106 -20 q 39 19 59 -1 q 1 72 19 39 q -35 151 -17 104 q -39 167 -37 158 q -41 186 -41 176 q -38 217 -41 201 q -24 248 -34 234 q -14 259 -20 252 q -3 272 -9 265 q 9 283 3 278 q 20 290 15 288 q 43 328 31 307 q 66 372 55 349 q 88 418 78 395 q 104 465 98 442 q 108 484 106 475 q 111 498 109 492 q 119 515 113 504 q 135 538 126 526 q 154 565 144 551 q 172 589 164 578 q 192 611 184 604 q 208 618 200 618 q 223 612 218 618 q 229 600 229 606 q 227 589 229 595 q 225 570 225 584 q 227 540 225 557 q 235 504 229 523 q 245 458 238 490 q 260 387 253 427 q 274 302 268 347 q 279 220 279 258 q 274 175 279 199 q 257 127 268 151 q 232 81 247 103 q 199 43 217 59 q 254 60 229 45 q 299 100 278 75 q 340 159 321 125 q 378 235 359 193 q 390 245 383 245 q 398 243 395 245 q 401 235 401 240 q 399 225 401 231 m 143 439 q 120 399 133 421 q 94 354 108 378 q 67 307 81 331 q 41 262 54 283 q 52 229 47 248 q 64 192 58 210 q 77 153 70 174 q 93 114 84 133 q 115 78 102 94 q 144 53 127 62 q 170 106 161 76 q 178 164 178 136 q 176 234 178 201 q 171 298 175 266 q 161 363 168 330 q 143 439 154 397 z "},"t":{"ha":272,"x_min":-43,"x_max":368,"o":"m 361 798 q 345 767 356 789 q 318 715 334 746 q 283 647 302 685 q 244 568 264 610 q 299 573 275 570 q 335 575 324 575 q 340 573 338 575 q 342 567 342 570 q 339 555 342 562 q 334 546 336 549 q 316 520 326 534 q 297 496 307 507 q 276 476 287 484 q 253 467 265 468 q 195 467 231 463 q 162 398 178 432 q 132 332 146 363 q 107 274 118 301 q 87 225 96 246 q 55 135 68 172 q 41 71 41 98 q 51 42 41 53 q 85 31 61 31 q 123 48 100 31 q 170 96 146 66 q 218 161 195 125 q 260 235 242 198 q 272 245 265 245 q 280 243 277 245 q 283 235 283 240 q 281 225 283 231 q 227 124 256 172 q 167 42 198 77 q 103 -13 136 7 q 40 -33 71 -33 q -23 -9 -4 -33 q -43 62 -43 16 q -36 136 -43 96 q -13 224 -28 175 q 28 336 3 274 q 92 479 54 399 q 62 486 76 483 q 36 492 47 488 q 23 494 28 494 q 18 498 18 495 q 23 512 18 506 q 35 526 27 518 q 43 539 38 532 q 56 549 48 547 q 81 553 61 550 q 131 559 101 555 q 193 685 159 618 q 267 831 226 752 q 282 858 274 845 q 298 882 290 871 q 314 898 307 892 q 329 904 322 904 q 345 896 337 904 q 357 877 352 888 q 365 853 362 865 q 368 831 368 840 q 366 811 368 818 q 361 798 364 804 z "},"u":{"ha":478,"x_min":-47,"x_max":490,"o":"m 488 225 q 447 143 470 184 q 395 70 423 102 q 333 17 366 37 q 262 -4 300 -4 q 218 5 235 -4 q 193 28 201 14 q 181 58 184 41 q 178 89 178 75 q 182 125 178 104 q 197 171 186 146 q 149 116 174 142 q 101 70 125 90 q 56 37 78 50 q 17 25 35 25 q -5 31 6 25 q -26 49 -17 37 q -41 80 -35 61 q -47 125 -47 99 q -35 201 -47 159 q -2 286 -22 243 q 42 370 18 329 q 89 444 66 411 q 129 497 111 476 q 153 521 146 518 q 159 522 154 522 q 173 523 165 523 q 191 519 181 522 q 211 510 201 517 q 223 500 220 503 q 228 493 227 496 q 230 483 231 487 q 228 476 229 479 q 213 454 226 472 q 183 410 201 437 q 145 351 165 384 q 107 284 125 318 q 79 217 90 250 q 68 158 68 184 q 73 139 68 144 q 85 134 77 134 q 124 149 102 134 q 170 190 146 164 q 217 248 193 215 q 262 317 241 281 q 357 471 325 423 q 397 519 390 519 q 408 515 400 519 q 425 505 416 511 q 440 494 433 499 q 447 488 447 489 q 438 465 447 479 q 414 423 430 450 q 374 352 397 395 q 321 244 351 309 q 303 204 312 224 q 288 164 294 184 q 276 127 281 145 q 272 96 272 110 q 282 62 272 72 q 304 52 293 52 q 352 68 330 52 q 394 111 374 85 q 432 170 414 137 q 467 235 450 202 q 479 245 472 245 q 487 243 484 245 q 490 235 490 240 q 490 231 490 233 q 488 225 489 229 z "},"v":{"ha":410,"x_min":-14,"x_max":354,"o":"m 354 431 q 351 398 354 422 q 341 339 348 373 q 321 267 334 306 q 289 189 308 227 q 230 90 259 130 q 174 24 201 50 q 125 -12 148 -1 q 85 -22 102 -22 q 41 -10 60 -22 q 11 26 23 3 q -7 83 -1 50 q -14 157 -14 116 q -9 232 -14 193 q 5 314 -4 271 q 30 391 15 354 q 59 457 44 428 q 85 507 73 487 q 102 533 98 527 q 113 550 108 543 q 126 557 119 557 q 143 544 132 557 q 164 514 153 530 q 183 481 175 497 q 191 458 191 465 q 179 423 191 447 q 154 368 167 399 q 128 301 142 338 q 103 228 115 264 q 83 158 91 191 q 75 102 75 125 q 84 60 75 74 q 107 46 94 46 q 132 59 117 46 q 163 95 147 71 q 196 153 180 119 q 225 232 212 188 q 244 310 238 277 q 254 365 251 342 q 259 401 257 387 q 266 423 261 414 q 279 436 270 431 q 306 446 288 441 q 332 450 319 450 q 354 431 354 450 z "},"w":{"ha":576,"x_min":-21,"x_max":595,"o":"m 591 237 q 557 174 575 199 q 522 135 540 149 q 489 115 505 121 q 461 110 473 110 q 445 111 453 110 q 428 117 436 113 q 398 60 414 86 q 364 14 382 33 q 326 -16 346 -5 q 285 -26 306 -26 q 248 -11 261 -26 q 227 26 234 4 q 217 71 219 47 q 215 110 215 94 q 215 132 215 120 q 216 158 215 144 q 181 88 200 121 q 142 30 162 55 q 100 -9 121 5 q 58 -24 79 -24 q 21 -9 36 -24 q -4 28 5 5 q -17 82 -13 52 q -21 144 -21 113 q -7 284 -21 219 q 27 404 7 350 q 70 497 47 457 q 111 559 93 536 q 118 566 115 564 q 123 567 121 567 q 139 555 133 567 q 159 515 149 538 q 170 469 170 492 q 165 450 170 460 q 155 426 161 439 q 139 393 148 412 q 122 347 131 374 q 106 295 115 327 q 89 228 97 263 q 75 158 81 193 q 69 98 69 123 q 74 69 69 81 q 86 57 78 57 q 108 75 95 57 q 136 121 121 93 q 167 184 151 149 q 196 252 182 218 q 220 314 210 285 q 236 358 231 342 q 252 409 244 384 q 268 455 260 435 q 281 487 275 475 q 293 500 288 500 q 304 497 297 500 q 317 492 311 495 q 327 484 323 488 q 332 475 332 479 q 325 427 332 458 q 309 354 317 395 q 293 264 300 313 q 286 160 286 214 q 295 73 286 98 q 321 47 303 47 q 340 55 330 47 q 360 74 350 62 q 380 103 370 87 q 400 139 391 120 q 373 195 383 159 q 363 289 363 231 q 371 361 363 328 q 392 416 380 393 q 419 451 405 439 q 444 464 433 464 q 455 462 448 464 q 469 452 463 460 q 480 426 475 444 q 485 375 485 408 q 473 262 485 322 q 440 147 461 203 q 468 138 452 138 q 520 165 493 138 q 571 248 547 193 q 576 256 573 254 q 583 258 580 258 q 591 256 587 258 q 595 249 595 253 q 594 244 595 248 q 591 237 593 241 m 408 257 q 410 215 408 234 q 418 180 412 195 q 433 227 427 203 q 444 274 439 251 q 450 318 448 297 q 452 354 452 338 q 452 363 452 357 q 451 376 452 370 q 449 388 450 383 q 444 393 447 393 q 431 379 437 393 q 419 345 425 366 q 411 300 414 324 q 408 257 408 277 z "},"x":{"ha":475,"x_min":-29,"x_max":489,"o":"m 107 428 q 79 362 94 396 q 49 297 64 328 q 21 241 35 267 q -1 199 8 215 q -11 185 -7 189 q -20 182 -14 182 q -29 191 -29 182 q -28 198 -29 194 q -25 207 -27 203 q 41 350 12 275 q 100 496 70 424 q 114 518 105 508 q 132 534 122 528 q 152 544 142 541 q 171 547 162 547 q 194 536 183 547 q 204 509 204 525 q 203 500 204 505 q 202 489 203 496 q 201 471 201 481 q 200 443 200 460 q 201 430 200 440 q 203 404 201 420 q 208 366 205 387 q 214 322 210 345 q 273 393 245 360 q 325 450 302 426 q 362 489 347 475 q 382 503 377 503 q 388 495 387 503 q 389 479 389 488 q 387 432 389 458 q 376 382 385 406 q 370 365 374 374 q 361 350 366 357 q 353 339 357 343 q 346 335 349 335 q 339 338 342 335 q 330 340 335 340 q 313 334 324 340 q 288 317 302 328 q 258 291 274 306 q 225 258 241 275 q 241 186 232 222 q 260 121 250 150 q 282 76 270 93 q 309 58 294 58 q 346 74 325 58 q 390 115 368 90 q 432 171 412 140 q 465 235 452 203 q 478 245 469 245 q 486 243 482 245 q 489 235 489 240 q 488 231 489 233 q 486 225 488 229 q 437 131 465 175 q 377 53 409 86 q 313 0 346 19 q 250 -20 281 -20 q 215 -5 231 -20 q 185 34 199 9 q 159 89 171 58 q 139 155 148 121 q 110 115 125 136 q 80 75 94 94 q 55 40 66 56 q 37 18 43 25 q 21 6 30 9 q 5 3 12 3 q -3 5 0 3 q -7 11 -7 7 q -4 18 -7 13 q 23 66 10 45 q 51 109 36 87 q 83 154 65 130 q 126 211 101 178 q 111 310 116 264 q 106 378 106 355 q 106 402 106 389 q 107 428 106 415 z "},"y":{"ha":464,"x_min":-89,"x_max":436,"o":"m 436 485 q 428 447 436 475 q 406 382 419 418 q 377 305 393 345 q 347 231 361 264 q 296 113 323 172 q 242 -3 269 54 q 186 -112 214 -60 q 133 -210 159 -165 q 83 -289 107 -254 q 40 -346 60 -324 q 15 -363 30 -357 q -14 -368 1 -368 q -43 -363 -29 -368 q -66 -345 -56 -357 q -83 -312 -77 -332 q -89 -264 -89 -292 q -78 -199 -89 -235 q -39 -121 -67 -163 q -47 -201 -47 -171 q -40 -244 -47 -233 q -24 -256 -33 -256 q -9 -250 -18 -256 q 13 -227 0 -243 q 42 -181 25 -210 q 81 -106 58 -152 q 120 -28 98 -73 q 229 203 159 50 q 179 138 207 172 q 122 77 151 104 q 63 32 92 50 q 8 14 33 14 q -14 20 -5 14 q -30 37 -24 26 q -40 61 -37 47 q -43 92 -43 75 q -35 153 -43 115 q -10 239 -27 191 q 34 345 7 287 q 100 469 61 404 q 126 505 113 490 q 164 525 139 519 q 207 537 188 530 q 237 545 226 545 q 249 534 249 545 q 238 509 249 526 q 210 463 228 492 q 169 393 193 434 q 119 294 146 351 q 101 250 109 273 q 88 207 94 228 q 80 169 83 186 q 77 139 77 151 q 86 117 77 117 q 115 133 94 117 q 163 177 136 149 q 220 245 190 205 q 277 330 250 284 q 321 412 304 379 q 348 465 338 444 q 362 498 357 486 q 371 515 367 509 q 378 526 374 521 q 389 530 382 530 q 400 529 392 530 q 416 522 408 527 q 430 508 424 517 q 436 485 436 499 z "},"z":{"ha":415,"x_min":-33,"x_max":428,"o":"m 425 225 q 343 76 393 147 q 229 -65 294 4 q 199 -143 217 -104 q 160 -218 180 -182 q 120 -286 140 -254 q 86 -340 100 -317 q 48 -387 66 -372 q 16 -401 29 -401 q -4 -393 5 -401 q -19 -372 -13 -385 q -30 -345 -26 -359 q -33 -315 -33 -330 q -21 -266 -33 -292 q 9 -215 -9 -241 q 52 -165 28 -190 q 97 -120 75 -141 q 140 -80 120 -98 q 171 -50 159 -62 q 181 -19 179 -31 q 183 -1 183 -7 q 169 47 183 27 q 137 83 155 68 q 106 109 120 98 q 92 129 92 120 q 99 150 92 138 q 121 175 107 161 q 157 211 136 190 q 200 257 178 233 q 244 309 222 282 q 283 361 266 336 q 312 411 301 387 q 322 454 322 435 l 322 457 q 274 429 304 446 q 209 397 244 412 q 137 370 173 381 q 71 358 100 358 q 35 275 53 313 q 4 212 18 236 q -5 199 -1 203 q -14 196 -8 196 q -21 198 -18 196 q -24 204 -24 201 q -22 212 -24 208 q -18 221 -20 216 q 17 292 1 258 q 47 363 33 327 q 33 389 33 370 q 38 413 33 397 q 50 449 42 429 q 66 488 57 468 q 86 525 76 509 q 105 553 96 542 q 123 564 115 564 q 133 559 129 564 q 138 547 138 555 q 134 529 138 539 q 127 509 131 518 q 122 492 124 500 q 117 476 120 485 q 190 493 156 480 q 251 519 224 506 q 297 544 278 533 q 328 554 317 554 q 335 552 332 554 q 343 543 339 549 q 351 526 347 537 q 361 498 355 515 q 366 473 366 487 q 358 431 366 454 q 337 383 350 408 q 307 331 323 357 q 272 280 290 305 q 235 232 254 255 q 201 191 217 209 q 228 151 218 172 q 241 108 237 130 q 245 66 245 87 q 245 28 245 45 q 241 -17 245 6 q 330 100 291 39 q 404 235 370 161 q 410 243 406 240 q 416 245 413 245 q 425 242 421 245 q 428 233 428 239 q 425 225 428 231 z "},"":{"ha":572,"x_min":-149,"x_max":667,"o":"m 579 225 q 527 127 555 172 q 469 51 499 83 q 408 2 439 20 q 346 -16 376 -16 q 307 -6 323 -16 q 280 21 290 4 q 264 61 269 38 q 260 110 260 83 q 260 131 260 120 q 262 151 260 141 q 216 113 243 128 q 154 98 189 98 l 140 98 q 123 -30 137 31 q 89 -143 109 -91 q 43 -236 68 -195 q -7 -307 18 -278 q -56 -352 -33 -336 q -96 -368 -79 -368 q -120 -361 -110 -368 q -136 -340 -130 -353 q -145 -309 -142 -327 q -149 -271 -149 -292 q -133 -135 -149 -210 q -92 23 -118 -60 q -30 195 -65 106 q 44 372 5 283 q 124 545 83 460 q 204 705 165 629 q 276 845 242 781 q 334 954 309 908 q 355 986 342 973 q 378 999 368 1000 q 387 993 382 999 q 397 977 393 987 q 405 954 401 967 q 408 925 408 940 q 401 865 408 895 q 382 806 393 835 q 358 751 371 778 q 334 699 345 724 q 308 649 324 679 q 272 584 292 619 q 230 511 252 549 q 186 435 208 472 q 146 363 165 397 q 114 301 127 328 q 126 270 121 289 q 135 230 131 252 q 140 184 138 208 q 142 135 142 159 l 142 126 q 150 125 146 125 q 160 125 155 125 q 197 132 180 125 q 229 152 214 140 q 255 180 243 164 q 277 215 267 197 q 307 292 289 254 q 345 368 324 331 q 387 439 365 405 q 429 505 409 474 q 444 524 435 516 q 461 532 453 532 q 481 523 473 532 q 496 501 490 513 q 506 476 503 489 q 509 456 509 463 q 507 439 509 447 q 501 425 505 431 q 481 390 494 412 q 453 339 468 368 q 422 278 438 311 q 394 213 407 246 q 374 146 382 179 q 366 85 366 113 q 371 51 366 65 q 390 36 376 36 q 426 53 404 36 q 471 98 447 70 q 517 162 494 126 q 558 235 541 197 q 571 245 564 245 q 578 243 575 245 q 582 235 582 240 q 579 225 582 231 m -35 -268 q -17 -256 -29 -268 q 9 -221 -5 -243 q 39 -165 24 -198 q 68 -91 55 -132 q 92 1 82 -49 q 103 109 101 52 q 57 146 73 121 q 32 65 45 107 q 8 -15 19 24 q -13 -87 -3 -54 q -29 -142 -23 -121 q -47 -239 -47 -208 q -44 -260 -47 -252 q -35 -268 -41 -268 m 667 694 q 658 659 667 680 q 635 620 649 638 q 605 588 621 601 q 572 575 588 575 q 537 588 551 575 q 522 615 522 601 q 528 640 522 625 q 544 671 534 654 q 566 703 553 687 q 591 733 578 720 q 606 743 598 741 q 621 746 614 746 q 657 733 648 746 q 667 694 667 720 m 81 196 q 103 142 81 161 q 101 175 102 159 q 98 202 100 191 q 94 221 96 214 q 90 228 92 228 q 84 219 88 228 q 81 196 81 210 z "},"":{"ha":578,"x_min":-149,"x_max":750,"o":"m 160 125 q 219 136 189 125 q 277 168 248 147 q 295 297 280 231 q 332 428 310 363 q 380 554 353 492 q 434 671 407 616 q 487 770 461 725 q 533 847 513 815 q 580 916 557 885 q 623 969 602 947 q 663 1003 644 991 q 699 1015 682 1015 q 737 995 724 1015 q 750 940 750 974 q 736 854 750 906 q 696 739 722 802 q 636 607 671 676 q 560 469 602 537 q 472 337 519 400 q 378 224 426 274 q 376 199 376 211 q 376 176 376 188 q 378 130 376 151 q 386 94 380 109 q 402 71 392 79 q 428 62 412 62 q 455 72 441 62 q 482 96 469 81 q 509 130 496 111 q 532 168 522 149 q 552 204 543 186 q 566 235 560 222 q 573 244 569 242 q 579 245 577 245 q 586 242 583 245 q 589 233 589 239 q 586 225 589 231 q 536 123 563 170 q 482 43 510 77 q 427 -10 454 9 q 375 -29 399 -29 q 338 -21 356 -29 q 307 6 321 -13 q 285 57 293 25 q 277 135 277 88 l 277 139 q 160 98 214 98 q 150 98 155 98 q 140 100 146 98 q 123 -29 137 32 q 89 -142 109 -90 q 43 -236 68 -195 q -7 -307 18 -278 q -56 -352 -33 -336 q -96 -368 -79 -368 q -120 -361 -110 -368 q -136 -340 -130 -353 q -145 -309 -142 -327 q -149 -271 -149 -292 q -133 -135 -149 -210 q -92 23 -118 -60 q -30 195 -65 106 q 44 372 5 283 q 124 545 83 460 q 204 705 165 629 q 276 845 242 781 q 334 954 309 908 q 355 986 342 973 q 378 999 368 1000 q 387 993 382 999 q 397 977 393 987 q 405 954 401 967 q 408 925 408 940 q 401 865 408 895 q 382 806 393 835 q 358 751 371 778 q 334 699 345 724 q 308 649 324 679 q 272 584 292 619 q 230 511 252 549 q 186 435 208 472 q 146 363 165 397 q 114 301 127 328 q 126 270 121 289 q 135 230 131 252 q 140 184 138 208 q 142 135 142 159 l 142 126 q 150 125 146 125 q 160 125 155 125 m 646 836 q 642 855 646 850 q 631 860 639 860 q 604 839 621 860 q 566 782 587 817 q 524 701 546 747 q 480 606 501 655 q 441 507 459 556 q 411 416 422 458 q 392 339 399 376 q 382 269 385 303 q 453 370 419 315 q 516 480 487 424 q 569 591 545 536 q 610 694 593 646 q 636 779 627 742 q 646 836 646 816 m -35 -268 q -17 -256 -29 -268 q 9 -221 -5 -243 q 39 -165 24 -198 q 68 -91 55 -132 q 92 1 82 -49 q 103 109 101 52 q 56 146 72 121 q 31 65 43 106 q 8 -16 19 23 q -13 -87 -3 -54 q -29 -142 -23 -121 q -47 -239 -47 -208 q -44 -260 -47 -252 q -35 -268 -41 -268 m 81 196 q 103 142 81 161 q 101 175 102 159 q 98 202 100 191 q 94 221 96 214 q 90 228 92 228 q 84 219 88 228 q 81 196 81 210 z "},"":{"ha":549,"x_min":-103,"x_max":559,"o":"m 557 225 q 520 149 543 191 q 465 69 498 106 q 389 6 432 31 q 292 -20 346 -20 q 237 -17 263 -20 q 189 -4 212 -14 q 147 24 166 5 q 113 72 128 42 q 106 93 109 79 q 103 117 103 106 q 107 148 103 132 q 121 178 111 164 q 131 191 125 184 q 144 206 138 199 q 158 218 151 213 q 170 222 165 222 q 179 211 174 222 q 190 181 184 199 q 203 141 196 163 q 220 99 210 119 q 241 64 229 79 q 268 43 252 48 q 295 61 283 47 q 314 93 307 75 q 326 130 322 111 q 330 164 330 149 q 316 299 330 245 q 286 387 302 353 q 255 438 269 420 q 241 463 241 455 q 248 479 241 471 q 265 496 254 487 q 289 518 275 506 q 318 550 303 531 q 377 642 353 594 q 414 733 400 690 q 433 809 427 776 q 439 857 439 842 q 433 876 439 871 q 418 880 427 880 q 344 830 381 880 q 267 692 307 781 q 172 475 216 577 q 97 276 129 374 q 47 82 65 179 q 29 -121 29 -16 q 32 -144 29 -136 q 39 -157 35 -152 q 46 -169 43 -163 q 49 -184 49 -174 q 37 -209 49 -195 q 9 -236 25 -223 q -25 -257 -7 -248 q -54 -265 -43 -265 q -78 -258 -68 -265 q -93 -237 -87 -250 q -101 -207 -98 -224 q -103 -168 -103 -189 q -95 -74 -103 -130 q -70 48 -86 -18 q -31 188 -54 114 q 19 338 -9 262 q 79 489 47 414 q 148 633 112 564 q 222 760 184 701 q 301 861 261 818 q 381 928 340 904 q 461 953 421 953 q 497 945 481 953 q 523 925 513 937 q 539 896 534 912 q 545 864 545 880 q 531 778 545 819 q 496 701 517 737 q 451 632 475 664 q 407 576 427 601 q 372 534 386 551 q 358 507 358 516 q 367 454 358 481 q 388 396 376 428 q 408 325 399 364 q 418 233 418 286 q 412 177 418 208 q 395 118 407 147 q 363 64 382 90 q 317 22 344 39 q 383 39 352 22 q 442 85 414 56 q 493 153 469 114 q 536 235 517 191 q 549 245 542 245 q 556 243 553 245 q 559 235 559 240 q 557 225 559 231 z "},"":{"ha":611,"x_min":-253,"x_max":646,"o":"m 26 227 l 452 1042 q 456 1048 454 1046 q 463 1053 459 1050 q 470 1053 467 1054 q 478 1051 473 1053 l 542 1035 l 393 -85 q 445 -80 422 -81 q 482 -79 469 -79 q 512 -82 503 -79 q 525 -88 522 -84 q 524 -98 527 -92 q 515 -111 521 -104 q 506 -123 509 -118 q 498 -133 503 -129 q 483 -141 492 -138 q 453 -147 473 -144 q 413 -151 439 -149 q 354 -155 387 -153 q 285 -159 321 -157 q 217 -162 249 -161 q 162 -165 186 -164 q 129 -167 138 -167 q 98 -161 100 -169 q 114 -134 96 -153 q 179 -109 128 -115 q 205 -105 186 -107 q 249 -100 223 -102 l 294 200 l 52 178 l -61 -39 q 0 -34 -19 -33 q 16 -45 19 -35 q 2 -68 11 -55 q -25 -92 -7 -82 q -47 -97 -31 -94 q -85 -102 -64 -100 q -131 -106 -107 -104 q -177 -110 -155 -108 q -214 -112 -198 -111 q -236 -114 -231 -113 q -250 -104 -253 -115 q -225 -77 -246 -93 q -217 -71 -222 -74 q -200 -63 -212 -67 q -169 -55 -189 -59 q -117 -46 -149 -51 l -1 174 l -79 167 q -86 171 -84 167 q -85 180 -89 176 l -79 191 q -37 220 -64 214 l 26 227 m 302 261 l 387 829 l 81 233 l 302 261 m 644 1135 q 646 1131 645 1133 q 646 1125 646 1128 q 641 1111 646 1118 q 629 1104 635 1104 q 624 1107 625 1104 q 570 1154 599 1131 q 512 1194 545 1173 q 445 1230 480 1215 q 427 1254 427 1239 q 433 1274 427 1263 q 449 1293 439 1284 q 470 1307 458 1301 q 492 1312 481 1312 q 509 1307 501 1312 q 555 1259 534 1285 q 594 1210 577 1234 q 624 1165 612 1185 q 644 1135 637 1145 z "},"":{"ha":453,"x_min":-47,"x_max":465,"o":"m 463 225 q 427 146 448 187 q 380 70 406 104 q 325 14 354 36 q 267 -8 296 -8 q 234 2 247 -8 q 213 26 221 12 q 202 58 205 41 q 199 89 199 75 q 204 139 199 111 q 224 204 209 168 q 175 141 201 173 q 124 83 150 109 q 72 40 98 57 q 22 24 45 24 q -1 30 12 24 q -23 46 -13 35 q -41 74 -34 58 q -47 113 -47 91 q -31 194 -47 149 q 13 283 -14 238 q 71 370 39 328 q 132 443 102 412 q 183 492 159 472 q 229 525 208 513 q 269 544 250 538 q 306 550 288 549 q 333 546 322 550 q 350 536 344 543 q 358 522 356 530 q 361 505 361 514 q 355 481 361 496 q 340 451 350 466 q 318 426 331 436 q 292 415 306 415 q 285 419 286 415 q 283 429 283 423 q 286 456 283 441 q 289 484 289 472 q 287 498 289 494 q 277 503 284 503 q 239 474 259 495 q 199 424 219 452 q 162 361 180 395 q 130 295 144 328 q 108 232 116 262 q 100 183 100 203 q 104 161 100 169 q 114 153 108 153 q 129 161 119 153 q 152 184 139 170 q 180 217 165 199 q 208 252 194 235 q 233 286 222 270 q 252 311 245 301 q 276 351 269 337 q 292 366 283 366 q 301 360 295 366 q 314 348 308 355 q 326 333 321 340 q 330 322 330 326 q 321 295 330 313 q 297 240 313 278 q 271 164 279 199 q 262 102 262 129 q 264 83 262 92 q 269 65 265 73 q 278 53 272 58 q 294 47 284 47 q 328 61 311 47 q 361 94 345 74 q 391 138 377 115 q 416 182 406 161 q 434 218 427 203 q 441 235 440 233 q 454 245 447 245 q 462 243 458 245 q 465 235 465 240 q 463 225 465 231 m 434 650 q 436 646 435 648 q 437 640 437 644 q 431 626 437 633 q 420 619 425 619 q 414 622 416 619 q 360 669 389 646 q 303 709 335 688 q 235 745 271 730 q 217 769 217 754 q 223 789 217 779 q 239 808 230 799 q 260 822 249 817 q 282 827 272 827 q 299 822 292 827 q 346 774 324 800 q 385 725 368 749 q 415 681 402 701 q 434 650 427 661 z "},"":{"ha":611,"x_min":-253,"x_max":728,"o":"m 26 227 l 452 1042 q 456 1048 454 1046 q 463 1053 459 1050 q 470 1053 467 1054 q 478 1051 473 1053 l 542 1035 l 393 -85 q 445 -80 422 -81 q 482 -79 469 -79 q 512 -82 503 -79 q 525 -88 522 -84 q 524 -98 527 -92 q 515 -111 521 -104 q 506 -123 509 -118 q 498 -133 503 -129 q 483 -141 492 -138 q 453 -147 473 -144 q 413 -151 439 -149 q 354 -155 387 -153 q 285 -159 321 -157 q 217 -162 249 -161 q 162 -165 186 -164 q 129 -167 138 -167 q 98 -161 100 -169 q 114 -134 96 -153 q 179 -109 128 -115 q 205 -105 186 -107 q 249 -100 223 -102 l 294 200 l 52 178 l -61 -39 q 0 -34 -19 -33 q 16 -45 19 -35 q 2 -68 11 -55 q -25 -92 -7 -82 q -47 -97 -31 -94 q -85 -102 -64 -100 q -131 -106 -107 -104 q -177 -110 -155 -108 q -214 -112 -198 -111 q -236 -114 -231 -113 q -250 -104 -253 -115 q -225 -77 -246 -93 q -217 -71 -222 -74 q -200 -63 -212 -67 q -169 -55 -189 -59 q -117 -46 -149 -51 l -1 174 l -79 167 q -86 171 -84 167 q -85 180 -89 176 l -79 191 q -37 220 -64 214 l 26 227 m 302 261 l 387 829 l 81 233 l 302 261 m 632 1307 q 645 1316 636 1313 q 663 1320 653 1320 q 685 1317 673 1320 q 706 1308 696 1314 q 722 1295 715 1302 q 728 1279 728 1287 q 724 1267 728 1273 q 708 1254 721 1263 q 676 1230 696 1244 q 633 1200 657 1217 q 583 1168 609 1184 q 532 1138 557 1152 q 484 1112 506 1123 q 470 1107 476 1108 q 460 1105 464 1105 q 447 1109 451 1105 q 443 1117 443 1112 q 451 1132 443 1124 q 504 1178 479 1157 q 552 1220 529 1200 q 594 1261 574 1240 q 632 1307 614 1282 z "},"":{"ha":453,"x_min":-47,"x_max":518,"o":"m 463 225 q 427 146 448 187 q 380 70 406 104 q 325 14 354 36 q 267 -8 296 -8 q 234 2 247 -8 q 213 26 221 12 q 202 58 205 41 q 199 89 199 75 q 204 139 199 111 q 224 204 209 168 q 175 141 201 173 q 124 83 150 109 q 72 40 98 57 q 22 24 45 24 q -1 30 12 24 q -23 46 -13 35 q -41 74 -34 58 q -47 113 -47 91 q -31 194 -47 149 q 13 283 -14 238 q 71 370 39 328 q 132 443 102 412 q 183 492 159 472 q 229 525 208 513 q 269 544 250 538 q 306 550 288 549 q 333 546 322 550 q 350 536 344 543 q 358 522 356 530 q 361 505 361 514 q 355 481 361 496 q 340 451 350 466 q 318 426 331 436 q 292 415 306 415 q 285 419 286 415 q 283 429 283 423 q 286 456 283 441 q 289 484 289 472 q 287 498 289 494 q 277 503 284 503 q 239 474 259 495 q 199 424 219 452 q 162 361 180 395 q 130 295 144 328 q 108 232 116 262 q 100 183 100 203 q 104 161 100 169 q 114 153 108 153 q 129 161 119 153 q 152 184 139 170 q 180 217 165 199 q 208 252 194 235 q 233 286 222 270 q 252 311 245 301 q 276 351 269 337 q 292 366 283 366 q 301 360 295 366 q 314 348 308 355 q 326 333 321 340 q 330 322 330 326 q 321 295 330 313 q 297 240 313 278 q 271 164 279 199 q 262 102 262 129 q 264 83 262 92 q 269 65 265 73 q 278 53 272 58 q 294 47 284 47 q 328 61 311 47 q 361 94 345 74 q 391 138 377 115 q 416 182 406 161 q 434 218 427 203 q 441 235 440 233 q 454 245 447 245 q 462 243 458 245 q 465 235 465 240 q 463 225 465 231 m 422 822 q 435 831 427 828 q 453 835 444 835 q 475 832 464 835 q 496 823 487 829 q 512 810 506 817 q 518 794 518 802 q 514 782 518 788 q 499 769 511 779 q 467 745 486 759 q 424 715 448 732 q 374 683 399 699 q 322 653 348 667 q 275 627 296 638 q 260 622 267 623 q 250 621 254 621 q 237 624 241 621 q 233 632 233 627 q 241 647 233 639 q 294 693 269 672 q 342 735 319 715 q 385 777 365 755 q 422 822 405 798 z "},"":{"ha":611,"x_min":-253,"x_max":711,"o":"m 26 227 l 452 1042 q 456 1048 454 1046 q 463 1053 459 1050 q 470 1053 467 1054 q 478 1051 473 1053 l 542 1035 l 393 -85 q 445 -80 422 -81 q 482 -79 469 -79 q 512 -82 503 -79 q 525 -88 522 -84 q 524 -98 527 -92 q 515 -111 521 -104 q 506 -123 509 -118 q 498 -133 503 -129 q 483 -141 492 -138 q 453 -147 473 -144 q 413 -151 439 -149 q 354 -155 387 -153 q 285 -159 321 -157 q 217 -162 249 -161 q 162 -165 186 -164 q 129 -167 138 -167 q 98 -161 100 -169 q 114 -134 96 -153 q 179 -109 128 -115 q 205 -105 186 -107 q 249 -100 223 -102 l 294 200 l 52 178 l -61 -39 q 0 -34 -19 -33 q 16 -45 19 -35 q 2 -68 11 -55 q -25 -92 -7 -82 q -47 -97 -31 -94 q -85 -102 -64 -100 q -131 -106 -107 -104 q -177 -110 -155 -108 q -214 -112 -198 -111 q -236 -114 -231 -113 q -250 -104 -253 -115 q -225 -77 -246 -93 q -217 -71 -222 -74 q -200 -63 -212 -67 q -169 -55 -189 -59 q -117 -46 -149 -51 l -1 174 l -79 167 q -86 171 -84 167 q -85 180 -89 176 l -79 191 q -37 220 -64 214 l 26 227 m 302 261 l 387 829 l 81 233 l 302 261 m 709 1131 q 710 1128 709 1129 q 711 1126 711 1128 q 702 1111 711 1118 q 687 1104 694 1104 q 686 1103 686 1104 q 684 1103 686 1102 q 676 1109 682 1104 q 658 1127 671 1115 q 625 1162 646 1140 q 572 1218 604 1183 q 523 1184 552 1204 q 465 1147 494 1165 q 408 1118 435 1130 q 368 1105 382 1105 q 355 1109 359 1105 q 351 1117 351 1112 q 359 1132 351 1124 q 411 1177 387 1157 q 456 1215 434 1196 q 500 1252 478 1233 q 546 1295 522 1270 q 562 1311 555 1304 q 586 1318 569 1318 q 600 1315 592 1318 q 615 1306 608 1312 q 628 1293 623 1301 q 635 1275 633 1285 q 662 1222 650 1244 q 683 1182 674 1199 q 699 1152 692 1164 q 709 1131 705 1140 z "},"":{"ha":453,"x_min":-47,"x_max":501,"o":"m 463 225 q 427 146 448 187 q 380 70 406 104 q 325 14 354 36 q 267 -8 296 -8 q 234 2 247 -8 q 213 26 221 12 q 202 58 205 41 q 199 89 199 75 q 204 139 199 111 q 224 204 209 168 q 175 141 201 173 q 124 83 150 109 q 72 40 98 57 q 22 24 45 24 q -1 30 12 24 q -23 46 -13 35 q -41 74 -34 58 q -47 113 -47 91 q -31 194 -47 149 q 13 283 -14 238 q 71 370 39 328 q 132 443 102 412 q 183 492 159 472 q 229 525 208 513 q 269 544 250 538 q 306 550 288 549 q 333 546 322 550 q 350 536 344 543 q 358 522 356 530 q 361 505 361 514 q 355 481 361 496 q 340 451 350 466 q 318 426 331 436 q 292 415 306 415 q 285 419 286 415 q 283 429 283 423 q 286 456 283 441 q 289 484 289 472 q 287 498 289 494 q 277 503 284 503 q 239 474 259 495 q 199 424 219 452 q 162 361 180 395 q 130 295 144 328 q 108 232 116 262 q 100 183 100 203 q 104 161 100 169 q 114 153 108 153 q 129 161 119 153 q 152 184 139 170 q 180 217 165 199 q 208 252 194 235 q 233 286 222 270 q 252 311 245 301 q 276 351 269 337 q 292 366 283 366 q 301 360 295 366 q 314 348 308 355 q 326 333 321 340 q 330 322 330 326 q 321 295 330 313 q 297 240 313 278 q 271 164 279 199 q 262 102 262 129 q 264 83 262 92 q 269 65 265 73 q 278 53 272 58 q 294 47 284 47 q 328 61 311 47 q 361 94 345 74 q 391 138 377 115 q 416 182 406 161 q 434 218 427 203 q 441 235 440 233 q 454 245 447 245 q 462 243 458 245 q 465 235 465 240 q 463 225 465 231 m 500 646 q 500 644 500 644 q 501 642 501 643 q 493 626 501 633 q 477 619 484 619 q 476 618 476 619 q 475 618 477 617 q 467 625 473 619 q 449 643 461 630 q 415 677 436 655 q 362 733 395 699 q 314 700 342 719 q 255 663 285 680 q 199 633 225 645 q 158 621 172 621 q 146 624 150 621 q 142 632 142 627 q 150 647 142 639 q 201 692 178 672 q 247 730 224 711 q 290 767 269 748 q 336 810 312 785 q 353 826 346 819 q 376 833 359 833 q 390 830 382 833 q 406 822 398 827 q 418 808 413 816 q 425 790 424 800 q 452 737 440 760 q 474 697 465 714 q 489 667 483 680 q 500 646 496 655 z "},"":{"ha":611,"x_min":-253,"x_max":757,"o":"m 26 227 l 452 1042 q 456 1048 454 1046 q 463 1053 459 1050 q 470 1053 467 1054 q 478 1051 473 1053 l 542 1035 l 393 -85 q 445 -80 422 -81 q 482 -79 469 -79 q 512 -82 503 -79 q 525 -88 522 -84 q 524 -98 527 -92 q 515 -111 521 -104 q 506 -123 509 -118 q 498 -133 503 -129 q 483 -141 492 -138 q 453 -147 473 -144 q 413 -151 439 -149 q 354 -155 387 -153 q 285 -159 321 -157 q 217 -162 249 -161 q 162 -165 186 -164 q 129 -167 138 -167 q 98 -161 100 -169 q 114 -134 96 -153 q 179 -109 128 -115 q 205 -105 186 -107 q 249 -100 223 -102 l 294 200 l 52 178 l -61 -39 q 0 -34 -19 -33 q 16 -45 19 -35 q 2 -68 11 -55 q -25 -92 -7 -82 q -47 -97 -31 -94 q -85 -102 -64 -100 q -131 -106 -107 -104 q -177 -110 -155 -108 q -214 -112 -198 -111 q -236 -114 -231 -113 q -250 -104 -253 -115 q -225 -77 -246 -93 q -217 -71 -222 -74 q -200 -63 -212 -67 q -169 -55 -189 -59 q -117 -46 -149 -51 l -1 174 l -79 167 q -86 171 -84 167 q -85 180 -89 176 l -79 191 q -37 220 -64 214 l 26 227 m 302 261 l 387 829 l 81 233 l 302 261 m 393 1145 q 382 1134 387 1138 q 366 1131 377 1131 q 356 1137 359 1131 q 353 1150 353 1143 q 360 1175 353 1161 q 378 1204 367 1189 q 405 1233 390 1219 q 437 1258 420 1247 q 471 1276 454 1270 q 504 1283 488 1283 q 537 1271 522 1283 q 569 1244 553 1259 q 599 1218 584 1230 q 631 1206 614 1206 q 657 1207 646 1206 q 677 1214 668 1209 q 695 1229 686 1219 q 715 1253 704 1238 q 725 1269 720 1260 q 743 1278 730 1278 q 753 1275 749 1278 q 757 1264 757 1272 q 744 1218 757 1242 q 711 1174 731 1194 q 665 1141 690 1154 q 616 1128 640 1128 q 568 1140 591 1128 q 526 1165 545 1152 q 491 1191 507 1179 q 467 1203 476 1203 q 443 1200 452 1203 q 427 1189 434 1196 q 412 1171 419 1182 q 393 1145 404 1160 z "},"":{"ha":453,"x_min":-47,"x_max":548,"o":"m 463 225 q 427 146 448 187 q 380 70 406 104 q 325 14 354 36 q 267 -8 296 -8 q 234 2 247 -8 q 213 26 221 12 q 202 58 205 41 q 199 89 199 75 q 204 139 199 111 q 224 204 209 168 q 175 141 201 173 q 124 83 150 109 q 72 40 98 57 q 22 24 45 24 q -1 30 12 24 q -23 46 -13 35 q -41 74 -34 58 q -47 113 -47 91 q -31 194 -47 149 q 13 283 -14 238 q 71 370 39 328 q 132 443 102 412 q 183 492 159 472 q 229 525 208 513 q 269 544 250 538 q 306 550 288 549 q 333 546 322 550 q 350 536 344 543 q 358 522 356 530 q 361 505 361 514 q 355 481 361 496 q 340 451 350 466 q 318 426 331 436 q 292 415 306 415 q 285 419 286 415 q 283 429 283 423 q 286 456 283 441 q 289 484 289 472 q 287 498 289 494 q 277 503 284 503 q 239 474 259 495 q 199 424 219 452 q 162 361 180 395 q 130 295 144 328 q 108 232 116 262 q 100 183 100 203 q 104 161 100 169 q 114 153 108 153 q 129 161 119 153 q 152 184 139 170 q 180 217 165 199 q 208 252 194 235 q 233 286 222 270 q 252 311 245 301 q 276 351 269 337 q 292 366 283 366 q 301 360 295 366 q 314 348 308 355 q 326 333 321 340 q 330 322 330 326 q 321 295 330 313 q 297 240 313 278 q 271 164 279 199 q 262 102 262 129 q 264 83 262 92 q 269 65 265 73 q 278 53 272 58 q 294 47 284 47 q 328 61 311 47 q 361 94 345 74 q 391 138 377 115 q 416 182 406 161 q 434 218 427 203 q 441 235 440 233 q 454 245 447 245 q 462 243 458 245 q 465 235 465 240 q 463 225 465 231 m 184 660 q 173 649 178 653 q 157 646 168 646 q 147 652 150 646 q 144 665 144 659 q 151 690 144 676 q 170 719 158 704 q 196 748 181 734 q 229 773 212 762 q 262 791 245 785 q 295 798 279 798 q 329 786 313 798 q 360 760 345 774 q 390 733 375 745 q 422 721 406 721 q 448 723 437 721 q 468 729 459 724 q 486 744 477 734 q 506 768 495 753 q 516 784 511 775 q 534 793 522 793 q 544 790 540 793 q 548 779 548 787 q 535 733 548 758 q 502 689 522 709 q 456 656 481 669 q 408 643 431 643 q 359 655 382 643 q 317 681 336 667 q 282 706 298 694 q 258 718 267 718 q 234 715 243 718 q 218 704 225 711 q 203 686 210 697 q 184 660 195 675 z "},"":{"ha":611,"x_min":-253,"x_max":701,"o":"m 26 227 l 452 1042 q 456 1048 454 1046 q 463 1053 459 1050 q 470 1053 467 1054 q 478 1051 473 1053 l 542 1035 l 393 -85 q 445 -80 422 -81 q 482 -79 469 -79 q 512 -82 503 -79 q 525 -88 522 -84 q 524 -98 527 -92 q 515 -111 521 -104 q 506 -123 509 -118 q 498 -133 503 -129 q 483 -141 492 -138 q 453 -147 473 -144 q 413 -151 439 -149 q 354 -155 387 -153 q 285 -159 321 -157 q 217 -162 249 -161 q 162 -165 186 -164 q 129 -167 138 -167 q 98 -161 100 -169 q 114 -134 96 -153 q 179 -109 128 -115 q 205 -105 186 -107 q 249 -100 223 -102 l 294 200 l 52 178 l -61 -39 q 0 -34 -19 -33 q 16 -45 19 -35 q 2 -68 11 -55 q -25 -92 -7 -82 q -47 -97 -31 -94 q -85 -102 -64 -100 q -131 -106 -107 -104 q -177 -110 -155 -108 q -214 -112 -198 -111 q -236 -114 -231 -113 q -250 -104 -253 -115 q -225 -77 -246 -93 q -217 -71 -222 -74 q -200 -63 -212 -67 q -169 -55 -189 -59 q -117 -46 -149 -51 l -1 174 l -79 167 q -86 171 -84 167 q -85 180 -89 176 l -79 191 q -37 220 -64 214 l 26 227 m 302 261 l 387 829 l 81 233 l 302 261 m 507 1201 q 491 1153 507 1173 q 444 1133 475 1133 q 430 1137 436 1133 q 419 1147 423 1141 q 412 1160 414 1153 q 410 1172 410 1166 q 428 1222 410 1204 q 475 1240 446 1240 q 488 1236 482 1240 q 498 1226 494 1232 q 504 1214 502 1221 q 507 1201 507 1207 m 701 1201 q 685 1153 701 1173 q 639 1133 669 1133 q 624 1137 631 1133 q 613 1147 617 1141 q 606 1160 608 1153 q 604 1172 604 1166 q 622 1222 604 1204 q 669 1240 640 1240 q 682 1236 676 1240 q 692 1226 688 1232 q 699 1214 696 1221 q 701 1201 701 1207 z "},"":{"ha":453,"x_min":-47,"x_max":492,"o":"m 463 225 q 427 146 448 187 q 380 70 406 104 q 325 14 354 36 q 267 -8 296 -8 q 234 2 247 -8 q 213 26 221 12 q 202 58 205 41 q 199 89 199 75 q 204 139 199 111 q 224 204 209 168 q 175 141 201 173 q 124 83 150 109 q 72 40 98 57 q 22 24 45 24 q -1 30 12 24 q -23 46 -13 35 q -41 74 -34 58 q -47 113 -47 91 q -31 194 -47 149 q 13 283 -14 238 q 71 370 39 328 q 132 443 102 412 q 183 492 159 472 q 229 525 208 513 q 269 544 250 538 q 306 550 288 549 q 333 546 322 550 q 350 536 344 543 q 358 522 356 530 q 361 505 361 514 q 355 481 361 496 q 340 451 350 466 q 318 426 331 436 q 292 415 306 415 q 285 419 286 415 q 283 429 283 423 q 286 456 283 441 q 289 484 289 472 q 287 498 289 494 q 277 503 284 503 q 239 474 259 495 q 199 424 219 452 q 162 361 180 395 q 130 295 144 328 q 108 232 116 262 q 100 183 100 203 q 104 161 100 169 q 114 153 108 153 q 129 161 119 153 q 152 184 139 170 q 180 217 165 199 q 208 252 194 235 q 233 286 222 270 q 252 311 245 301 q 276 351 269 337 q 292 366 283 366 q 301 360 295 366 q 314 348 308 355 q 326 333 321 340 q 330 322 330 326 q 321 295 330 313 q 297 240 313 278 q 271 164 279 199 q 262 102 262 129 q 264 83 262 92 q 269 65 265 73 q 278 53 272 58 q 294 47 284 47 q 328 61 311 47 q 361 94 345 74 q 391 138 377 115 q 416 182 406 161 q 434 218 427 203 q 441 235 440 233 q 454 245 447 245 q 462 243 458 245 q 465 235 465 240 q 463 225 465 231 m 298 716 q 282 668 298 688 q 235 648 266 648 q 221 652 227 648 q 210 662 214 656 q 203 675 205 668 q 201 687 201 682 q 219 737 201 719 q 266 755 237 755 q 279 751 273 755 q 289 742 285 747 q 295 729 293 736 q 298 716 298 722 m 492 716 q 476 668 492 688 q 430 648 460 648 q 415 652 422 648 q 404 662 408 656 q 397 675 399 668 q 395 687 395 682 q 413 737 395 719 q 460 755 431 755 q 473 751 467 755 q 484 742 479 747 q 490 729 488 736 q 492 716 492 722 z "},"":{"ha":611,"x_min":-253,"x_max":706,"o":"m 26 227 l 452 1042 q 456 1048 454 1046 q 463 1053 459 1050 q 470 1053 467 1054 q 478 1051 473 1053 l 542 1035 l 393 -85 q 445 -80 422 -81 q 482 -79 469 -79 q 512 -82 503 -79 q 525 -88 522 -84 q 524 -98 527 -92 q 515 -111 521 -104 q 506 -123 509 -118 q 498 -133 503 -129 q 483 -141 492 -138 q 453 -147 473 -144 q 413 -151 439 -149 q 354 -155 387 -153 q 285 -159 321 -157 q 217 -162 249 -161 q 162 -165 186 -164 q 129 -167 138 -167 q 98 -161 100 -169 q 114 -134 96 -153 q 179 -109 128 -115 q 205 -105 186 -107 q 249 -100 223 -102 l 294 200 l 52 178 l -61 -39 q 0 -34 -19 -33 q 16 -45 19 -35 q 2 -68 11 -55 q -25 -92 -7 -82 q -47 -97 -31 -94 q -85 -102 -64 -100 q -131 -106 -107 -104 q -177 -110 -155 -108 q -214 -112 -198 -111 q -236 -114 -231 -113 q -250 -104 -253 -115 q -225 -77 -246 -93 q -217 -71 -222 -74 q -200 -63 -212 -67 q -169 -55 -189 -59 q -117 -46 -149 -51 l -1 174 l -79 167 q -86 171 -84 167 q -85 180 -89 176 l -79 191 q -37 220 -64 214 l 26 227 m 302 261 l 387 829 l 81 233 l 302 261 m 428 1198 q 442 1260 428 1231 q 480 1311 456 1289 q 533 1346 503 1333 q 595 1358 564 1358 q 638 1352 618 1358 q 674 1332 659 1345 q 697 1299 689 1318 q 706 1255 706 1280 q 693 1194 706 1224 q 659 1141 681 1164 q 608 1103 637 1118 q 545 1089 578 1089 q 499 1096 521 1089 q 462 1117 478 1103 q 437 1151 446 1131 q 428 1198 428 1171 m 602 1316 q 571 1309 587 1316 q 542 1288 555 1301 q 519 1254 528 1274 q 510 1211 510 1235 q 525 1170 510 1185 q 566 1154 541 1154 q 604 1164 587 1154 q 633 1190 621 1175 q 652 1224 646 1205 q 659 1259 659 1242 q 645 1300 659 1283 q 602 1316 631 1316 z "},"":{"ha":453,"x_min":-47,"x_max":496,"o":"m 463 225 q 427 146 448 187 q 380 70 406 104 q 325 14 354 36 q 267 -8 296 -8 q 234 2 247 -8 q 213 26 221 12 q 202 58 205 41 q 199 89 199 75 q 204 139 199 111 q 224 204 209 168 q 175 141 201 173 q 124 83 150 109 q 72 40 98 57 q 22 24 45 24 q -1 30 12 24 q -23 46 -13 35 q -41 74 -34 58 q -47 113 -47 91 q -31 194 -47 149 q 13 283 -14 238 q 71 370 39 328 q 132 443 102 412 q 183 492 159 472 q 229 525 208 513 q 269 544 250 538 q 306 550 288 549 q 333 546 322 550 q 350 536 344 543 q 358 522 356 530 q 361 505 361 514 q 355 481 361 496 q 340 451 350 466 q 318 426 331 436 q 292 415 306 415 q 285 419 286 415 q 283 429 283 423 q 286 456 283 441 q 289 484 289 472 q 287 498 289 494 q 277 503 284 503 q 239 474 259 495 q 199 424 219 452 q 162 361 180 395 q 130 295 144 328 q 108 232 116 262 q 100 183 100 203 q 104 161 100 169 q 114 153 108 153 q 129 161 119 153 q 152 184 139 170 q 180 217 165 199 q 208 252 194 235 q 233 286 222 270 q 252 311 245 301 q 276 351 269 337 q 292 366 283 366 q 301 360 295 366 q 314 348 308 355 q 326 333 321 340 q 330 322 330 326 q 321 295 330 313 q 297 240 313 278 q 271 164 279 199 q 262 102 262 129 q 264 83 262 92 q 269 65 265 73 q 278 53 272 58 q 294 47 284 47 q 328 61 311 47 q 361 94 345 74 q 391 138 377 115 q 416 182 406 161 q 434 218 427 203 q 441 235 440 233 q 454 245 447 245 q 462 243 458 245 q 465 235 465 240 q 463 225 465 231 m 218 713 q 232 775 218 746 q 270 826 246 804 q 323 861 293 848 q 385 873 353 873 q 428 867 408 873 q 464 847 448 860 q 487 814 479 833 q 496 770 496 795 q 483 709 496 739 q 449 656 471 680 q 398 618 427 633 q 334 604 368 604 q 289 611 311 604 q 252 632 268 618 q 227 666 236 646 q 218 713 218 686 m 391 831 q 361 824 377 831 q 332 803 345 817 q 309 769 318 789 q 300 726 300 750 q 315 685 300 701 q 355 669 330 669 q 394 680 376 669 q 423 705 411 690 q 442 739 435 720 q 448 774 448 758 q 434 815 448 798 q 391 831 420 831 z "},"":{"ha":946,"x_min":-253,"x_max":1090,"o":"m 26 227 l 452 1042 q 456 1048 454 1046 q 463 1053 459 1050 q 470 1053 467 1054 q 478 1051 473 1053 l 542 1035 l 453 359 q 610 446 524 417 q 569 469 588 454 q 536 504 550 484 q 515 549 523 524 q 507 604 507 574 q 524 715 507 659 q 569 824 540 772 q 638 921 598 876 q 725 1000 678 966 q 825 1053 772 1034 q 930 1072 877 1072 q 989 1066 960 1072 q 1040 1043 1018 1059 q 1077 997 1063 1026 q 1090 924 1090 968 q 1076 857 1090 889 q 1037 801 1061 825 q 985 761 1014 776 q 930 746 957 746 q 922 750 926 746 q 918 760 918 753 q 925 788 918 771 q 940 825 932 804 q 956 869 949 846 q 962 918 962 893 q 942 989 962 962 q 885 1015 922 1015 q 815 995 847 1015 q 758 942 784 975 q 713 868 732 909 q 680 786 693 827 q 660 708 667 745 q 653 646 653 671 q 660 577 653 605 q 676 530 667 549 q 698 500 686 511 q 720 481 710 488 q 736 470 730 474 q 743 460 743 465 q 735 435 743 446 q 711 422 727 425 q 597 367 649 405 q 508 277 545 329 q 451 165 471 226 q 431 43 431 104 q 438 -5 431 14 q 459 -37 446 -25 q 489 -54 472 -49 q 526 -60 507 -60 q 600 -43 568 -60 q 655 -3 631 -27 q 697 49 680 21 q 728 101 715 77 q 751 142 741 125 q 768 158 760 158 q 783 154 774 158 q 791 139 791 149 q 791 134 791 137 q 789 127 790 131 q 731 21 763 73 q 659 -70 699 -30 q 569 -133 619 -109 q 456 -157 519 -157 q 382 -144 416 -157 q 323 -107 348 -132 q 286 -49 299 -83 q 272 29 272 -15 q 272 43 272 35 q 275 68 273 50 q 281 116 277 85 q 293 200 285 147 l 52 178 l -61 -39 q 0 -34 -19 -33 q 16 -45 19 -35 q 2 -68 11 -55 q -25 -92 -7 -82 q -47 -97 -31 -94 q -85 -102 -64 -100 q -131 -106 -107 -104 q -177 -110 -155 -108 q -214 -112 -198 -111 q -236 -114 -231 -113 q -250 -104 -253 -115 q -225 -77 -246 -93 q -217 -71 -222 -74 q -200 -63 -212 -67 q -169 -55 -189 -59 q -117 -46 -149 -51 l -1 174 l -79 167 q -86 171 -84 167 q -85 180 -89 176 l -79 191 q -37 220 -64 214 l 26 227 m 302 261 l 387 829 l 81 233 l 302 261 z "},"":{"ha":621,"x_min":-47,"x_max":635,"o":"m 632 225 q 575 130 608 175 q 505 52 543 85 q 426 -1 467 18 q 342 -21 384 -21 q 288 -8 311 -21 q 248 26 264 4 q 223 77 231 47 q 215 139 215 106 q 220 200 215 172 q 172 138 197 170 q 121 81 146 106 q 71 40 96 56 q 22 24 45 24 q -1 30 12 24 q -23 46 -13 35 q -41 74 -34 58 q -47 113 -47 91 q -31 194 -47 149 q 13 283 -14 238 q 71 370 39 328 q 132 443 102 412 q 183 492 159 472 q 229 525 208 513 q 269 544 250 538 q 306 550 288 549 q 349 536 338 550 q 361 505 361 523 q 373 529 368 519 q 382 542 378 538 q 415 559 395 557 q 449 562 434 562 q 463 559 458 562 q 467 550 467 555 q 465 543 467 547 q 461 536 463 540 q 457 531 460 536 q 450 522 454 527 q 441 511 446 516 q 436 504 437 506 q 474 529 454 521 q 509 538 495 538 q 536 531 524 538 q 556 513 548 524 q 568 488 564 502 q 572 461 572 475 q 551 375 572 420 q 494 291 529 331 q 414 220 458 252 q 325 174 370 189 q 330 126 325 149 q 346 88 335 104 q 372 61 356 71 q 411 52 389 52 q 456 61 433 52 q 504 91 479 70 q 555 148 529 113 q 611 235 582 183 q 624 245 618 245 q 631 243 628 245 q 635 235 635 240 q 632 225 635 231 m 292 415 q 285 419 286 415 q 283 429 283 423 q 286 456 283 441 q 289 484 289 472 q 287 498 289 494 q 277 503 284 503 q 239 474 259 495 q 199 424 219 452 q 162 361 180 395 q 130 295 144 328 q 108 232 116 262 q 100 183 100 203 q 104 161 100 169 q 114 153 108 153 q 129 161 119 153 q 152 184 139 170 q 180 217 165 199 q 208 252 194 235 q 233 286 222 270 q 252 311 245 301 q 267 336 261 325 q 278 354 273 347 l 278 355 q 279 355 279 355 q 281 358 279 357 q 283 363 282 360 q 286 368 285 366 q 302 396 294 380 q 318 427 310 411 q 292 415 305 415 m 510 427 q 503 450 510 440 q 481 460 495 460 q 437 437 461 460 q 391 377 413 414 q 350 297 368 341 q 326 210 332 252 q 392 249 359 225 q 451 300 425 272 q 494 361 477 329 q 510 427 510 393 z "},"":{"ha":946,"x_min":-253,"x_max":1090,"o":"m 26 227 l 452 1042 q 456 1048 454 1046 q 463 1053 459 1050 q 470 1053 467 1054 q 478 1051 473 1053 l 542 1035 l 453 359 q 610 446 524 417 q 569 469 588 454 q 536 504 550 484 q 515 549 523 524 q 507 604 507 574 q 524 715 507 659 q 569 824 540 772 q 638 921 598 876 q 725 1000 678 966 q 825 1053 772 1034 q 930 1072 877 1072 q 989 1066 960 1072 q 1040 1043 1018 1059 q 1077 997 1063 1026 q 1090 924 1090 968 q 1076 857 1090 889 q 1037 801 1061 825 q 985 761 1014 776 q 930 746 957 746 q 922 750 926 746 q 918 760 918 753 q 925 788 918 771 q 940 825 932 804 q 956 869 949 846 q 962 918 962 893 q 942 989 962 962 q 885 1015 922 1015 q 815 995 847 1015 q 758 942 784 975 q 713 868 732 909 q 680 786 693 827 q 660 708 667 745 q 653 646 653 671 q 660 577 653 605 q 676 530 667 549 q 698 500 686 511 q 720 481 710 488 q 736 470 730 474 q 743 460 743 465 q 735 435 743 446 q 711 422 727 425 q 597 367 649 405 q 508 277 545 329 q 451 165 471 226 q 431 43 431 104 q 438 -5 431 14 q 459 -37 446 -25 q 489 -54 472 -49 q 526 -60 507 -60 q 600 -43 568 -60 q 655 -3 631 -27 q 697 49 680 21 q 728 101 715 77 q 751 142 741 125 q 768 158 760 158 q 783 154 774 158 q 791 139 791 149 q 791 134 791 137 q 789 127 790 131 q 731 21 763 73 q 659 -70 699 -30 q 569 -133 619 -109 q 456 -157 519 -157 q 382 -144 416 -157 q 323 -107 348 -132 q 286 -49 299 -83 q 272 29 272 -15 q 272 43 272 35 q 275 68 273 50 q 281 116 277 85 q 293 200 285 147 l 52 178 l -61 -39 q 0 -34 -19 -33 q 16 -45 19 -35 q 2 -68 11 -55 q -25 -92 -7 -82 q -47 -97 -31 -94 q -85 -102 -64 -100 q -131 -106 -107 -104 q -177 -110 -155 -108 q -214 -112 -198 -111 q -236 -114 -231 -113 q -250 -104 -253 -115 q -225 -77 -246 -93 q -217 -71 -222 -74 q -200 -63 -212 -67 q -169 -55 -189 -59 q -117 -46 -149 -51 l -1 174 l -79 167 q -86 171 -84 167 q -85 180 -89 176 l -79 191 q -37 220 -64 214 l 26 227 m 302 261 l 387 829 l 81 233 l 302 261 m 806 1299 q 818 1308 810 1305 q 836 1312 827 1312 q 859 1309 847 1312 q 880 1300 870 1305 q 895 1286 889 1294 q 901 1271 901 1279 q 897 1259 901 1265 q 882 1245 895 1255 q 850 1222 869 1236 q 807 1192 831 1208 q 757 1160 783 1176 q 705 1129 731 1144 q 658 1104 680 1115 q 644 1099 650 1100 q 633 1097 637 1097 q 621 1101 625 1097 q 616 1109 616 1104 q 625 1124 616 1116 q 677 1170 652 1149 q 725 1212 703 1192 q 768 1253 748 1232 q 806 1299 788 1274 z "},"":{"ha":621,"x_min":-47,"x_max":635,"o":"m 632 225 q 575 130 608 175 q 505 52 543 85 q 426 -1 467 18 q 342 -21 384 -21 q 288 -8 311 -21 q 248 26 264 4 q 223 77 231 47 q 215 139 215 106 q 220 200 215 172 q 172 138 197 170 q 121 81 146 106 q 71 40 96 56 q 22 24 45 24 q -1 30 12 24 q -23 46 -13 35 q -41 74 -34 58 q -47 113 -47 91 q -31 194 -47 149 q 13 283 -14 238 q 71 370 39 328 q 132 443 102 412 q 183 492 159 472 q 229 525 208 513 q 269 544 250 538 q 306 550 288 549 q 349 536 338 550 q 361 505 361 523 q 373 529 368 519 q 382 542 378 538 q 415 559 395 557 q 449 562 434 562 q 463 559 458 562 q 467 550 467 555 q 465 543 467 547 q 461 536 463 540 q 457 531 460 536 q 450 522 454 527 q 441 511 446 516 q 436 504 437 506 q 474 529 454 521 q 509 538 495 538 q 536 531 524 538 q 556 513 548 524 q 568 488 564 502 q 572 461 572 475 q 551 375 572 420 q 494 291 529 331 q 414 220 458 252 q 325 174 370 189 q 330 126 325 149 q 346 88 335 104 q 372 61 356 71 q 411 52 389 52 q 456 61 433 52 q 504 91 479 70 q 555 148 529 113 q 611 235 582 183 q 624 245 618 245 q 631 243 628 245 q 635 235 635 240 q 632 225 635 231 m 292 415 q 285 419 286 415 q 283 429 283 423 q 286 456 283 441 q 289 484 289 472 q 287 498 289 494 q 277 503 284 503 q 239 474 259 495 q 199 424 219 452 q 162 361 180 395 q 130 295 144 328 q 108 232 116 262 q 100 183 100 203 q 104 161 100 169 q 114 153 108 153 q 129 161 119 153 q 152 184 139 170 q 180 217 165 199 q 208 252 194 235 q 233 286 222 270 q 252 311 245 301 q 267 336 261 325 q 278 354 273 347 l 278 355 q 279 355 279 355 q 281 358 279 357 q 283 363 282 360 q 286 368 285 366 q 302 396 294 380 q 318 427 310 411 q 292 415 305 415 m 510 427 q 503 450 510 440 q 481 460 495 460 q 437 437 461 460 q 391 377 413 414 q 350 297 368 341 q 326 210 332 252 q 392 249 359 225 q 451 300 425 272 q 494 361 477 329 q 510 427 510 393 m 532 838 q 545 847 536 844 q 563 850 553 850 q 585 847 574 850 q 606 839 597 844 q 622 825 616 833 q 628 810 628 818 q 624 798 628 804 q 609 784 621 794 q 577 761 596 774 q 533 731 557 747 q 484 699 509 715 q 432 668 458 683 q 385 643 406 654 q 370 637 376 639 q 360 636 364 636 q 347 640 351 636 q 343 648 343 643 q 351 663 343 654 q 404 709 379 688 q 452 751 429 730 q 495 792 475 771 q 532 838 515 813 z "},"":{"ha":611,"x_min":-253,"x_max":745,"o":"m 26 227 l 452 1042 q 456 1048 454 1046 q 463 1053 459 1050 q 470 1053 467 1054 q 478 1051 473 1053 l 542 1035 l 393 -85 q 445 -80 422 -81 q 482 -79 469 -79 q 512 -82 503 -79 q 525 -88 522 -84 q 524 -98 527 -92 q 515 -111 521 -104 q 506 -123 509 -118 q 498 -133 503 -129 q 483 -141 492 -138 q 453 -147 473 -144 q 413 -151 439 -149 q 354 -155 387 -153 q 285 -159 321 -157 q 217 -162 249 -161 q 162 -165 186 -164 q 129 -167 138 -167 q 98 -161 100 -169 q 114 -134 96 -153 q 179 -109 128 -115 q 205 -105 186 -107 q 249 -100 223 -102 l 294 200 l 52 178 l -61 -39 q 0 -34 -19 -33 q 16 -45 19 -35 q 2 -68 11 -55 q -25 -92 -7 -82 q -47 -97 -31 -94 q -85 -102 -64 -100 q -131 -106 -107 -104 q -177 -110 -155 -108 q -214 -112 -198 -111 q -236 -114 -231 -113 q -250 -104 -253 -115 q -225 -77 -246 -93 q -217 -71 -222 -74 q -200 -63 -212 -67 q -169 -55 -189 -59 q -117 -46 -149 -51 l -1 174 l -79 167 q -86 171 -84 167 q -85 180 -89 176 l -79 191 q -37 220 -64 214 l 26 227 m 302 261 l 387 829 l 81 233 l 302 261 m 720 1249 q 739 1244 733 1249 q 745 1234 745 1240 q 738 1216 745 1225 q 721 1199 731 1206 q 701 1186 711 1191 q 683 1181 690 1181 l 403 1178 q 395 1185 395 1178 q 399 1195 395 1187 q 414 1223 402 1202 q 422 1233 416 1230 q 435 1238 428 1236 q 450 1239 442 1239 q 464 1240 457 1240 l 720 1249 z "},"":{"ha":453,"x_min":-47,"x_max":536,"o":"m 463 225 q 427 146 448 187 q 380 70 406 104 q 325 14 354 36 q 267 -8 296 -8 q 234 2 247 -8 q 213 26 221 12 q 202 58 205 41 q 199 89 199 75 q 204 139 199 111 q 224 204 209 168 q 175 141 201 173 q 124 83 150 109 q 72 40 98 57 q 22 24 45 24 q -1 30 12 24 q -23 46 -13 35 q -41 74 -34 58 q -47 113 -47 91 q -31 194 -47 149 q 13 283 -14 238 q 71 370 39 328 q 132 443 102 412 q 183 492 159 472 q 229 525 208 513 q 269 544 250 538 q 306 550 288 549 q 333 546 322 550 q 350 536 344 543 q 358 522 356 530 q 361 505 361 514 q 355 481 361 496 q 340 451 350 466 q 318 426 331 436 q 292 415 306 415 q 285 419 286 415 q 283 429 283 423 q 286 456 283 441 q 289 484 289 472 q 287 498 289 494 q 277 503 284 503 q 239 474 259 495 q 199 424 219 452 q 162 361 180 395 q 130 295 144 328 q 108 232 116 262 q 100 183 100 203 q 104 161 100 169 q 114 153 108 153 q 129 161 119 153 q 152 184 139 170 q 180 217 165 199 q 208 252 194 235 q 233 286 222 270 q 252 311 245 301 q 276 351 269 337 q 292 366 283 366 q 301 360 295 366 q 314 348 308 355 q 326 333 321 340 q 330 322 330 326 q 321 295 330 313 q 297 240 313 278 q 271 164 279 199 q 262 102 262 129 q 264 83 262 92 q 269 65 265 73 q 278 53 272 58 q 294 47 284 47 q 328 61 311 47 q 361 94 345 74 q 391 138 377 115 q 416 182 406 161 q 434 218 427 203 q 441 235 440 233 q 454 245 447 245 q 462 243 458 245 q 465 235 465 240 q 463 225 465 231 m 511 764 q 530 759 524 764 q 536 749 536 755 q 529 731 536 741 q 512 714 522 722 q 492 701 503 706 q 474 696 481 696 l 194 693 q 186 700 186 693 q 190 710 186 702 q 205 739 193 718 q 213 748 208 745 q 226 753 219 751 q 241 754 233 754 q 255 755 248 755 l 511 764 z "},"":{"ha":611,"x_min":-253,"x_max":760,"o":"m 26 227 l 452 1042 q 456 1048 454 1046 q 463 1053 459 1050 q 470 1053 467 1054 q 478 1051 473 1053 l 542 1035 l 393 -85 q 445 -80 422 -81 q 482 -79 469 -79 q 512 -82 503 -79 q 525 -88 522 -84 q 524 -98 527 -92 q 515 -111 521 -104 q 506 -123 509 -118 q 498 -133 503 -129 q 483 -141 492 -138 q 453 -147 473 -144 q 413 -151 439 -149 q 354 -155 387 -153 q 285 -159 321 -157 q 217 -162 249 -161 q 162 -165 186 -164 q 129 -167 138 -167 q 98 -161 100 -169 q 114 -134 96 -153 q 179 -109 128 -115 q 205 -105 186 -107 q 249 -100 223 -102 l 294 200 l 52 178 l -61 -39 q 0 -34 -19 -33 q 16 -45 19 -35 q 2 -68 11 -55 q -25 -92 -7 -82 q -47 -97 -31 -94 q -85 -102 -64 -100 q -131 -106 -107 -104 q -177 -110 -155 -108 q -214 -112 -198 -111 q -236 -114 -231 -113 q -250 -104 -253 -115 q -225 -77 -246 -93 q -217 -71 -222 -74 q -200 -63 -212 -67 q -169 -55 -189 -59 q -117 -46 -149 -51 l -1 174 l -79 167 q -86 171 -84 167 q -85 180 -89 176 l -79 191 q -37 220 -64 214 l 26 227 m 302 261 l 387 829 l 81 233 l 302 261 m 420 1278 q 425 1286 421 1282 q 433 1294 428 1291 q 443 1300 437 1298 q 452 1303 448 1303 q 459 1296 459 1303 q 459 1288 459 1295 q 461 1270 459 1280 q 468 1246 463 1259 q 482 1223 473 1234 q 506 1205 491 1213 q 544 1198 522 1198 q 651 1225 608 1198 q 724 1296 694 1252 q 744 1311 733 1311 q 755 1304 751 1311 q 760 1289 760 1297 q 759 1282 760 1285 q 757 1276 758 1280 q 658 1156 713 1193 q 533 1118 603 1118 q 476 1133 498 1118 q 442 1168 454 1147 q 424 1215 429 1190 q 419 1261 419 1240 q 420 1270 419 1265 q 420 1278 420 1274 z "},"":{"ha":453,"x_min":-47,"x_max":550,"o":"m 463 225 q 427 146 448 187 q 380 70 406 104 q 325 14 354 36 q 267 -8 296 -8 q 234 2 247 -8 q 213 26 221 12 q 202 58 205 41 q 199 89 199 75 q 204 139 199 111 q 224 204 209 168 q 175 141 201 173 q 124 83 150 109 q 72 40 98 57 q 22 24 45 24 q -1 30 12 24 q -23 46 -13 35 q -41 74 -34 58 q -47 113 -47 91 q -31 194 -47 149 q 13 283 -14 238 q 71 370 39 328 q 132 443 102 412 q 183 492 159 472 q 229 525 208 513 q 269 544 250 538 q 306 550 288 549 q 333 546 322 550 q 350 536 344 543 q 358 522 356 530 q 361 505 361 514 q 355 481 361 496 q 340 451 350 466 q 318 426 331 436 q 292 415 306 415 q 285 419 286 415 q 283 429 283 423 q 286 456 283 441 q 289 484 289 472 q 287 498 289 494 q 277 503 284 503 q 239 474 259 495 q 199 424 219 452 q 162 361 180 395 q 130 295 144 328 q 108 232 116 262 q 100 183 100 203 q 104 161 100 169 q 114 153 108 153 q 129 161 119 153 q 152 184 139 170 q 180 217 165 199 q 208 252 194 235 q 233 286 222 270 q 252 311 245 301 q 276 351 269 337 q 292 366 283 366 q 301 360 295 366 q 314 348 308 355 q 326 333 321 340 q 330 322 330 326 q 321 295 330 313 q 297 240 313 278 q 271 164 279 199 q 262 102 262 129 q 264 83 262 92 q 269 65 265 73 q 278 53 272 58 q 294 47 284 47 q 328 61 311 47 q 361 94 345 74 q 391 138 377 115 q 416 182 406 161 q 434 218 427 203 q 441 235 440 233 q 454 245 447 245 q 462 243 458 245 q 465 235 465 240 q 463 225 465 231 m 211 793 q 215 801 212 797 q 223 809 218 806 q 233 815 228 813 q 243 818 239 818 q 250 811 250 818 q 250 803 250 810 q 252 785 250 795 q 258 761 254 774 q 272 738 263 749 q 297 721 281 728 q 334 713 312 713 q 441 740 398 713 q 514 811 484 767 q 534 826 524 826 q 546 819 541 826 q 550 804 550 812 q 549 798 550 800 q 547 791 549 795 q 448 671 503 708 q 323 633 393 633 q 267 648 289 633 q 232 683 245 662 q 215 730 220 705 q 210 777 210 755 q 210 785 210 781 q 211 793 211 789 z "},"":{"ha":611,"x_min":-253,"x_max":542,"o":"m 26 227 l 452 1042 q 456 1048 454 1046 q 463 1053 459 1050 q 470 1053 467 1054 q 478 1051 473 1053 l 542 1035 l 393 -85 q 445 -80 422 -81 q 482 -79 469 -79 q 512 -82 503 -79 q 525 -88 522 -84 q 524 -98 527 -92 q 515 -111 521 -104 q 506 -122 509 -117 q 498 -132 503 -127 q 485 -140 494 -136 q 458 -146 476 -143 q 387 -228 414 -186 q 361 -307 361 -269 q 374 -350 361 -332 q 419 -367 388 -367 q 448 -364 435 -367 q 472 -357 462 -361 q 490 -349 483 -353 q 501 -342 498 -345 q 506 -338 503 -340 q 513 -336 509 -336 q 518 -339 516 -336 q 521 -346 521 -342 q 508 -364 521 -353 q 473 -387 494 -376 q 426 -406 452 -397 q 374 -414 399 -414 q 310 -395 336 -414 q 285 -339 285 -377 q 315 -251 285 -297 q 404 -151 345 -205 q 328 -156 371 -154 q 244 -161 285 -159 q 172 -165 203 -163 q 129 -167 140 -166 q 98 -161 100 -169 q 114 -134 96 -153 q 179 -109 128 -115 q 205 -105 186 -107 q 249 -100 223 -102 l 294 200 l 52 178 l -61 -39 q 0 -34 -19 -33 q 16 -45 19 -35 q 2 -68 11 -55 q -25 -92 -7 -82 q -47 -97 -31 -94 q -85 -102 -64 -100 q -131 -106 -107 -104 q -177 -110 -155 -108 q -214 -112 -198 -111 q -236 -114 -231 -113 q -250 -104 -253 -115 q -225 -77 -246 -93 q -217 -71 -222 -74 q -200 -63 -212 -67 q -169 -55 -189 -59 q -117 -46 -149 -51 l -1 174 l -79 167 q -86 171 -84 167 q -85 180 -89 176 l -79 191 q -37 220 -64 214 l 26 227 m 302 261 l 387 829 l 81 233 l 302 261 z "},"":{"ha":453,"x_min":-47,"x_max":465,"o":"m 240 -254 q 205 -250 222 -254 q 177 -236 189 -245 q 158 -213 165 -227 q 151 -179 151 -199 q 180 -98 151 -140 q 260 -8 209 -55 q 231 4 242 -6 q 212 28 219 14 q 202 59 205 43 q 199 89 199 75 q 204 139 199 111 q 224 204 209 168 q 175 141 201 173 q 124 83 150 109 q 72 40 98 57 q 22 24 45 24 q -1 30 12 24 q -23 46 -13 35 q -41 74 -34 58 q -47 113 -47 91 q -31 194 -47 149 q 13 283 -14 238 q 71 370 39 328 q 132 443 102 412 q 183 492 159 472 q 229 525 208 513 q 269 544 250 538 q 306 550 288 549 q 333 546 322 550 q 350 536 344 543 q 358 522 356 530 q 361 505 361 514 q 355 481 361 496 q 340 451 350 466 q 318 426 331 436 q 292 415 306 415 q 285 419 286 415 q 283 429 283 423 q 286 456 283 441 q 289 484 289 472 q 287 498 289 494 q 277 503 284 503 q 239 474 259 495 q 199 424 219 452 q 162 361 180 395 q 130 295 144 328 q 108 232 116 262 q 100 183 100 203 q 104 161 100 169 q 114 153 108 153 q 129 161 119 153 q 152 184 139 170 q 180 217 165 199 q 208 252 194 235 q 233 286 222 270 q 252 311 245 301 q 276 351 269 337 q 292 366 283 366 q 301 360 295 366 q 314 348 308 355 q 326 333 321 340 q 330 322 330 326 q 321 295 330 313 q 297 240 313 278 q 271 164 279 199 q 262 102 262 129 q 264 83 262 92 q 269 65 265 73 q 278 53 272 58 q 294 47 284 47 q 328 61 311 47 q 361 94 345 74 q 391 138 377 115 q 416 182 406 161 q 434 218 427 203 q 441 235 440 233 q 454 245 447 245 q 462 243 458 245 q 465 235 465 240 q 463 225 465 231 q 437 167 452 197 q 405 109 422 137 q 368 57 387 81 q 328 17 348 33 q 254 -65 281 -22 q 228 -147 228 -109 q 241 -190 228 -172 q 286 -207 254 -207 q 315 -204 302 -207 q 339 -197 328 -201 q 357 -189 349 -193 q 368 -182 364 -184 q 373 -178 370 -180 q 379 -176 375 -176 q 385 -179 382 -176 q 387 -186 387 -182 q 374 -204 387 -193 q 340 -227 361 -216 q 293 -246 319 -238 q 240 -254 267 -254 z "},"":{"ha":627,"x_min":-72,"x_max":765,"o":"m 62 -436 q 10 -431 35 -436 q -33 -418 -14 -425 q -61 -401 -51 -410 q -72 -386 -72 -393 q -67 -373 -72 -380 q -57 -367 -62 -367 q -45 -372 -52 -367 q -26 -382 -38 -376 q 4 -393 -14 -388 q 49 -397 22 -397 q 94 -391 74 -397 q 128 -373 114 -384 q 150 -347 142 -361 q 158 -315 158 -332 q 143 -277 158 -294 q 93 -260 128 -260 q 63 -263 77 -260 q 41 -267 49 -267 q 35 -258 35 -267 q 42 -244 35 -257 q 61 -213 50 -231 q 83 -179 72 -196 q 102 -153 95 -162 q 2 -85 39 -140 q -35 72 -35 -30 q -15 233 -35 150 q 39 398 5 315 q 120 562 74 481 q 219 713 166 642 q 330 845 273 785 q 444 949 387 905 q 553 1018 500 994 q 650 1043 606 1043 q 706 1033 684 1043 q 742 1008 728 1023 q 760 972 755 992 q 765 932 765 952 q 755 865 765 896 q 730 809 745 834 q 695 766 714 785 q 658 734 676 747 q 624 714 640 721 q 599 708 608 708 q 586 710 589 708 q 582 724 582 712 q 597 764 585 744 q 623 807 609 784 q 647 859 636 830 q 657 924 657 887 q 655 944 657 933 q 650 963 654 954 q 640 978 646 972 q 623 983 633 983 q 557 958 593 983 q 480 889 520 933 q 398 784 439 844 q 317 654 356 724 q 243 508 278 585 q 183 353 209 431 q 142 201 157 276 q 127 60 127 126 q 131 13 127 35 q 144 -24 134 -8 q 169 -49 153 -40 q 211 -58 185 -58 q 273 -36 242 -58 q 332 19 304 -14 q 386 90 360 52 q 431 162 411 129 q 467 217 452 195 q 489 239 481 239 q 498 237 492 239 q 507 232 503 235 q 513 222 511 229 q 510 208 514 216 q 466 127 490 170 q 414 45 442 85 q 355 -32 387 5 q 290 -96 324 -68 q 220 -140 256 -124 q 146 -157 184 -157 l 135 -157 q 120 -176 129 -165 q 103 -199 112 -187 q 88 -220 95 -210 q 79 -235 81 -230 q 95 -232 85 -233 q 113 -231 105 -231 q 205 -253 172 -231 q 239 -315 239 -275 q 221 -373 239 -350 q 178 -411 204 -397 q 120 -430 151 -425 q 62 -436 90 -436 z "},"":{"ha":385,"x_min":-89,"x_max":397,"o":"m 46 -269 q -6 -264 18 -269 q -49 -251 -31 -259 q -78 -235 -67 -243 q -89 -220 -89 -227 q -84 -207 -89 -213 q -74 -200 -79 -200 q -61 -205 -68 -200 q -43 -215 -54 -210 q -13 -226 -31 -221 q 32 -231 5 -231 q 77 -224 57 -231 q 112 -207 98 -218 q 134 -180 126 -195 q 142 -149 142 -165 q 138 -128 142 -138 q 126 -110 134 -118 q 106 -98 119 -102 q 77 -93 94 -93 q 47 -96 61 -93 q 25 -100 33 -100 q 18 -92 18 -100 q 23 -81 18 -90 q 34 -59 27 -71 q 47 -33 41 -46 q 60 -11 54 -20 q -9 45 18 3 q -36 150 -36 87 q -24 234 -36 189 q 10 321 -12 278 q 60 405 31 365 q 123 475 90 445 q 195 524 157 506 q 269 542 232 542 q 316 521 301 542 q 332 464 332 500 q 319 410 332 435 q 289 367 307 385 q 255 338 272 349 q 228 328 237 328 q 220 335 220 328 q 224 346 220 338 q 236 373 230 358 q 248 401 243 387 q 256 429 253 416 q 260 453 260 443 q 240 475 260 475 q 209 463 226 475 q 175 429 193 450 q 142 379 158 408 q 114 317 126 351 q 94 247 101 283 q 86 174 86 210 q 92 127 86 150 q 107 88 97 105 q 135 60 118 71 q 174 49 151 49 q 234 65 205 49 q 290 106 264 81 q 337 166 316 132 q 374 235 359 199 q 379 243 376 240 q 386 245 382 245 q 394 243 391 245 q 397 235 397 241 q 397 231 397 233 q 395 225 396 229 q 354 147 380 190 q 291 67 328 104 q 208 5 254 31 q 109 -20 161 -20 q 100 -19 104 -20 q 92 -18 96 -18 q 75 -45 84 -31 q 62 -68 66 -60 q 78 -65 68 -66 q 96 -64 88 -64 q 189 -86 155 -64 q 222 -149 222 -108 q 205 -207 222 -183 q 161 -244 188 -230 q 104 -263 135 -258 q 46 -269 73 -269 z "},"":{"ha":627,"x_min":-35,"x_max":854,"o":"m 127 60 q 131 13 127 35 q 144 -24 134 -8 q 169 -49 153 -40 q 211 -58 185 -58 q 273 -36 242 -58 q 332 19 304 -14 q 386 90 360 52 q 431 162 411 129 q 467 217 452 195 q 489 239 481 239 q 498 237 492 239 q 507 232 503 235 q 513 222 511 229 q 510 208 514 216 q 466 127 490 170 q 414 45 442 85 q 355 -32 387 5 q 290 -96 324 -68 q 220 -140 256 -124 q 146 -157 184 -157 q 72 -143 105 -157 q 15 -102 39 -130 q -22 -31 -9 -74 q -35 72 -35 13 q -15 233 -35 150 q 39 398 5 315 q 120 562 74 481 q 219 713 166 642 q 330 845 273 785 q 444 949 387 905 q 553 1018 500 994 q 650 1043 606 1043 q 706 1033 684 1043 q 742 1008 728 1023 q 760 972 755 992 q 765 932 765 952 q 755 865 765 896 q 730 809 745 834 q 695 766 714 785 q 658 734 676 747 q 624 714 640 721 q 599 708 608 708 q 586 710 589 708 q 582 724 582 712 q 597 764 585 744 q 623 807 609 784 q 647 859 636 830 q 657 924 657 887 q 655 944 657 933 q 650 963 654 954 q 640 978 646 972 q 623 983 633 983 q 557 958 593 983 q 480 889 520 933 q 398 784 439 844 q 317 654 356 724 q 243 508 278 585 q 183 353 209 431 q 142 201 157 276 q 127 60 127 126 m 759 1305 q 771 1315 763 1312 q 789 1318 780 1318 q 812 1315 800 1318 q 833 1306 823 1312 q 848 1293 842 1301 q 854 1278 854 1286 q 850 1265 854 1272 q 835 1252 848 1262 q 803 1229 823 1242 q 760 1199 784 1215 q 710 1167 736 1183 q 659 1136 684 1151 q 611 1111 633 1122 q 597 1105 603 1107 q 587 1104 591 1104 q 574 1107 578 1104 q 570 1116 570 1111 q 578 1131 570 1122 q 631 1177 606 1156 q 679 1219 656 1198 q 721 1260 701 1239 q 759 1305 741 1281 z "},"":{"ha":385,"x_min":-36,"x_max":498,"o":"m 86 174 q 92 127 86 150 q 107 88 97 105 q 135 60 118 71 q 174 49 151 49 q 234 65 205 49 q 290 106 264 81 q 337 166 316 132 q 374 235 359 199 q 379 243 376 240 q 386 245 382 245 q 394 243 391 245 q 397 235 397 241 q 397 231 397 233 q 395 225 396 229 q 354 147 380 190 q 291 67 328 104 q 208 5 254 31 q 109 -20 161 -20 q 52 -8 78 -20 q 6 26 26 4 q -25 79 -14 47 q -36 150 -36 111 q -24 234 -36 189 q 10 321 -12 278 q 60 405 31 365 q 123 475 90 445 q 195 524 157 506 q 269 542 232 542 q 316 521 301 542 q 332 464 332 500 q 319 410 332 435 q 289 367 307 385 q 255 338 272 349 q 228 328 237 328 q 220 335 220 328 q 224 346 220 338 q 236 373 230 358 q 248 401 243 387 q 256 429 253 416 q 260 453 260 443 q 240 475 260 475 q 209 463 226 475 q 175 429 193 450 q 142 379 158 408 q 114 317 126 351 q 94 247 101 283 q 86 174 86 210 m 403 814 q 415 823 407 820 q 433 827 424 827 q 456 824 444 827 q 477 815 467 821 q 492 802 486 809 q 498 786 498 794 q 494 774 498 780 q 479 761 492 770 q 447 737 467 751 q 404 707 428 724 q 354 675 380 691 q 302 645 328 659 q 255 619 277 630 q 241 614 247 615 q 231 612 235 612 q 218 616 222 612 q 214 624 214 619 q 222 639 214 631 q 275 685 250 664 q 322 727 300 707 q 365 768 345 747 q 403 814 385 789 z "},"":{"ha":627,"x_min":-35,"x_max":838,"o":"m 127 60 q 131 13 127 35 q 144 -24 134 -8 q 169 -49 153 -40 q 211 -58 185 -58 q 273 -36 242 -58 q 332 19 304 -14 q 386 90 360 52 q 431 162 411 129 q 467 217 452 195 q 489 239 481 239 q 498 237 492 239 q 507 232 503 235 q 513 222 511 229 q 510 208 514 216 q 466 127 490 170 q 414 45 442 85 q 355 -32 387 5 q 290 -96 324 -68 q 220 -140 256 -124 q 146 -157 184 -157 q 72 -143 105 -157 q 15 -102 39 -130 q -22 -31 -9 -74 q -35 72 -35 13 q -15 233 -35 150 q 39 398 5 315 q 120 562 74 481 q 219 713 166 642 q 330 845 273 785 q 444 949 387 905 q 553 1018 500 994 q 650 1043 606 1043 q 706 1033 684 1043 q 742 1008 728 1023 q 760 972 755 992 q 765 932 765 952 q 755 865 765 896 q 730 809 745 834 q 695 766 714 785 q 658 734 676 747 q 624 714 640 721 q 599 708 608 708 q 586 710 589 708 q 582 724 582 712 q 597 764 585 744 q 623 807 609 784 q 647 859 636 830 q 657 924 657 887 q 655 944 657 933 q 650 963 654 954 q 640 978 646 972 q 623 983 633 983 q 557 958 593 983 q 480 889 520 933 q 398 784 439 844 q 317 654 356 724 q 243 508 278 585 q 183 353 209 431 q 142 201 157 276 q 127 60 127 126 m 836 1129 q 837 1127 836 1128 q 838 1125 838 1126 q 829 1109 838 1116 q 814 1103 821 1103 q 813 1102 812 1103 q 811 1102 813 1101 q 803 1108 809 1103 q 785 1126 798 1114 q 752 1160 772 1139 q 699 1217 731 1182 q 650 1183 679 1202 q 591 1146 621 1164 q 535 1116 562 1128 q 494 1104 509 1104 q 482 1107 486 1104 q 478 1116 478 1111 q 486 1131 478 1122 q 537 1175 514 1156 q 583 1213 561 1195 q 627 1250 605 1232 q 673 1293 648 1269 q 689 1310 682 1303 q 713 1317 696 1317 q 727 1314 719 1317 q 742 1305 734 1311 q 755 1292 749 1299 q 762 1274 760 1284 q 789 1220 777 1243 q 810 1180 801 1198 q 826 1151 819 1163 q 836 1129 832 1139 z "},"":{"ha":385,"x_min":-36,"x_max":482,"o":"m 86 174 q 92 127 86 150 q 107 88 97 105 q 135 60 118 71 q 174 49 151 49 q 234 65 205 49 q 290 106 264 81 q 337 166 316 132 q 374 235 359 199 q 379 243 376 240 q 386 245 382 245 q 394 243 391 245 q 397 235 397 241 q 397 231 397 233 q 395 225 396 229 q 354 147 380 190 q 291 67 328 104 q 208 5 254 31 q 109 -20 161 -20 q 52 -8 78 -20 q 6 26 26 4 q -25 79 -14 47 q -36 150 -36 111 q -24 234 -36 189 q 10 321 -12 278 q 60 405 31 365 q 123 475 90 445 q 195 524 157 506 q 269 542 232 542 q 316 521 301 542 q 332 464 332 500 q 319 410 332 435 q 289 367 307 385 q 255 338 272 349 q 228 328 237 328 q 220 335 220 328 q 224 346 220 338 q 236 373 230 358 q 248 401 243 387 q 256 429 253 416 q 260 453 260 443 q 240 475 260 475 q 209 463 226 475 q 175 429 193 450 q 142 379 158 408 q 114 317 126 351 q 94 247 101 283 q 86 174 86 210 m 481 637 q 481 635 481 636 q 482 633 482 635 q 474 618 482 625 q 458 611 465 611 q 457 610 457 611 q 456 610 458 609 q 448 616 454 611 q 430 634 442 622 q 396 669 417 647 q 343 725 376 690 q 295 691 323 711 q 236 654 266 672 q 180 625 206 637 q 139 612 153 612 q 127 616 131 612 q 123 624 123 619 q 131 639 123 631 q 182 684 159 664 q 228 722 205 703 q 271 759 250 740 q 317 802 293 777 q 334 818 327 811 q 357 825 340 825 q 371 822 363 825 q 387 813 379 819 q 399 800 394 808 q 406 782 405 792 q 433 729 421 751 q 455 689 446 706 q 470 659 464 671 q 481 637 477 647 z "},"":{"ha":627,"x_min":-35,"x_max":765,"o":"m 127 60 q 131 13 127 35 q 144 -24 134 -8 q 169 -49 153 -40 q 211 -58 185 -58 q 273 -36 242 -58 q 332 19 304 -14 q 386 90 360 52 q 431 162 411 129 q 467 217 452 195 q 489 239 481 239 q 498 237 492 239 q 507 232 503 235 q 513 222 511 229 q 510 208 514 216 q 466 127 490 170 q 414 45 442 85 q 355 -32 387 5 q 290 -96 324 -68 q 220 -140 256 -124 q 146 -157 184 -157 q 72 -143 105 -157 q 15 -102 39 -130 q -22 -31 -9 -74 q -35 72 -35 13 q -15 233 -35 150 q 39 398 5 315 q 120 562 74 481 q 219 713 166 642 q 330 845 273 785 q 444 949 387 905 q 553 1018 500 994 q 650 1043 606 1043 q 706 1033 684 1043 q 742 1008 728 1023 q 760 972 755 992 q 765 932 765 952 q 755 865 765 896 q 730 809 745 834 q 695 766 714 785 q 658 734 676 747 q 624 714 640 721 q 599 708 608 708 q 586 710 589 708 q 582 724 582 712 q 597 764 585 744 q 623 807 609 784 q 647 859 636 830 q 657 924 657 887 q 655 944 657 933 q 650 963 654 954 q 640 978 646 972 q 623 983 633 983 q 557 958 593 983 q 480 889 520 933 q 398 784 439 844 q 317 654 356 724 q 243 508 278 585 q 183 353 209 431 q 142 201 157 276 q 127 60 127 126 m 744 1208 q 739 1179 744 1193 q 726 1155 734 1165 q 704 1138 717 1144 q 673 1132 690 1132 q 657 1136 664 1132 q 645 1147 650 1141 q 637 1162 640 1154 q 635 1177 635 1170 q 655 1232 635 1212 q 708 1253 675 1253 q 723 1248 716 1253 q 734 1237 730 1244 q 742 1223 739 1230 q 744 1208 744 1215 z "},"":{"ha":385,"x_min":-36,"x_max":397,"o":"m 86 174 q 92 127 86 150 q 107 88 97 105 q 135 60 118 71 q 174 49 151 49 q 234 65 205 49 q 290 106 264 81 q 337 166 316 132 q 374 235 359 199 q 379 243 376 240 q 386 245 382 245 q 394 243 391 245 q 397 235 397 241 q 397 231 397 233 q 395 225 396 229 q 354 147 380 190 q 291 67 328 104 q 208 5 254 31 q 109 -20 161 -20 q 52 -8 78 -20 q 6 26 26 4 q -25 79 -14 47 q -36 150 -36 111 q -24 234 -36 189 q 10 321 -12 278 q 60 405 31 365 q 123 475 90 445 q 195 524 157 506 q 269 542 232 542 q 316 521 301 542 q 332 464 332 500 q 319 410 332 435 q 289 367 307 385 q 255 338 272 349 q 228 328 237 328 q 220 335 220 328 q 224 346 220 338 q 236 373 230 358 q 248 401 243 387 q 256 429 253 416 q 260 453 260 443 q 240 475 260 475 q 209 463 226 475 q 175 429 193 450 q 142 379 158 408 q 114 317 126 351 q 94 247 101 283 q 86 174 86 210 m 389 717 q 385 687 389 701 q 371 663 380 673 q 349 646 362 652 q 319 640 336 640 q 302 645 309 640 q 290 656 295 649 q 282 670 285 663 q 280 685 280 678 q 300 741 280 720 q 353 761 320 761 q 368 756 361 761 q 380 745 375 752 q 387 731 385 739 q 389 717 389 724 z "},"":{"ha":627,"x_min":-35,"x_max":884,"o":"m 127 60 q 131 13 127 35 q 144 -24 134 -8 q 169 -49 153 -40 q 211 -58 185 -58 q 273 -36 242 -58 q 332 19 304 -14 q 386 90 360 52 q 431 162 411 129 q 467 217 452 195 q 489 239 481 239 q 498 237 492 239 q 507 232 503 235 q 513 222 511 229 q 510 208 514 216 q 466 127 490 170 q 414 45 442 85 q 355 -32 387 5 q 290 -96 324 -68 q 220 -140 256 -124 q 146 -157 184 -157 q 72 -143 105 -157 q 15 -102 39 -130 q -22 -31 -9 -74 q -35 72 -35 13 q -15 233 -35 150 q 39 398 5 315 q 120 562 74 481 q 219 713 166 642 q 330 845 273 785 q 444 949 387 905 q 553 1018 500 994 q 650 1043 606 1043 q 706 1033 684 1043 q 742 1008 728 1023 q 760 972 755 992 q 765 932 765 952 q 755 865 765 896 q 730 809 745 834 q 695 766 714 785 q 658 734 676 747 q 624 714 640 721 q 599 708 608 708 q 586 710 589 708 q 582 724 582 712 q 597 764 585 744 q 623 807 609 784 q 647 859 636 830 q 657 924 657 887 q 655 944 657 933 q 650 963 654 954 q 640 978 646 972 q 623 983 633 983 q 557 958 593 983 q 480 889 520 933 q 398 784 439 844 q 317 654 356 724 q 243 508 278 585 q 183 353 209 431 q 142 201 157 276 q 127 60 127 126 m 525 1291 q 524 1295 524 1292 q 532 1309 524 1303 q 547 1315 541 1315 q 566 1301 552 1313 q 601 1267 578 1290 q 663 1204 624 1245 q 711 1237 682 1218 q 770 1273 741 1256 q 826 1303 800 1291 q 867 1315 852 1315 q 879 1312 875 1315 q 884 1303 884 1308 q 875 1289 884 1295 q 824 1244 847 1263 q 778 1206 800 1224 q 734 1169 756 1188 q 689 1126 713 1150 q 672 1110 680 1117 q 649 1103 665 1103 q 635 1106 643 1103 q 619 1115 627 1109 q 606 1128 612 1120 q 600 1146 601 1136 q 573 1199 585 1176 q 552 1239 561 1221 q 536 1269 543 1256 q 525 1291 529 1281 z "},"":{"ha":385,"x_min":-36,"x_max":529,"o":"m 86 174 q 92 127 86 150 q 107 88 97 105 q 135 60 118 71 q 174 49 151 49 q 234 65 205 49 q 290 106 264 81 q 337 166 316 132 q 374 235 359 199 q 379 243 376 240 q 386 245 382 245 q 394 243 391 245 q 397 235 397 241 q 397 231 397 233 q 395 225 396 229 q 354 147 380 190 q 291 67 328 104 q 208 5 254 31 q 109 -20 161 -20 q 52 -8 78 -20 q 6 26 26 4 q -25 79 -14 47 q -36 150 -36 111 q -24 234 -36 189 q 10 321 -12 278 q 60 405 31 365 q 123 475 90 445 q 195 524 157 506 q 269 542 232 542 q 316 521 301 542 q 332 464 332 500 q 319 410 332 435 q 289 367 307 385 q 255 338 272 349 q 228 328 237 328 q 220 335 220 328 q 224 346 220 338 q 236 373 230 358 q 248 401 243 387 q 256 429 253 416 q 260 453 260 443 q 240 475 260 475 q 209 463 226 475 q 175 429 193 450 q 142 379 158 408 q 114 317 126 351 q 94 247 101 283 q 86 174 86 210 m 170 799 q 169 803 169 800 q 178 817 169 811 q 193 823 186 823 q 212 809 197 821 q 246 776 223 798 q 308 713 269 753 q 357 745 328 726 q 416 782 386 764 q 472 811 446 799 q 512 823 498 823 q 525 820 520 823 q 529 811 529 817 q 520 798 529 804 q 469 752 492 772 q 424 714 446 732 q 380 677 401 696 q 334 635 358 659 q 318 618 325 625 q 294 611 311 611 q 280 614 288 611 q 264 623 272 617 q 252 636 257 629 q 245 654 246 644 q 218 707 230 684 q 197 747 206 730 q 181 777 188 764 q 170 799 174 789 z "},"":{"ha":914,"x_min":-84,"x_max":942,"o":"m 942 785 q 922 630 942 710 q 864 472 901 551 q 775 316 827 393 q 661 172 724 240 q 526 46 598 104 q 376 -53 454 -12 q 218 -118 299 -95 q 56 -142 136 -142 q 18 -141 37 -142 q -17 -139 -1 -140 q -45 -137 -33 -138 q -62 -135 -57 -136 q -79 -124 -73 -133 q -82 -106 -84 -115 q -66 -86 -78 -90 q -41 -82 -54 -82 q -11 -85 -31 -83 q 39 -87 10 -86 q 138 152 90 35 q 230 375 186 269 q 311 573 273 481 q 379 736 349 665 q 431 854 409 807 q 464 918 452 901 q 481 929 468 924 q 510 939 494 935 q 542 945 526 943 q 571 947 559 947 q 577 947 572 947 q 587 945 582 947 q 596 942 592 944 q 600 936 600 940 q 595 919 600 930 q 582 890 590 907 q 565 851 574 873 q 545 807 555 830 q 454 594 498 701 q 366 379 410 488 q 280 158 322 270 q 197 -71 238 46 q 356 7 280 -46 q 498 133 432 60 q 617 294 564 206 q 708 473 670 381 q 767 658 746 566 q 787 833 787 751 q 745 967 787 920 q 615 1014 702 1014 q 459 985 530 1014 q 338 905 389 956 q 260 781 288 853 q 232 624 232 709 q 229 601 232 610 q 215 591 227 591 q 179 598 196 591 q 150 618 163 605 q 131 649 138 631 q 123 689 123 667 q 145 788 123 740 q 205 877 167 836 q 294 954 243 919 q 402 1013 345 988 q 523 1052 460 1038 q 646 1065 585 1065 q 759 1049 705 1065 q 854 999 813 1033 q 918 911 895 964 q 942 785 942 858 m 518 1310 q 517 1314 517 1312 q 526 1329 517 1322 q 541 1335 534 1335 q 559 1320 545 1333 q 594 1287 571 1310 q 656 1224 617 1265 q 705 1257 675 1238 q 764 1293 734 1276 q 820 1322 793 1310 q 860 1335 846 1335 q 872 1331 868 1335 q 877 1322 877 1328 q 868 1309 877 1315 q 817 1263 840 1283 q 771 1226 793 1244 q 728 1189 749 1208 q 682 1146 706 1170 q 666 1129 673 1137 q 642 1122 659 1122 q 628 1125 636 1122 q 612 1134 620 1128 q 600 1148 605 1140 q 593 1166 594 1156 q 566 1218 578 1196 q 545 1258 554 1241 q 529 1288 536 1276 q 518 1310 522 1301 z "},"":{"ha":633,"x_min":-53,"x_max":847,"o":"m 657 1008 q 662 990 661 1003 q 664 961 664 978 q 654 893 664 929 q 627 817 645 858 q 583 729 609 776 q 525 627 557 682 q 430 465 475 543 q 351 319 385 387 q 296 192 316 250 q 275 90 275 134 q 282 63 275 73 q 306 53 288 53 q 352 70 329 53 q 396 113 375 87 q 435 172 416 140 q 468 235 454 204 q 481 245 473 245 q 488 243 485 245 q 492 235 492 240 q 489 225 492 231 q 467 178 479 204 q 438 126 454 153 q 403 75 422 100 q 362 31 384 50 q 317 0 341 12 q 268 -12 294 -12 q 218 7 238 -12 q 199 77 199 27 q 200 105 199 90 q 204 136 201 121 q 164 81 185 108 q 120 34 142 55 q 74 0 97 13 q 28 -12 50 -12 q 2 -6 16 -12 q -24 13 -12 -1 q -45 48 -37 26 q -53 103 -53 71 q -36 195 -53 142 q 26 315 -18 248 q 96 397 55 357 q 181 468 137 437 q 265 519 224 500 q 334 538 306 538 q 339 536 336 538 q 346 532 342 534 q 456 761 396 650 q 587 964 515 871 q 621 999 604 985 q 648 1013 638 1013 q 657 1008 655 1013 m 296 404 q 311 446 303 425 q 328 488 319 467 q 299 475 315 483 q 264 454 283 467 q 222 422 244 441 q 175 378 199 404 q 94 264 125 325 q 62 144 62 203 q 72 109 62 117 q 93 100 81 100 q 124 111 107 100 q 159 141 141 122 q 196 185 177 159 q 233 239 215 210 q 266 328 249 285 q 296 404 283 372 m 801 1009 q 826 1016 817 1016 q 840 1011 836 1016 q 846 998 845 1006 q 847 981 847 990 q 838 943 847 964 q 815 899 829 922 q 784 856 801 877 q 751 817 767 834 q 723 790 736 800 q 705 780 711 780 q 697 784 697 780 q 704 809 697 790 q 721 854 711 829 q 739 908 730 880 q 750 962 747 937 q 756 983 751 976 q 768 995 762 991 q 784 1002 775 1000 q 801 1009 792 1005 z "},"":{"ha":914,"x_min":-84,"x_max":942,"o":"m 228 370 q 310 569 271 477 q 378 734 348 662 q 431 853 409 806 q 464 918 452 901 q 481 929 468 924 q 510 939 494 935 q 542 945 526 943 q 571 947 559 947 q 577 947 572 947 q 587 945 582 947 q 596 942 592 944 q 600 936 600 940 q 595 919 600 930 q 582 890 590 907 q 565 851 574 873 q 545 807 555 830 q 456 598 500 702 q 370 387 412 494 l 514 406 q 535 401 530 406 q 539 387 541 395 q 531 368 538 378 q 515 349 524 358 q 497 335 507 340 q 481 330 488 330 q 413 327 447 328 q 345 323 379 326 q 270 130 307 227 q 197 -71 233 32 q 356 7 280 -46 q 498 133 432 60 q 617 294 564 206 q 708 473 670 381 q 767 658 746 566 q 787 833 787 751 q 745 967 787 920 q 615 1014 702 1014 q 459 985 530 1014 q 338 905 389 956 q 260 781 288 853 q 232 624 232 709 q 229 601 232 610 q 215 591 227 591 q 179 598 196 591 q 150 618 163 605 q 131 649 138 631 q 123 689 123 667 q 145 788 123 740 q 205 877 167 836 q 294 954 243 919 q 402 1013 345 988 q 523 1052 460 1038 q 646 1065 585 1065 q 759 1049 705 1065 q 854 999 813 1033 q 918 911 895 964 q 942 785 942 858 q 922 630 942 710 q 864 472 901 551 q 775 316 827 393 q 661 172 724 240 q 526 46 598 104 q 376 -53 454 -12 q 218 -118 299 -95 q 56 -142 136 -142 q 18 -141 37 -142 q -17 -139 -1 -140 q -45 -137 -33 -138 q -62 -135 -57 -136 q -79 -124 -73 -133 q -82 -106 -84 -115 q -66 -86 -78 -90 q -41 -82 -54 -82 q -11 -85 -31 -83 q 39 -87 10 -86 q 124 118 83 18 q 204 313 165 218 q 155 309 177 311 q 116 305 132 307 q 82 302 97 303 q 75 309 75 302 q 77 314 74 311 q 83 321 79 317 l 92 340 q 116 354 105 352 q 142 358 127 357 l 228 370 z "},"":{"ha":421,"x_min":-50,"x_max":414,"o":"m 114 715 q 160 753 136 734 q 211 789 185 771 q 173 837 193 814 q 126 886 152 861 q 118 895 120 892 q 117 901 117 899 q 118 907 117 904 q 119 914 119 910 q 122 919 119 918 q 129 917 125 919 q 137 913 133 916 q 143 908 141 910 q 190 866 165 890 q 240 810 215 841 q 294 846 269 829 q 339 874 319 862 q 382 900 361 888 q 402 906 395 908 q 411 898 409 905 q 412 880 414 890 q 406 858 410 869 q 395 839 401 847 q 383 828 389 830 q 331 803 360 819 q 272 768 302 787 q 311 704 292 739 q 342 632 329 670 q 364 554 356 595 q 372 471 372 513 q 362 368 372 422 q 334 261 353 314 q 289 160 315 208 q 227 75 262 112 q 151 16 193 38 q 61 -5 109 -5 q 13 4 34 -5 q -22 31 -7 14 q -43 71 -36 47 q -50 122 -50 94 q -33 225 -50 176 q 12 316 -16 274 q 77 393 41 359 q 153 453 114 427 q 231 493 192 478 q 301 513 269 509 q 282 639 297 583 q 237 747 267 696 q 179 711 207 729 q 130 679 152 693 q 83 647 105 662 q 74 648 77 643 q 72 654 71 650 q 75 664 73 659 l 79 675 q 93 699 85 692 q 114 715 101 707 m 111 57 q 157 77 134 57 q 202 129 180 96 q 241 202 223 161 q 273 286 260 243 q 294 369 286 328 q 302 443 302 410 l 302 467 q 278 459 294 465 q 242 443 262 454 q 197 411 222 431 q 147 361 173 391 q 111 310 127 338 q 81 251 94 281 q 61 191 68 221 q 54 134 54 161 q 71 77 54 98 q 111 57 88 57 z "},"":{"ha":914,"x_min":-84,"x_max":942,"o":"m 228 370 q 310 569 271 477 q 378 734 348 662 q 431 853 409 806 q 464 918 452 901 q 481 929 468 924 q 510 939 494 935 q 542 945 526 943 q 571 947 559 947 q 577 947 572 947 q 587 945 582 947 q 596 942 592 944 q 600 936 600 940 q 595 919 600 930 q 582 890 590 907 q 565 851 574 873 q 545 807 555 830 q 456 598 500 702 q 370 387 412 494 l 514 406 q 535 401 530 406 q 539 387 541 395 q 531 368 538 378 q 515 349 524 358 q 497 335 507 340 q 481 330 488 330 q 413 327 447 328 q 345 323 379 326 q 270 130 307 227 q 197 -71 233 32 q 356 7 280 -46 q 498 133 432 60 q 617 294 564 206 q 708 473 670 381 q 767 658 746 566 q 787 833 787 751 q 745 967 787 920 q 615 1014 702 1014 q 459 985 530 1014 q 338 905 389 956 q 260 781 288 853 q 232 624 232 709 q 229 601 232 610 q 215 591 227 591 q 179 598 196 591 q 150 618 163 605 q 131 649 138 631 q 123 689 123 667 q 145 788 123 740 q 205 877 167 836 q 294 954 243 919 q 402 1013 345 988 q 523 1052 460 1038 q 646 1065 585 1065 q 759 1049 705 1065 q 854 999 813 1033 q 918 911 895 964 q 942 785 942 858 q 922 630 942 710 q 864 472 901 551 q 775 316 827 393 q 661 172 724 240 q 526 46 598 104 q 376 -53 454 -12 q 218 -118 299 -95 q 56 -142 136 -142 q 18 -141 37 -142 q -17 -139 -1 -140 q -45 -137 -33 -138 q -62 -135 -57 -136 q -79 -124 -73 -133 q -82 -106 -84 -115 q -66 -86 -78 -90 q -41 -82 -54 -82 q -11 -85 -31 -83 q 39 -87 10 -86 q 124 118 83 18 q 204 313 165 218 q 155 309 177 311 q 116 305 132 307 q 82 302 97 303 q 75 309 75 302 q 77 314 74 311 q 83 321 79 317 l 92 340 q 116 354 105 352 q 142 358 127 357 l 228 370 z "},"":{"ha":481,"x_min":-53,"x_max":690,"o":"m 450 751 q 516 862 481 809 q 587 964 550 916 q 621 999 604 985 q 648 1013 638 1013 q 657 1008 655 1013 q 662 990 661 1003 q 664 961 664 978 q 647 870 664 919 q 600 761 631 821 l 664 766 q 685 761 680 766 q 689 749 690 756 q 680 733 687 741 q 664 717 673 724 q 645 706 654 710 q 628 703 635 701 l 568 701 q 548 665 559 684 q 525 627 536 646 q 430 465 475 543 q 351 319 385 387 q 296 192 316 250 q 275 90 275 134 q 282 63 275 73 q 306 53 288 53 q 352 70 329 53 q 396 113 375 87 q 435 172 416 140 q 468 235 454 204 q 481 245 473 245 q 488 243 485 245 q 492 235 492 240 q 489 225 492 231 q 467 178 479 204 q 438 126 454 153 q 403 75 422 100 q 362 31 384 50 q 317 0 341 12 q 268 -12 294 -12 q 218 7 238 -12 q 199 77 199 27 q 200 105 199 90 q 204 136 201 121 q 164 81 185 108 q 120 34 142 55 q 74 0 97 13 q 28 -12 50 -12 q 2 -6 16 -12 q -24 13 -12 -1 q -45 48 -37 26 q -53 103 -53 71 q -36 195 -53 142 q 26 315 -18 248 q 96 397 55 357 q 181 468 137 437 q 265 519 224 500 q 334 538 306 538 q 339 536 336 538 q 346 532 342 534 q 385 617 365 574 q 425 701 404 659 l 278 700 q 271 705 271 700 q 272 711 269 707 q 279 718 275 715 l 289 726 q 302 735 296 732 q 314 740 308 739 q 326 742 319 742 q 339 743 332 743 l 450 751 m 296 404 q 311 446 303 425 q 328 488 319 467 q 299 475 315 483 q 264 454 283 467 q 222 422 244 441 q 175 378 199 404 q 94 264 125 325 q 62 144 62 203 q 72 109 62 117 q 93 100 81 100 q 124 111 107 100 q 159 141 141 122 q 196 185 177 159 q 233 239 215 210 q 266 328 249 285 q 296 404 283 372 z "},"":{"ha":596,"x_min":-78,"x_max":741,"o":"m 106 -157 q 32 -144 66 -157 q -26 -107 -2 -132 q -64 -49 -51 -83 q -78 29 -78 -15 q -51 161 -78 96 q 22 281 -24 226 q 129 379 68 336 q 260 446 191 422 q 219 469 238 454 q 186 504 200 484 q 164 549 172 524 q 157 604 157 574 q 173 715 157 659 q 219 824 190 772 q 288 921 248 876 q 375 1000 328 966 q 475 1053 422 1034 q 581 1072 527 1072 q 639 1066 610 1072 q 690 1043 668 1059 q 727 997 713 1026 q 741 924 741 968 q 726 857 741 889 q 687 801 711 825 q 635 761 664 776 q 581 746 607 746 q 572 750 576 746 q 568 760 568 753 q 575 788 568 771 q 590 825 582 804 q 606 869 599 846 q 612 918 612 893 q 592 989 612 962 q 534 1015 572 1015 q 465 995 497 1015 q 408 942 433 975 q 362 868 382 909 q 329 786 342 827 q 309 708 316 745 q 302 646 302 671 q 309 577 302 605 q 326 530 316 549 q 348 500 336 511 q 370 481 359 488 q 387 470 380 474 q 393 460 393 465 q 385 435 393 446 q 361 422 376 425 q 247 367 298 405 q 158 277 195 329 q 101 165 121 226 q 81 43 81 104 q 89 -5 81 14 q 109 -37 96 -25 q 139 -54 122 -49 q 176 -60 157 -60 q 250 -43 218 -60 q 306 -3 281 -27 q 347 49 330 21 q 378 101 365 77 q 400 142 391 125 q 418 158 410 158 q 433 154 425 158 q 441 139 441 149 q 441 134 441 137 q 439 127 440 131 q 381 21 413 73 q 309 -70 349 -30 q 219 -133 269 -109 q 106 -157 169 -157 m 710 1158 q 712 1154 711 1156 q 713 1149 713 1152 q 707 1135 713 1141 q 696 1128 701 1128 q 690 1131 692 1128 q 636 1177 665 1155 q 579 1218 611 1197 q 511 1254 547 1238 q 493 1278 493 1263 q 499 1297 493 1287 q 515 1316 506 1308 q 536 1331 525 1325 q 558 1336 548 1336 q 575 1331 568 1336 q 622 1283 600 1309 q 661 1233 644 1257 q 691 1189 678 1209 q 710 1158 703 1169 z "},"":{"ha":358,"x_min":-47,"x_max":382,"o":"m 370 225 q 313 130 345 175 q 242 52 280 85 q 163 -1 205 18 q 79 -21 121 -21 q 25 -8 49 -21 q -15 26 1 4 q -39 77 -31 47 q -47 139 -47 106 q -33 245 -47 194 q 7 340 -18 296 q 62 420 31 384 q 125 483 94 457 q 188 524 157 509 q 240 538 218 538 q 270 531 257 538 q 292 513 283 524 q 306 488 301 502 q 310 461 310 475 q 288 375 310 420 q 231 291 267 331 q 152 220 196 252 q 62 174 108 189 q 67 126 62 149 q 83 88 73 104 q 110 61 94 71 q 149 52 126 52 q 194 61 171 52 q 242 91 217 70 q 293 148 267 113 q 349 235 319 183 q 361 245 355 245 q 369 243 366 245 q 372 235 372 240 q 370 225 372 231 m 218 460 q 175 437 199 460 q 128 377 151 414 q 88 297 106 341 q 64 210 70 252 q 130 249 97 225 q 189 300 163 272 q 231 361 215 329 q 248 427 248 393 q 240 450 248 440 q 218 460 233 460 m 380 637 q 382 633 381 635 q 382 628 382 631 q 377 614 382 621 q 366 607 371 607 q 360 610 361 607 q 306 656 335 634 q 249 697 281 676 q 181 733 216 718 q 163 757 163 742 q 169 777 163 766 q 185 795 176 787 q 206 810 195 804 q 228 815 218 815 q 245 810 237 815 q 292 762 270 788 q 331 712 313 736 q 360 668 348 688 q 380 637 373 648 z "},"":{"ha":596,"x_min":-78,"x_max":795,"o":"m 106 -157 q 32 -144 66 -157 q -26 -107 -2 -132 q -64 -49 -51 -83 q -78 29 -78 -15 q -51 161 -78 96 q 22 281 -24 226 q 129 379 68 336 q 260 446 191 422 q 219 469 238 454 q 186 504 200 484 q 164 549 172 524 q 157 604 157 574 q 173 715 157 659 q 219 824 190 772 q 288 921 248 876 q 375 1000 328 966 q 475 1053 422 1034 q 581 1072 527 1072 q 639 1066 610 1072 q 690 1043 668 1059 q 727 997 713 1026 q 741 924 741 968 q 726 857 741 889 q 687 801 711 825 q 635 761 664 776 q 581 746 607 746 q 572 750 576 746 q 568 760 568 753 q 575 788 568 771 q 590 825 582 804 q 606 869 599 846 q 612 918 612 893 q 592 989 612 962 q 534 1015 572 1015 q 465 995 497 1015 q 408 942 433 975 q 362 868 382 909 q 329 786 342 827 q 309 708 316 745 q 302 646 302 671 q 309 577 302 605 q 326 530 316 549 q 348 500 336 511 q 370 481 359 488 q 387 470 380 474 q 393 460 393 465 q 385 435 393 446 q 361 422 376 425 q 247 367 298 405 q 158 277 195 329 q 101 165 121 226 q 81 43 81 104 q 89 -5 81 14 q 109 -37 96 -25 q 139 -54 122 -49 q 176 -60 157 -60 q 250 -43 218 -60 q 306 -3 281 -27 q 347 49 330 21 q 378 101 365 77 q 400 142 391 125 q 418 158 410 158 q 433 154 425 158 q 441 139 441 149 q 441 134 441 137 q 439 127 440 131 q 381 21 413 73 q 309 -70 349 -30 q 219 -133 269 -109 q 106 -157 169 -157 m 699 1331 q 712 1340 703 1337 q 730 1343 720 1343 q 752 1340 741 1343 q 773 1332 764 1337 q 789 1318 783 1326 q 795 1303 795 1311 q 791 1291 795 1297 q 775 1277 788 1287 q 744 1254 763 1267 q 700 1224 724 1240 q 650 1192 676 1208 q 599 1161 625 1176 q 551 1136 573 1147 q 537 1131 543 1132 q 527 1129 531 1129 q 514 1133 518 1129 q 510 1141 510 1136 q 518 1156 510 1147 q 571 1202 546 1181 q 619 1244 596 1223 q 662 1285 642 1264 q 699 1331 682 1306 z "},"":{"ha":358,"x_min":-47,"x_max":465,"o":"m 370 225 q 313 130 345 175 q 242 52 280 85 q 163 -1 205 18 q 79 -21 121 -21 q 25 -8 49 -21 q -15 26 1 4 q -39 77 -31 47 q -47 139 -47 106 q -33 245 -47 194 q 7 340 -18 296 q 62 420 31 384 q 125 483 94 457 q 188 524 157 509 q 240 538 218 538 q 270 531 257 538 q 292 513 283 524 q 306 488 301 502 q 310 461 310 475 q 288 375 310 420 q 231 291 267 331 q 152 220 196 252 q 62 174 108 189 q 67 126 62 149 q 83 88 73 104 q 110 61 94 71 q 149 52 126 52 q 194 61 171 52 q 242 91 217 70 q 293 148 267 113 q 349 235 319 183 q 361 245 355 245 q 369 243 366 245 q 372 235 372 240 q 370 225 372 231 m 218 460 q 175 437 199 460 q 128 377 151 414 q 88 297 106 341 q 64 210 70 252 q 130 249 97 225 q 189 300 163 272 q 231 361 215 329 q 248 427 248 393 q 240 450 248 440 q 218 460 233 460 m 369 810 q 381 819 373 816 q 399 823 390 823 q 422 820 410 823 q 443 811 433 817 q 458 798 452 805 q 465 782 465 790 q 460 770 465 776 q 445 756 458 766 q 413 733 433 747 q 370 703 394 720 q 320 671 346 687 q 269 641 294 655 q 221 615 243 626 q 207 610 213 611 q 197 608 201 608 q 184 612 188 608 q 180 620 180 615 q 188 635 180 627 q 241 681 216 660 q 289 723 266 703 q 331 764 311 743 q 369 810 351 785 z "},"":{"ha":596,"x_min":-78,"x_max":778,"o":"m 106 -157 q 32 -144 66 -157 q -26 -107 -2 -132 q -64 -49 -51 -83 q -78 29 -78 -15 q -51 161 -78 96 q 22 281 -24 226 q 129 379 68 336 q 260 446 191 422 q 219 469 238 454 q 186 504 200 484 q 164 549 172 524 q 157 604 157 574 q 173 715 157 659 q 219 824 190 772 q 288 921 248 876 q 375 1000 328 966 q 475 1053 422 1034 q 581 1072 527 1072 q 639 1066 610 1072 q 690 1043 668 1059 q 727 997 713 1026 q 741 924 741 968 q 726 857 741 889 q 687 801 711 825 q 635 761 664 776 q 581 746 607 746 q 572 750 576 746 q 568 760 568 753 q 575 788 568 771 q 590 825 582 804 q 606 869 599 846 q 612 918 612 893 q 592 989 612 962 q 534 1015 572 1015 q 465 995 497 1015 q 408 942 433 975 q 362 868 382 909 q 329 786 342 827 q 309 708 316 745 q 302 646 302 671 q 309 577 302 605 q 326 530 316 549 q 348 500 336 511 q 370 481 359 488 q 387 470 380 474 q 393 460 393 465 q 385 435 393 446 q 361 422 376 425 q 247 367 298 405 q 158 277 195 329 q 101 165 121 226 q 81 43 81 104 q 89 -5 81 14 q 109 -37 96 -25 q 139 -54 122 -49 q 176 -60 157 -60 q 250 -43 218 -60 q 306 -3 281 -27 q 347 49 330 21 q 378 101 365 77 q 400 142 391 125 q 418 158 410 158 q 433 154 425 158 q 441 139 441 149 q 441 134 441 137 q 439 127 440 131 q 381 21 413 73 q 309 -70 349 -30 q 219 -133 269 -109 q 106 -157 169 -157 m 777 1154 q 777 1152 777 1153 q 778 1150 778 1152 q 769 1135 778 1141 q 754 1128 761 1128 q 753 1127 753 1128 q 751 1127 753 1126 q 744 1133 749 1128 q 725 1151 738 1139 q 692 1185 713 1164 q 639 1242 671 1207 q 590 1208 619 1227 q 532 1171 562 1189 q 475 1141 502 1154 q 435 1129 449 1129 q 422 1133 427 1129 q 418 1141 418 1136 q 427 1156 418 1147 q 478 1200 454 1181 q 523 1238 501 1220 q 567 1275 545 1257 q 613 1318 589 1294 q 629 1335 623 1328 q 653 1342 636 1342 q 667 1339 659 1342 q 682 1330 675 1336 q 695 1317 690 1324 q 702 1299 701 1309 q 729 1245 717 1268 q 750 1205 741 1223 q 766 1176 760 1188 q 777 1154 772 1164 z "},"":{"ha":358,"x_min":-47,"x_max":448,"o":"m 370 225 q 313 130 345 175 q 242 52 280 85 q 163 -1 205 18 q 79 -21 121 -21 q 25 -8 49 -21 q -15 26 1 4 q -39 77 -31 47 q -47 139 -47 106 q -33 245 -47 194 q 7 340 -18 296 q 62 420 31 384 q 125 483 94 457 q 188 524 157 509 q 240 538 218 538 q 270 531 257 538 q 292 513 283 524 q 306 488 301 502 q 310 461 310 475 q 288 375 310 420 q 231 291 267 331 q 152 220 196 252 q 62 174 108 189 q 67 126 62 149 q 83 88 73 104 q 110 61 94 71 q 149 52 126 52 q 194 61 171 52 q 242 91 217 70 q 293 148 267 113 q 349 235 319 183 q 361 245 355 245 q 369 243 366 245 q 372 235 372 240 q 370 225 372 231 m 218 460 q 175 437 199 460 q 128 377 151 414 q 88 297 106 341 q 64 210 70 252 q 130 249 97 225 q 189 300 163 272 q 231 361 215 329 q 248 427 248 393 q 240 450 248 440 q 218 460 233 460 m 446 633 q 447 631 446 632 q 448 629 448 631 q 439 614 448 621 q 424 607 431 607 q 423 606 422 607 q 421 606 423 605 q 413 612 419 607 q 395 630 408 618 q 362 665 382 643 q 309 721 341 686 q 260 687 289 707 q 201 650 231 668 q 145 621 172 633 q 104 608 119 608 q 92 612 96 608 q 88 620 88 615 q 96 635 88 627 q 148 680 124 660 q 193 718 171 699 q 237 754 215 736 q 283 798 258 773 q 299 814 292 807 q 323 821 306 821 q 337 818 329 821 q 352 809 345 815 q 365 796 359 804 q 372 778 370 788 q 399 725 387 747 q 420 685 411 702 q 436 655 429 667 q 446 633 442 643 z "},"":{"ha":596,"x_min":-78,"x_max":768,"o":"m 106 -157 q 32 -144 66 -157 q -26 -107 -2 -132 q -64 -49 -51 -83 q -78 29 -78 -15 q -51 161 -78 96 q 22 281 -24 226 q 129 379 68 336 q 260 446 191 422 q 219 469 238 454 q 186 504 200 484 q 164 549 172 524 q 157 604 157 574 q 173 715 157 659 q 219 824 190 772 q 288 921 248 876 q 375 1000 328 966 q 475 1053 422 1034 q 581 1072 527 1072 q 639 1066 610 1072 q 690 1043 668 1059 q 727 997 713 1026 q 741 924 741 968 q 726 857 741 889 q 687 801 711 825 q 635 761 664 776 q 581 746 607 746 q 572 750 576 746 q 568 760 568 753 q 575 788 568 771 q 590 825 582 804 q 606 869 599 846 q 612 918 612 893 q 592 989 612 962 q 534 1015 572 1015 q 465 995 497 1015 q 408 942 433 975 q 362 868 382 909 q 329 786 342 827 q 309 708 316 745 q 302 646 302 671 q 309 577 302 605 q 326 530 316 549 q 348 500 336 511 q 370 481 359 488 q 387 470 380 474 q 393 460 393 465 q 385 435 393 446 q 361 422 376 425 q 247 367 298 405 q 158 277 195 329 q 101 165 121 226 q 81 43 81 104 q 89 -5 81 14 q 109 -37 96 -25 q 139 -54 122 -49 q 176 -60 157 -60 q 250 -43 218 -60 q 306 -3 281 -27 q 347 49 330 21 q 378 101 365 77 q 400 142 391 125 q 418 158 410 158 q 433 154 425 158 q 441 139 441 149 q 441 134 441 137 q 439 127 440 131 q 381 21 413 73 q 309 -70 349 -30 q 219 -133 269 -109 q 106 -157 169 -157 m 574 1225 q 558 1177 574 1196 q 511 1157 542 1157 q 497 1161 503 1157 q 486 1171 490 1165 q 479 1183 481 1177 q 477 1196 477 1190 q 495 1246 477 1227 q 542 1264 513 1264 q 555 1260 549 1264 q 565 1250 561 1256 q 571 1238 569 1244 q 574 1225 574 1231 m 768 1225 q 752 1177 768 1196 q 706 1157 736 1157 q 691 1161 698 1157 q 680 1171 684 1165 q 673 1183 675 1177 q 671 1196 671 1190 q 689 1246 671 1227 q 736 1264 707 1264 q 749 1260 743 1264 q 760 1250 755 1256 q 766 1238 764 1244 q 768 1225 768 1231 z "},"":{"ha":358,"x_min":-47,"x_max":438,"o":"m 370 225 q 313 130 345 175 q 242 52 280 85 q 163 -1 205 18 q 79 -21 121 -21 q 25 -8 49 -21 q -15 26 1 4 q -39 77 -31 47 q -47 139 -47 106 q -33 245 -47 194 q 7 340 -18 296 q 62 420 31 384 q 125 483 94 457 q 188 524 157 509 q 240 538 218 538 q 270 531 257 538 q 292 513 283 524 q 306 488 301 502 q 310 461 310 475 q 288 375 310 420 q 231 291 267 331 q 152 220 196 252 q 62 174 108 189 q 67 126 62 149 q 83 88 73 104 q 110 61 94 71 q 149 52 126 52 q 194 61 171 52 q 242 91 217 70 q 293 148 267 113 q 349 235 319 183 q 361 245 355 245 q 369 243 366 245 q 372 235 372 240 q 370 225 372 231 m 218 460 q 175 437 199 460 q 128 377 151 414 q 88 297 106 341 q 64 210 70 252 q 130 249 97 225 q 189 300 163 272 q 231 361 215 329 q 248 427 248 393 q 240 450 248 440 q 218 460 233 460 m 243 704 q 228 656 243 675 q 181 636 212 636 q 166 640 173 636 q 156 650 160 644 q 149 663 151 656 q 146 675 146 669 q 164 725 146 707 q 212 743 182 743 q 225 739 219 743 q 235 729 231 735 q 241 717 239 724 q 243 704 243 710 m 438 704 q 422 656 438 675 q 376 636 406 636 q 361 640 368 636 q 350 650 354 644 q 343 663 345 656 q 340 675 340 669 q 358 725 340 707 q 406 743 376 743 q 419 739 413 743 q 429 729 425 735 q 436 717 433 724 q 438 704 438 710 z "},"":{"ha":596,"x_min":-78,"x_max":812,"o":"m 106 -157 q 32 -144 66 -157 q -26 -107 -2 -132 q -64 -49 -51 -83 q -78 29 -78 -15 q -51 161 -78 96 q 22 281 -24 226 q 129 379 68 336 q 260 446 191 422 q 219 469 238 454 q 186 504 200 484 q 164 549 172 524 q 157 604 157 574 q 173 715 157 659 q 219 824 190 772 q 288 921 248 876 q 375 1000 328 966 q 475 1053 422 1034 q 581 1072 527 1072 q 639 1066 610 1072 q 690 1043 668 1059 q 727 997 713 1026 q 741 924 741 968 q 726 857 741 889 q 687 801 711 825 q 635 761 664 776 q 581 746 607 746 q 572 750 576 746 q 568 760 568 753 q 575 788 568 771 q 590 825 582 804 q 606 869 599 846 q 612 918 612 893 q 592 989 612 962 q 534 1015 572 1015 q 465 995 497 1015 q 408 942 433 975 q 362 868 382 909 q 329 786 342 827 q 309 708 316 745 q 302 646 302 671 q 309 577 302 605 q 326 530 316 549 q 348 500 336 511 q 370 481 359 488 q 387 470 380 474 q 393 460 393 465 q 385 435 393 446 q 361 422 376 425 q 247 367 298 405 q 158 277 195 329 q 101 165 121 226 q 81 43 81 104 q 89 -5 81 14 q 109 -37 96 -25 q 139 -54 122 -49 q 176 -60 157 -60 q 250 -43 218 -60 q 306 -3 281 -27 q 347 49 330 21 q 378 101 365 77 q 400 142 391 125 q 418 158 410 158 q 433 154 425 158 q 441 139 441 149 q 441 134 441 137 q 439 127 440 131 q 381 21 413 73 q 309 -70 349 -30 q 219 -133 269 -109 q 106 -157 169 -157 m 787 1272 q 806 1268 800 1272 q 812 1257 812 1263 q 805 1240 812 1249 q 788 1222 798 1230 q 768 1210 779 1215 q 750 1204 758 1204 l 470 1202 q 463 1208 463 1202 q 466 1218 463 1211 q 481 1247 469 1226 q 489 1257 484 1253 q 502 1261 495 1260 q 517 1263 509 1263 q 531 1264 524 1263 l 787 1272 z "},"":{"ha":358,"x_min":-47,"x_max":481,"o":"m 370 225 q 313 130 345 175 q 242 52 280 85 q 163 -1 205 18 q 79 -21 121 -21 q 25 -8 49 -21 q -15 26 1 4 q -39 77 -31 47 q -47 139 -47 106 q -33 245 -47 194 q 7 340 -18 296 q 62 420 31 384 q 125 483 94 457 q 188 524 157 509 q 240 538 218 538 q 270 531 257 538 q 292 513 283 524 q 306 488 301 502 q 310 461 310 475 q 288 375 310 420 q 231 291 267 331 q 152 220 196 252 q 62 174 108 189 q 67 126 62 149 q 83 88 73 104 q 110 61 94 71 q 149 52 126 52 q 194 61 171 52 q 242 91 217 70 q 293 148 267 113 q 349 235 319 183 q 361 245 355 245 q 369 243 366 245 q 372 235 372 240 q 370 225 372 231 m 218 460 q 175 437 199 460 q 128 377 151 414 q 88 297 106 341 q 64 210 70 252 q 130 249 97 225 q 189 300 163 272 q 231 361 215 329 q 248 427 248 393 q 240 450 248 440 q 218 460 233 460 m 456 751 q 476 747 470 751 q 481 736 481 743 q 475 719 481 728 q 458 702 468 709 q 438 689 448 694 q 420 684 427 684 l 140 681 q 132 688 132 681 q 136 697 132 690 q 151 726 139 705 q 159 736 153 732 q 172 741 165 739 q 186 742 179 742 q 201 743 194 743 l 456 751 z "},"":{"ha":596,"x_min":-78,"x_max":827,"o":"m 106 -157 q 32 -144 66 -157 q -26 -107 -2 -132 q -64 -49 -51 -83 q -78 29 -78 -15 q -51 161 -78 96 q 22 281 -24 226 q 129 379 68 336 q 260 446 191 422 q 219 469 238 454 q 186 504 200 484 q 164 549 172 524 q 157 604 157 574 q 173 715 157 659 q 219 824 190 772 q 288 921 248 876 q 375 1000 328 966 q 475 1053 422 1034 q 581 1072 527 1072 q 639 1066 610 1072 q 690 1043 668 1059 q 727 997 713 1026 q 741 924 741 968 q 726 857 741 889 q 687 801 711 825 q 635 761 664 776 q 581 746 607 746 q 572 750 576 746 q 568 760 568 753 q 575 788 568 771 q 590 825 582 804 q 606 869 599 846 q 612 918 612 893 q 592 989 612 962 q 534 1015 572 1015 q 465 995 497 1015 q 408 942 433 975 q 362 868 382 909 q 329 786 342 827 q 309 708 316 745 q 302 646 302 671 q 309 577 302 605 q 326 530 316 549 q 348 500 336 511 q 370 481 359 488 q 387 470 380 474 q 393 460 393 465 q 385 435 393 446 q 361 422 376 425 q 247 367 298 405 q 158 277 195 329 q 101 165 121 226 q 81 43 81 104 q 89 -5 81 14 q 109 -37 96 -25 q 139 -54 122 -49 q 176 -60 157 -60 q 250 -43 218 -60 q 306 -3 281 -27 q 347 49 330 21 q 378 101 365 77 q 400 142 391 125 q 418 158 410 158 q 433 154 425 158 q 441 139 441 149 q 441 134 441 137 q 439 127 440 131 q 381 21 413 73 q 309 -70 349 -30 q 219 -133 269 -109 q 106 -157 169 -157 m 488 1301 q 492 1310 488 1305 q 500 1318 495 1314 q 510 1324 505 1322 q 519 1326 515 1326 q 526 1320 526 1326 q 526 1312 526 1319 q 528 1293 526 1304 q 535 1270 530 1282 q 549 1247 540 1257 q 573 1229 558 1236 q 611 1222 589 1222 q 718 1249 675 1222 q 791 1320 761 1276 q 811 1335 800 1335 q 822 1328 818 1335 q 827 1312 827 1321 q 826 1306 827 1309 q 824 1300 825 1303 q 725 1179 780 1217 q 600 1142 670 1142 q 544 1156 566 1142 q 509 1192 522 1171 q 491 1238 496 1213 q 486 1285 486 1263 q 487 1293 486 1289 q 488 1301 488 1297 z "},"":{"ha":358,"x_min":-47,"x_max":496,"o":"m 370 225 q 313 130 345 175 q 242 52 280 85 q 163 -1 205 18 q 79 -21 121 -21 q 25 -8 49 -21 q -15 26 1 4 q -39 77 -31 47 q -47 139 -47 106 q -33 245 -47 194 q 7 340 -18 296 q 62 420 31 384 q 125 483 94 457 q 188 524 157 509 q 240 538 218 538 q 270 531 257 538 q 292 513 283 524 q 306 488 301 502 q 310 461 310 475 q 288 375 310 420 q 231 291 267 331 q 152 220 196 252 q 62 174 108 189 q 67 126 62 149 q 83 88 73 104 q 110 61 94 71 q 149 52 126 52 q 194 61 171 52 q 242 91 217 70 q 293 148 267 113 q 349 235 319 183 q 361 245 355 245 q 369 243 366 245 q 372 235 372 240 q 370 225 372 231 m 218 460 q 175 437 199 460 q 128 377 151 414 q 88 297 106 341 q 64 210 70 252 q 130 249 97 225 q 189 300 163 272 q 231 361 215 329 q 248 427 248 393 q 240 450 248 440 q 218 460 233 460 m 157 781 q 161 789 158 785 q 170 797 165 793 q 180 803 174 801 q 189 806 185 806 q 196 799 196 806 q 196 791 196 798 q 198 772 196 783 q 205 749 200 762 q 219 726 210 736 q 243 708 228 715 q 281 701 258 701 q 388 728 345 701 q 460 799 431 755 q 481 814 470 814 q 492 807 488 814 q 496 791 496 800 q 496 785 496 788 q 494 779 495 783 q 395 659 450 696 q 270 621 340 621 q 213 635 235 621 q 179 671 191 650 q 161 718 166 692 q 156 764 156 743 q 157 772 156 768 q 157 781 157 777 z "},"":{"ha":596,"x_min":-78,"x_max":741,"o":"m 106 -157 q 32 -144 66 -157 q -26 -107 -2 -132 q -64 -49 -51 -83 q -78 29 -78 -15 q -51 161 -78 96 q 22 281 -24 226 q 129 379 68 336 q 260 446 191 422 q 219 469 238 454 q 186 504 200 484 q 164 549 172 524 q 157 604 157 574 q 173 715 157 659 q 219 824 190 772 q 288 921 248 876 q 375 1000 328 966 q 475 1053 422 1034 q 581 1072 527 1072 q 639 1066 610 1072 q 690 1043 668 1059 q 727 997 713 1026 q 741 924 741 968 q 726 857 741 889 q 687 801 711 825 q 635 761 664 776 q 581 746 607 746 q 572 750 576 746 q 568 760 568 753 q 575 788 568 771 q 590 825 582 804 q 606 869 599 846 q 612 918 612 893 q 592 989 612 962 q 534 1015 572 1015 q 465 995 497 1015 q 408 942 433 975 q 362 868 382 909 q 329 786 342 827 q 309 708 316 745 q 302 646 302 671 q 309 577 302 605 q 326 530 316 549 q 348 500 336 511 q 370 481 359 488 q 387 470 380 474 q 393 460 393 465 q 385 435 393 446 q 361 422 376 425 q 247 367 298 405 q 158 277 195 329 q 101 165 121 226 q 81 43 81 104 q 89 -5 81 14 q 109 -37 96 -25 q 139 -54 122 -49 q 176 -60 157 -60 q 250 -43 218 -60 q 306 -3 281 -27 q 347 49 330 21 q 378 101 365 77 q 400 142 391 125 q 418 158 410 158 q 433 154 425 158 q 441 139 441 149 q 441 134 441 137 q 439 127 440 131 q 381 21 413 73 q 309 -70 349 -30 q 219 -133 269 -109 q 106 -157 169 -157 m 684 1234 q 680 1204 684 1218 q 666 1180 675 1190 q 644 1163 657 1169 q 614 1157 631 1157 q 597 1161 604 1157 q 585 1173 590 1166 q 577 1187 580 1179 q 575 1202 575 1195 q 595 1257 575 1237 q 648 1278 615 1278 q 663 1273 656 1278 q 675 1262 670 1269 q 682 1248 680 1255 q 684 1234 684 1240 z "},"":{"ha":358,"x_min":-47,"x_max":372,"o":"m 370 225 q 313 130 345 175 q 242 52 280 85 q 163 -1 205 18 q 79 -21 121 -21 q 25 -8 49 -21 q -15 26 1 4 q -39 77 -31 47 q -47 139 -47 106 q -33 245 -47 194 q 7 340 -18 296 q 62 420 31 384 q 125 483 94 457 q 188 524 157 509 q 240 538 218 538 q 270 531 257 538 q 292 513 283 524 q 306 488 301 502 q 310 461 310 475 q 288 375 310 420 q 231 291 267 331 q 152 220 196 252 q 62 174 108 189 q 67 126 62 149 q 83 88 73 104 q 110 61 94 71 q 149 52 126 52 q 194 61 171 52 q 242 91 217 70 q 293 148 267 113 q 349 235 319 183 q 361 245 355 245 q 369 243 366 245 q 372 235 372 240 q 370 225 372 231 m 218 460 q 175 437 199 460 q 128 377 151 414 q 88 297 106 341 q 64 210 70 252 q 130 249 97 225 q 189 300 163 272 q 231 361 215 329 q 248 427 248 393 q 240 450 248 440 q 218 460 233 460 m 355 713 q 350 683 355 697 q 336 659 345 669 q 314 642 328 648 q 284 636 301 636 q 268 641 275 636 q 255 652 260 645 q 248 666 250 659 q 245 681 245 674 q 266 736 245 716 q 319 757 286 757 q 334 752 327 757 q 345 741 340 748 q 352 727 350 734 q 355 713 355 720 z "},"":{"ha":596,"x_min":-78,"x_max":741,"o":"m 176 -378 q 113 -359 138 -378 q 87 -302 87 -341 q 172 -149 87 -233 q 106 -157 140 -157 q 32 -144 66 -157 q -26 -107 -2 -132 q -64 -49 -51 -83 q -78 29 -78 -15 q -51 161 -78 96 q 22 281 -24 226 q 129 379 68 336 q 260 446 191 422 q 219 469 238 454 q 186 504 200 484 q 164 549 172 524 q 157 604 157 574 q 173 715 157 659 q 219 824 190 772 q 288 921 248 876 q 375 1000 328 966 q 475 1053 422 1034 q 581 1072 527 1072 q 639 1066 610 1072 q 690 1043 668 1059 q 727 997 713 1026 q 741 924 741 968 q 726 857 741 889 q 687 801 711 825 q 635 761 664 776 q 581 746 607 746 q 572 750 576 746 q 568 760 568 753 q 575 788 568 771 q 590 825 582 804 q 606 869 599 846 q 612 918 612 893 q 592 989 612 962 q 534 1015 572 1015 q 465 995 497 1015 q 408 942 433 975 q 362 868 382 909 q 329 786 342 827 q 309 708 316 745 q 302 646 302 671 q 309 577 302 605 q 326 530 316 549 q 348 500 336 511 q 370 481 359 488 q 387 470 380 474 q 393 460 393 465 q 385 435 393 446 q 361 422 376 425 q 247 367 298 405 q 158 277 195 329 q 101 165 121 226 q 81 43 81 104 q 89 -5 81 14 q 109 -37 96 -25 q 139 -54 122 -49 q 176 -60 157 -60 q 250 -43 218 -60 q 306 -3 281 -27 q 347 49 330 21 q 378 101 365 77 q 400 142 391 125 q 418 158 410 158 q 433 154 425 158 q 441 139 441 149 q 441 134 441 137 q 439 127 440 131 q 404 60 422 93 q 363 -4 385 26 q 317 -62 341 -35 q 265 -110 292 -89 q 190 -190 216 -149 q 164 -271 164 -232 q 177 -313 164 -296 q 222 -330 191 -330 q 251 -328 238 -330 q 275 -321 264 -325 q 293 -313 286 -317 q 304 -306 300 -309 q 309 -301 307 -303 q 315 -300 311 -300 q 321 -303 319 -300 q 323 -310 323 -307 q 310 -328 323 -317 q 276 -350 297 -339 q 229 -370 255 -361 q 176 -378 202 -378 z "},"":{"ha":358,"x_min":-47,"x_max":372,"o":"m 115 -249 q 52 -231 77 -249 q 26 -174 26 -212 q 51 -98 26 -137 q 121 -16 76 -60 q 100 -20 111 -19 q 79 -21 90 -21 q 25 -8 49 -21 q -15 26 1 4 q -39 77 -31 47 q -47 139 -47 106 q -33 245 -47 194 q 7 340 -18 296 q 62 420 31 384 q 125 483 94 457 q 188 524 157 509 q 240 538 218 538 q 270 531 257 538 q 292 513 283 524 q 306 488 301 502 q 310 461 310 475 q 288 375 310 420 q 231 291 267 331 q 152 220 196 252 q 62 174 108 189 q 67 126 62 149 q 83 88 73 104 q 110 61 94 71 q 149 52 126 52 q 194 61 171 52 q 242 91 217 70 q 293 148 267 113 q 349 235 319 183 q 361 245 355 245 q 369 243 366 245 q 372 235 372 240 q 370 225 372 231 q 294 108 338 161 q 201 18 250 55 q 128 -61 153 -18 q 103 -142 103 -104 q 116 -184 103 -167 q 161 -201 130 -201 q 190 -198 177 -201 q 214 -191 203 -195 q 232 -183 224 -187 q 243 -176 239 -179 q 248 -173 245 -174 q 254 -171 250 -171 q 260 -174 258 -171 q 262 -180 262 -177 q 249 -199 262 -187 q 215 -221 236 -210 q 168 -241 194 -233 q 115 -249 141 -249 m 248 427 q 240 450 248 440 q 218 460 233 460 q 175 437 199 460 q 128 377 151 414 q 88 297 106 341 q 64 210 70 252 q 130 249 97 225 q 189 300 163 272 q 231 361 215 329 q 248 427 248 393 z "},"":{"ha":596,"x_min":-78,"x_max":824,"o":"m 106 -157 q 32 -144 66 -157 q -26 -107 -2 -132 q -64 -49 -51 -83 q -78 29 -78 -15 q -51 161 -78 96 q 22 281 -24 226 q 129 379 68 336 q 260 446 191 422 q 219 469 238 454 q 186 504 200 484 q 164 549 172 524 q 157 604 157 574 q 173 715 157 659 q 219 824 190 772 q 288 921 248 876 q 375 1000 328 966 q 475 1053 422 1034 q 581 1072 527 1072 q 639 1066 610 1072 q 690 1043 668 1059 q 727 997 713 1026 q 741 924 741 968 q 726 857 741 889 q 687 801 711 825 q 635 761 664 776 q 581 746 607 746 q 572 750 576 746 q 568 760 568 753 q 575 788 568 771 q 590 825 582 804 q 606 869 599 846 q 612 918 612 893 q 592 989 612 962 q 534 1015 572 1015 q 465 995 497 1015 q 408 942 433 975 q 362 868 382 909 q 329 786 342 827 q 309 708 316 745 q 302 646 302 671 q 309 577 302 605 q 326 530 316 549 q 348 500 336 511 q 370 481 359 488 q 387 470 380 474 q 393 460 393 465 q 385 435 393 446 q 361 422 376 425 q 247 367 298 405 q 158 277 195 329 q 101 165 121 226 q 81 43 81 104 q 89 -5 81 14 q 109 -37 96 -25 q 139 -54 122 -49 q 176 -60 157 -60 q 250 -43 218 -60 q 306 -3 281 -27 q 347 49 330 21 q 378 101 365 77 q 400 142 391 125 q 418 158 410 158 q 433 154 425 158 q 441 139 441 149 q 441 134 441 137 q 439 127 440 131 q 381 21 413 73 q 309 -70 349 -30 q 219 -133 269 -109 q 106 -157 169 -157 m 465 1316 q 464 1320 464 1317 q 473 1334 464 1328 q 488 1340 481 1340 q 507 1326 492 1338 q 541 1293 518 1315 q 603 1230 564 1270 q 652 1262 623 1243 q 711 1298 681 1281 q 767 1328 741 1316 q 807 1340 793 1340 q 820 1337 815 1340 q 824 1328 824 1333 q 815 1314 824 1320 q 764 1269 787 1289 q 719 1231 741 1249 q 675 1194 696 1213 q 629 1152 653 1175 q 613 1135 620 1142 q 589 1128 606 1128 q 575 1131 583 1128 q 559 1140 567 1134 q 547 1153 552 1145 q 541 1171 541 1161 q 513 1224 525 1201 q 492 1264 501 1246 q 476 1294 483 1281 q 465 1316 469 1306 z "},"":{"ha":358,"x_min":-47,"x_max":494,"o":"m 370 225 q 313 130 345 175 q 242 52 280 85 q 163 -1 205 18 q 79 -21 121 -21 q 25 -8 49 -21 q -15 26 1 4 q -39 77 -31 47 q -47 139 -47 106 q -33 245 -47 194 q 7 340 -18 296 q 62 420 31 384 q 125 483 94 457 q 188 524 157 509 q 240 538 218 538 q 270 531 257 538 q 292 513 283 524 q 306 488 301 502 q 310 461 310 475 q 288 375 310 420 q 231 291 267 331 q 152 220 196 252 q 62 174 108 189 q 67 126 62 149 q 83 88 73 104 q 110 61 94 71 q 149 52 126 52 q 194 61 171 52 q 242 91 217 70 q 293 148 267 113 q 349 235 319 183 q 361 245 355 245 q 369 243 366 245 q 372 235 372 240 q 370 225 372 231 m 218 460 q 175 437 199 460 q 128 377 151 414 q 88 297 106 341 q 64 210 70 252 q 130 249 97 225 q 189 300 163 272 q 231 361 215 329 q 248 427 248 393 q 240 450 248 440 q 218 460 233 460 m 135 795 q 134 799 134 796 q 142 813 134 807 q 157 819 151 819 q 176 805 162 817 q 211 772 188 794 q 273 709 234 749 q 321 741 292 722 q 380 778 351 760 q 436 807 410 795 q 477 819 463 819 q 489 816 485 819 q 494 807 494 812 q 485 793 494 800 q 434 748 457 768 q 388 710 410 728 q 345 673 366 692 q 299 631 323 654 q 282 614 290 621 q 259 607 275 607 q 245 610 253 607 q 229 619 237 613 q 216 632 222 625 q 210 650 211 640 q 183 703 195 680 q 162 743 171 726 q 146 773 153 760 q 135 795 139 785 z "},"":{"ha":710,"x_min":-35,"x_max":855,"o":"m 579 353 q 548 221 570 285 q 495 101 526 157 q 424 -3 463 44 q 339 -84 384 -50 q 246 -136 294 -117 q 149 -155 197 -155 q 83 -144 116 -155 q 24 -108 50 -133 q -18 -42 -2 -83 q -35 58 -35 -1 q -15 219 -35 136 q 39 387 5 303 q 120 552 74 471 q 219 706 166 633 q 330 841 273 779 q 444 947 387 903 q 553 1018 500 992 q 650 1043 606 1043 q 706 1033 684 1043 q 742 1008 728 1023 q 760 972 755 992 q 765 932 765 952 q 755 865 765 896 q 730 809 745 834 q 695 766 714 785 q 658 734 676 747 q 624 714 640 721 q 599 708 608 708 q 586 710 589 708 q 582 724 582 712 q 597 768 585 744 q 623 817 609 791 q 647 869 636 842 q 657 924 657 897 q 650 958 657 943 q 623 974 643 974 q 557 949 593 974 q 480 881 520 924 q 397 778 439 838 q 316 650 355 719 q 242 505 277 581 q 182 352 208 429 q 141 201 156 275 q 126 60 126 126 q 132 13 126 35 q 150 -24 138 -8 q 180 -49 162 -40 q 224 -58 199 -58 q 287 -43 256 -58 q 343 -3 317 -28 q 391 54 370 22 q 428 120 412 86 q 451 188 443 155 q 460 249 460 222 q 449 294 460 279 q 421 313 437 309 q 385 316 404 318 q 349 313 366 315 q 321 314 332 312 q 310 328 310 315 q 316 346 310 338 q 331 359 321 353 q 353 371 341 366 q 378 380 366 376 q 437 397 401 389 q 514 410 473 404 q 595 421 555 416 q 668 431 635 427 q 681 415 681 431 l 669 397 q 619 358 655 366 q 599 355 609 356 q 579 353 589 354 m 854 1125 q 854 1123 854 1124 q 855 1121 855 1122 q 847 1105 855 1112 q 831 1099 838 1099 q 830 1098 830 1099 q 829 1098 831 1097 q 821 1104 827 1099 q 803 1122 815 1109 q 769 1156 790 1135 q 716 1213 749 1178 q 668 1179 696 1198 q 609 1142 639 1160 q 553 1112 579 1124 q 512 1100 526 1100 q 500 1103 504 1100 q 496 1112 496 1107 q 504 1126 496 1118 q 555 1171 532 1152 q 601 1209 578 1191 q 644 1246 623 1227 q 690 1289 666 1265 q 707 1306 700 1299 q 730 1313 713 1313 q 744 1310 736 1313 q 760 1301 752 1307 q 772 1288 767 1295 q 779 1270 778 1280 q 806 1216 794 1239 q 828 1176 819 1194 q 843 1147 837 1159 q 854 1125 850 1135 z "},"":{"ha":479,"x_min":-69,"x_max":517,"o":"m 416 385 q 414 361 416 374 q 406 331 412 349 q 391 289 401 313 q 367 231 381 264 q 314 112 342 172 q 258 -6 287 52 q 202 -117 230 -64 q 148 -215 174 -170 q 99 -294 121 -260 q 60 -346 77 -328 q 36 -363 50 -357 q 7 -368 22 -368 q -23 -363 -9 -368 q -47 -346 -37 -358 q -63 -314 -58 -334 q -69 -264 -69 -294 q -59 -199 -69 -235 q -20 -121 -48 -163 q -28 -201 -28 -173 q -21 -244 -28 -233 q -4 -256 -14 -256 q 11 -250 2 -256 q 32 -227 19 -243 q 61 -181 44 -210 q 100 -106 77 -152 q 138 -29 116 -74 q 183 65 157 9 q 244 196 210 121 q 193 128 221 163 q 135 65 165 94 q 72 19 104 37 q 8 1 39 1 q -42 20 -22 1 q -61 83 -61 39 q -40 183 -61 133 q 15 280 -20 233 q 94 370 50 328 q 186 448 138 413 q 280 508 233 483 q 366 546 327 534 q 374 548 370 547 q 382 549 378 549 q 392 546 388 549 q 396 538 396 543 q 383 508 396 519 q 349 488 370 497 q 302 467 328 479 q 249 436 276 456 q 191 379 220 414 q 138 305 161 345 q 101 224 115 265 q 86 149 86 183 q 92 124 86 132 q 106 117 97 117 q 136 131 117 117 q 177 173 154 146 q 228 237 201 200 q 283 321 255 275 q 314 372 300 348 q 338 413 328 395 q 356 440 349 430 q 368 450 363 450 q 381 445 373 450 q 397 430 390 439 q 411 409 405 420 q 416 385 416 397 m 515 646 q 516 644 515 644 q 517 642 517 643 q 508 626 517 633 q 493 619 500 619 q 492 618 492 619 q 490 618 492 617 q 483 625 488 619 q 464 643 477 630 q 431 677 452 655 q 378 733 410 699 q 329 700 358 719 q 271 663 300 680 q 214 633 241 645 q 174 621 188 621 q 161 624 165 621 q 157 632 157 627 q 165 647 157 639 q 217 692 193 672 q 262 730 240 711 q 306 767 284 748 q 352 810 328 785 q 368 826 361 819 q 392 833 375 833 q 406 830 398 833 q 421 822 414 827 q 434 808 429 816 q 441 790 439 800 q 468 737 456 760 q 489 697 480 714 q 505 667 498 680 q 515 646 511 655 z "},"":{"ha":710,"x_min":-35,"x_max":904,"o":"m 579 353 q 548 221 570 285 q 495 101 526 157 q 424 -3 463 44 q 339 -84 384 -50 q 246 -136 294 -117 q 149 -155 197 -155 q 83 -144 116 -155 q 24 -108 50 -133 q -18 -42 -2 -83 q -35 58 -35 -1 q -15 219 -35 136 q 39 387 5 303 q 120 552 74 471 q 219 706 166 633 q 330 841 273 779 q 444 947 387 903 q 553 1018 500 992 q 650 1043 606 1043 q 706 1033 684 1043 q 742 1008 728 1023 q 760 972 755 992 q 765 932 765 952 q 755 865 765 896 q 730 809 745 834 q 695 766 714 785 q 658 734 676 747 q 624 714 640 721 q 599 708 608 708 q 586 710 589 708 q 582 724 582 712 q 597 768 585 744 q 623 817 609 791 q 647 869 636 842 q 657 924 657 897 q 650 958 657 943 q 623 974 643 974 q 557 949 593 974 q 480 881 520 924 q 397 778 439 838 q 316 650 355 719 q 242 505 277 581 q 182 352 208 429 q 141 201 156 275 q 126 60 126 126 q 132 13 126 35 q 150 -24 138 -8 q 180 -49 162 -40 q 224 -58 199 -58 q 287 -43 256 -58 q 343 -3 317 -28 q 391 54 370 22 q 428 120 412 86 q 451 188 443 155 q 460 249 460 222 q 449 294 460 279 q 421 313 437 309 q 385 316 404 318 q 349 313 366 315 q 321 314 332 312 q 310 328 310 315 q 316 346 310 338 q 331 359 321 353 q 353 371 341 366 q 378 380 366 376 q 437 397 401 389 q 514 410 473 404 q 595 421 555 416 q 668 431 635 427 q 681 415 681 431 l 669 397 q 619 358 655 366 q 599 355 609 356 q 579 353 589 354 m 565 1272 q 569 1281 566 1276 q 577 1289 572 1285 q 587 1295 582 1293 q 597 1297 593 1297 q 604 1291 604 1297 q 604 1282 604 1290 q 606 1264 604 1275 q 612 1241 608 1253 q 626 1218 617 1228 q 651 1200 635 1207 q 688 1193 666 1193 q 795 1220 752 1193 q 868 1291 838 1246 q 888 1305 878 1305 q 900 1299 895 1305 q 904 1283 904 1292 q 903 1277 904 1280 q 901 1271 903 1274 q 802 1150 857 1187 q 677 1113 747 1113 q 621 1127 643 1113 q 586 1163 599 1141 q 569 1209 574 1184 q 564 1256 564 1234 q 564 1264 564 1260 q 565 1272 565 1268 z "},"":{"ha":479,"x_min":-69,"x_max":566,"o":"m 416 385 q 414 361 416 374 q 406 331 412 349 q 391 289 401 313 q 367 231 381 264 q 314 112 342 172 q 258 -6 287 52 q 202 -117 230 -64 q 148 -215 174 -170 q 99 -294 121 -260 q 60 -346 77 -328 q 36 -363 50 -357 q 7 -368 22 -368 q -23 -363 -9 -368 q -47 -346 -37 -358 q -63 -314 -58 -334 q -69 -264 -69 -294 q -59 -199 -69 -235 q -20 -121 -48 -163 q -28 -201 -28 -173 q -21 -244 -28 -233 q -4 -256 -14 -256 q 11 -250 2 -256 q 32 -227 19 -243 q 61 -181 44 -210 q 100 -106 77 -152 q 138 -29 116 -74 q 183 65 157 9 q 244 196 210 121 q 193 128 221 163 q 135 65 165 94 q 72 19 104 37 q 8 1 39 1 q -42 20 -22 1 q -61 83 -61 39 q -40 183 -61 133 q 15 280 -20 233 q 94 370 50 328 q 186 448 138 413 q 280 508 233 483 q 366 546 327 534 q 374 548 370 547 q 382 549 378 549 q 392 546 388 549 q 396 538 396 543 q 383 508 396 519 q 349 488 370 497 q 302 467 328 479 q 249 436 276 456 q 191 379 220 414 q 138 305 161 345 q 101 224 115 265 q 86 149 86 183 q 92 124 86 132 q 106 117 97 117 q 136 131 117 117 q 177 173 154 146 q 228 237 201 200 q 283 321 255 275 q 314 372 300 348 q 338 413 328 395 q 356 440 349 430 q 368 450 363 450 q 381 445 373 450 q 397 430 390 439 q 411 409 405 420 q 416 385 416 397 m 227 793 q 231 801 227 797 q 239 809 234 806 q 249 815 243 813 q 258 818 254 818 q 265 811 265 818 q 265 803 265 810 q 267 785 265 795 q 274 761 269 774 q 288 738 279 749 q 312 721 297 728 q 350 713 328 713 q 457 740 414 713 q 530 811 500 767 q 550 826 539 826 q 561 819 557 826 q 566 804 566 812 q 565 798 566 800 q 563 791 564 795 q 464 671 519 708 q 339 633 409 633 q 282 648 304 633 q 248 683 260 662 q 230 730 235 705 q 225 777 225 755 q 226 785 225 781 q 227 793 227 789 z "},"":{"ha":710,"x_min":-35,"x_max":765,"o":"m 579 353 q 548 221 570 285 q 495 101 526 157 q 424 -3 463 44 q 339 -84 384 -50 q 246 -136 294 -117 q 149 -155 197 -155 q 83 -144 116 -155 q 24 -108 50 -133 q -18 -42 -2 -83 q -35 58 -35 -1 q -15 219 -35 136 q 39 387 5 303 q 120 552 74 471 q 219 706 166 633 q 330 841 273 779 q 444 947 387 903 q 553 1018 500 992 q 650 1043 606 1043 q 706 1033 684 1043 q 742 1008 728 1023 q 760 972 755 992 q 765 932 765 952 q 755 865 765 896 q 730 809 745 834 q 695 766 714 785 q 658 734 676 747 q 624 714 640 721 q 599 708 608 708 q 586 710 589 708 q 582 724 582 712 q 597 768 585 744 q 623 817 609 791 q 647 869 636 842 q 657 924 657 897 q 650 958 657 943 q 623 974 643 974 q 557 949 593 974 q 480 881 520 924 q 397 778 439 838 q 316 650 355 719 q 242 505 277 581 q 182 352 208 429 q 141 201 156 275 q 126 60 126 126 q 132 13 126 35 q 150 -24 138 -8 q 180 -49 162 -40 q 224 -58 199 -58 q 287 -43 256 -58 q 343 -3 317 -28 q 391 54 370 22 q 428 120 412 86 q 451 188 443 155 q 460 249 460 222 q 449 294 460 279 q 421 313 437 309 q 385 316 404 318 q 349 313 366 315 q 321 314 332 312 q 310 328 310 315 q 316 346 310 338 q 331 359 321 353 q 353 371 341 366 q 378 380 366 376 q 437 397 401 389 q 514 410 473 404 q 595 421 555 416 q 668 431 635 427 q 681 415 681 431 l 669 397 q 619 358 655 366 q 599 355 609 356 q 579 353 589 354 m 762 1204 q 758 1175 762 1189 q 744 1151 753 1161 q 722 1134 735 1140 q 692 1128 709 1128 q 675 1132 682 1128 q 663 1143 668 1137 q 655 1158 658 1150 q 653 1173 653 1166 q 673 1228 653 1208 q 726 1249 693 1249 q 741 1244 734 1249 q 753 1233 748 1240 q 760 1219 758 1226 q 762 1204 762 1211 z "},"":{"ha":479,"x_min":-69,"x_max":423,"o":"m 416 385 q 414 361 416 374 q 406 331 412 349 q 391 289 401 313 q 367 231 381 264 q 314 112 342 172 q 258 -6 287 52 q 202 -117 230 -64 q 148 -215 174 -170 q 99 -294 121 -260 q 60 -346 77 -328 q 36 -363 50 -357 q 7 -368 22 -368 q -23 -363 -9 -368 q -47 -346 -37 -358 q -63 -314 -58 -334 q -69 -264 -69 -294 q -59 -199 -69 -235 q -20 -121 -48 -163 q -28 -201 -28 -173 q -21 -244 -28 -233 q -4 -256 -14 -256 q 11 -250 2 -256 q 32 -227 19 -243 q 61 -181 44 -210 q 100 -106 77 -152 q 138 -29 116 -74 q 183 65 157 9 q 244 196 210 121 q 193 128 221 163 q 135 65 165 94 q 72 19 104 37 q 8 1 39 1 q -42 20 -22 1 q -61 83 -61 39 q -40 183 -61 133 q 15 280 -20 233 q 94 370 50 328 q 186 448 138 413 q 280 508 233 483 q 366 546 327 534 q 374 548 370 547 q 382 549 378 549 q 392 546 388 549 q 396 538 396 543 q 383 508 396 519 q 349 488 370 497 q 302 467 328 479 q 249 436 276 456 q 191 379 220 414 q 138 305 161 345 q 101 224 115 265 q 86 149 86 183 q 92 124 86 132 q 106 117 97 117 q 136 131 117 117 q 177 173 154 146 q 228 237 201 200 q 283 321 255 275 q 314 372 300 348 q 338 413 328 395 q 356 440 349 430 q 368 450 363 450 q 381 445 373 450 q 397 430 390 439 q 411 409 405 420 q 416 385 416 397 m 423 725 q 418 695 423 709 q 405 671 414 682 q 383 654 396 661 q 353 648 370 648 q 336 653 343 648 q 324 664 329 657 q 316 679 319 671 q 314 693 314 686 q 334 749 314 728 q 387 769 354 769 q 402 765 395 769 q 414 753 409 760 q 421 739 418 747 q 423 725 423 732 z "},"":{"ha":710,"x_min":-35,"x_max":765,"o":"m 579 353 q 548 221 570 285 q 495 101 526 157 q 424 -3 463 44 q 339 -84 384 -50 q 246 -136 294 -117 q 149 -155 197 -155 q 83 -144 116 -155 q 24 -108 50 -133 q -18 -42 -2 -83 q -35 58 -35 -1 q -15 219 -35 136 q 39 387 5 303 q 120 552 74 471 q 219 706 166 633 q 330 841 273 779 q 444 947 387 903 q 553 1018 500 992 q 650 1043 606 1043 q 706 1033 684 1043 q 742 1008 728 1023 q 760 972 755 992 q 765 932 765 952 q 755 865 765 896 q 730 809 745 834 q 695 766 714 785 q 658 734 676 747 q 624 714 640 721 q 599 708 608 708 q 586 710 589 708 q 582 724 582 712 q 597 768 585 744 q 623 817 609 791 q 647 869 636 842 q 657 924 657 897 q 650 958 657 943 q 623 974 643 974 q 557 949 593 974 q 480 881 520 924 q 397 778 439 838 q 316 650 355 719 q 242 505 277 581 q 182 352 208 429 q 141 201 156 275 q 126 60 126 126 q 132 13 126 35 q 150 -24 138 -8 q 180 -49 162 -40 q 224 -58 199 -58 q 287 -43 256 -58 q 343 -3 317 -28 q 391 54 370 22 q 428 120 412 86 q 451 188 443 155 q 460 249 460 222 q 449 294 460 279 q 421 313 437 309 q 385 316 404 318 q 349 313 366 315 q 321 314 332 312 q 310 328 310 315 q 316 346 310 338 q 331 359 321 353 q 353 371 341 366 q 378 380 366 376 q 437 397 401 389 q 514 410 473 404 q 595 421 555 416 q 668 431 635 427 q 681 415 681 431 l 669 397 q 619 358 655 366 q 599 355 609 356 q 579 353 589 354 m 125 -224 q 133 -223 127 -224 q 145 -223 139 -223 q 157 -222 152 -222 q 165 -222 163 -222 q 178 -227 174 -222 q 182 -239 182 -232 q 173 -269 182 -252 q 149 -305 163 -286 q 117 -342 135 -323 q 83 -375 100 -360 q 52 -398 66 -389 q 31 -408 38 -408 q 23 -405 23 -408 q 31 -383 24 -399 q 47 -345 38 -366 q 64 -299 56 -323 q 79 -256 73 -275 q 87 -240 82 -245 q 98 -231 92 -234 q 111 -228 104 -229 q 125 -224 117 -227 z "},"":{"ha":479,"x_min":-69,"x_max":472,"o":"m 416 385 q 414 361 416 374 q 406 331 412 349 q 391 289 401 313 q 367 231 381 264 q 314 112 342 172 q 258 -6 287 52 q 202 -117 230 -64 q 148 -215 174 -170 q 99 -294 121 -260 q 60 -346 77 -328 q 36 -363 50 -357 q 7 -368 22 -368 q -23 -363 -9 -368 q -47 -346 -37 -358 q -63 -314 -58 -334 q -69 -264 -69 -294 q -59 -199 -69 -235 q -20 -121 -48 -163 q -28 -201 -28 -173 q -21 -244 -28 -233 q -4 -256 -14 -256 q 11 -250 2 -256 q 32 -227 19 -243 q 61 -181 44 -210 q 100 -106 77 -152 q 148 -9 121 -66 q 205 110 172 39 q 281 275 238 180 l 290 267 q 259 218 277 245 q 219 160 241 190 q 171 102 197 131 q 118 52 146 74 q 63 15 91 29 q 8 1 35 1 q -42 20 -22 1 q -61 83 -61 39 q -40 183 -61 133 q 15 280 -20 233 q 94 370 50 328 q 186 448 138 413 q 280 508 233 483 q 366 546 327 534 q 374 548 370 547 q 382 549 378 549 q 392 546 388 549 q 396 538 396 543 q 383 508 396 519 q 349 488 370 497 q 302 467 328 479 q 249 436 276 456 q 191 379 220 414 q 138 305 161 345 q 101 224 115 265 q 86 149 86 183 q 92 124 86 132 q 106 117 97 117 q 136 131 117 117 q 177 173 154 146 q 228 237 201 200 q 283 321 255 275 q 314 372 300 348 q 338 413 328 395 q 356 440 349 430 q 368 450 363 450 q 381 445 373 450 q 397 430 390 439 q 411 409 405 420 q 416 385 416 397 m 371 633 q 362 632 368 633 q 350 632 357 632 q 338 631 344 631 q 330 631 332 631 q 317 636 321 631 q 314 648 314 641 q 323 678 314 661 q 347 714 332 695 q 378 751 361 732 q 413 784 396 769 q 444 807 430 798 q 465 817 458 817 q 472 814 472 817 q 464 792 471 808 q 448 754 457 776 q 431 708 439 732 q 416 665 422 684 q 408 649 413 654 q 398 640 404 643 q 385 636 392 637 q 371 633 378 635 z "},"":{"ha":757,"x_min":-171,"x_max":994,"o":"m 568 994 q 555 978 565 984 q 534 970 546 971 q 512 966 523 967 q 490 964 500 965 q 415 800 452 884 q 341 629 378 715 q 269 457 304 543 q 200 288 233 371 l 450 321 q 525 500 487 409 q 598 679 562 591 q 667 849 633 767 q 728 1000 700 930 q 682 997 705 998 q 637 997 659 997 q 634 999 635 997 q 631 1003 632 1001 q 630 1008 629 1005 q 632 1013 631 1010 l 642 1022 q 650 1037 646 1031 q 664 1044 654 1042 q 743 1056 703 1050 q 825 1066 784 1061 q 907 1073 867 1070 q 985 1075 947 1076 q 993 1072 987 1075 q 994 1067 994 1070 q 991 1063 993 1065 l 978 1038 q 965 1024 974 1029 q 946 1018 956 1019 q 907 1015 927 1016 q 867 1011 888 1013 q 795 839 833 932 q 716 647 757 746 q 635 447 676 548 q 557 249 595 345 q 485 65 519 153 q 424 -94 451 -23 q 470 -89 449 -91 q 503 -87 490 -87 q 533 -90 523 -87 q 546 -97 543 -92 q 546 -107 549 -101 q 538 -119 543 -113 q 529 -132 532 -126 q 520 -141 526 -137 q 505 -149 515 -146 q 475 -155 494 -153 q 437 -159 462 -157 q 383 -163 413 -161 q 321 -168 353 -165 q 260 -171 289 -170 q 210 -174 232 -173 q 179 -176 188 -176 q 149 -175 152 -178 q 164 -151 146 -171 q 188 -135 172 -141 q 229 -126 203 -130 q 241 -124 233 -125 q 258 -121 249 -123 q 335 51 293 -45 q 424 257 378 147 l 178 232 q 123 90 149 159 q 74 -40 97 22 q 138 -37 115 -36 q 157 -47 160 -38 q 142 -67 153 -59 q 113 -85 132 -75 q 86 -91 106 -88 q 39 -97 66 -94 q -18 -102 12 -100 q -75 -106 -48 -104 q -121 -108 -101 -107 q -147 -110 -141 -109 q -169 -101 -167 -112 q -147 -72 -171 -91 q -129 -65 -143 -68 q -83 -58 -115 -62 q -34 67 -62 -3 q 28 215 -5 137 l -58 207 q -64 208 -62 207 q -66 212 -66 209 q -65 218 -68 214 q -60 225 -63 222 l -50 239 q -28 255 -39 252 q -3 261 -18 258 l 50 268 q 128 449 87 356 q 207 630 168 541 q 283 802 246 720 q 350 950 319 884 q 303 947 327 948 q 253 945 279 946 q 248 947 250 945 q 250 954 248 951 l 258 965 q 267 979 262 975 q 281 985 271 983 q 349 996 316 990 q 415 1008 382 1002 q 484 1018 449 1013 q 558 1023 519 1022 q 572 1018 567 1025 q 575 1010 574 1015 q 572 1003 576 1006 l 568 994 m 839 1152 q 840 1149 839 1150 q 840 1147 840 1149 q 832 1132 840 1139 q 817 1125 823 1125 q 815 1124 815 1125 q 814 1124 816 1123 q 806 1131 812 1125 q 788 1148 800 1136 q 754 1183 775 1161 q 701 1239 734 1204 q 653 1205 682 1225 q 594 1168 624 1186 q 538 1139 564 1151 q 497 1126 511 1126 q 485 1130 489 1126 q 481 1138 481 1133 q 489 1153 481 1145 q 540 1198 517 1178 q 586 1236 564 1217 q 629 1273 608 1254 q 675 1316 651 1291 q 692 1332 685 1325 q 715 1339 699 1339 q 729 1336 722 1339 q 745 1328 737 1333 q 758 1314 752 1322 q 764 1296 763 1306 q 791 1243 779 1265 q 813 1203 804 1220 q 828 1173 822 1185 q 839 1152 835 1161 z "},"":{"ha":492,"x_min":-85,"x_max":637,"o":"m 501 225 q 451 127 477 172 q 396 51 425 83 q 337 2 367 20 q 275 -16 307 -16 q 236 -5 252 -16 q 208 22 219 5 q 192 63 197 39 q 187 113 187 86 q 197 187 187 149 q 223 262 207 225 q 259 336 239 300 q 301 407 279 372 q 242 357 274 385 q 179 300 210 330 q 122 242 149 271 q 81 192 96 214 q 30 116 50 151 q -5 56 10 81 q -32 16 -20 31 q -57 1 -43 1 q -76 6 -66 1 q -85 26 -85 12 q -70 94 -85 48 q -26 203 -55 139 q 6 279 -12 235 q 46 374 24 322 q 95 482 68 425 q 150 599 121 539 q 211 715 178 658 q 272 823 243 773 q 326 911 302 873 q 364 970 351 949 q 386 999 376 987 q 406 1010 396 1010 q 418 1000 412 1010 q 429 977 424 991 q 436 948 433 963 q 439 922 439 933 q 438 908 439 919 q 433 881 437 898 q 418 842 428 864 q 389 794 408 820 q 354 743 374 774 q 310 676 333 713 q 263 598 287 639 q 216 518 239 557 q 181 454 200 489 q 143 384 163 420 q 105 313 124 349 q 71 248 87 278 q 130 320 102 288 q 180 373 158 351 q 227 418 205 399 q 340 513 298 481 q 404 545 382 545 q 422 539 412 545 q 441 525 433 534 q 455 503 450 515 q 461 478 461 491 q 448 438 461 461 q 416 386 435 416 q 375 321 397 357 q 335 241 353 285 q 305 156 316 197 q 294 85 294 114 q 300 51 294 65 q 319 36 306 36 q 353 51 334 36 q 395 92 373 66 q 439 155 417 119 q 481 235 462 191 q 493 245 486 245 q 500 243 497 245 q 504 235 504 240 q 503 230 504 233 q 501 225 503 227 m 636 1093 q 637 1091 636 1092 q 637 1089 637 1090 q 629 1074 637 1080 q 614 1067 621 1067 q 613 1066 612 1067 q 611 1066 613 1065 q 603 1072 609 1067 q 585 1090 597 1078 q 552 1124 572 1103 q 498 1181 531 1146 q 450 1147 479 1166 q 391 1110 421 1128 q 335 1080 361 1093 q 294 1068 309 1068 q 282 1072 286 1068 q 278 1080 278 1075 q 286 1095 278 1086 q 337 1139 314 1120 q 383 1177 361 1159 q 427 1214 405 1196 q 473 1257 448 1233 q 489 1274 482 1267 q 513 1281 496 1281 q 527 1278 519 1281 q 542 1269 534 1275 q 555 1256 549 1263 q 562 1238 560 1248 q 589 1184 576 1207 q 610 1144 601 1162 q 626 1115 619 1127 q 636 1093 632 1103 z "},"":{"ha":757,"x_min":-171,"x_max":994,"o":"m 50 268 q 87 354 69 311 q 125 443 106 398 q 81 441 102 441 q 45 439 60 440 q 11 439 26 439 q 4 444 4 439 q 5 450 3 446 q 12 457 8 454 l 21 476 q 45 490 35 488 q 71 494 56 493 l 150 500 q 204 623 177 562 q 257 742 231 684 q 306 852 282 800 q 350 950 330 905 q 303 947 327 948 q 253 945 279 946 q 248 947 250 945 q 250 954 248 951 l 258 965 q 267 979 262 975 q 281 985 271 983 q 349 996 316 990 q 415 1008 382 1002 q 484 1018 449 1013 q 558 1023 519 1022 q 572 1018 567 1025 q 575 1010 574 1015 q 572 1003 576 1006 l 568 994 q 555 978 565 984 q 534 970 546 971 q 512 966 523 967 q 490 964 500 965 q 389 741 440 856 q 290 509 338 626 l 534 525 q 637 777 588 655 q 728 1000 687 899 q 682 997 705 998 q 637 997 659 997 q 634 999 635 997 q 631 1003 632 1001 q 630 1008 629 1005 q 632 1013 631 1010 l 642 1022 q 650 1037 646 1031 q 664 1044 654 1042 q 743 1056 703 1050 q 825 1066 784 1061 q 907 1073 867 1070 q 985 1075 947 1076 q 993 1072 987 1075 q 994 1067 994 1070 q 991 1063 993 1065 l 978 1038 q 965 1024 974 1029 q 946 1018 956 1019 q 907 1015 927 1016 q 867 1011 888 1013 q 774 786 824 908 q 671 534 724 663 l 779 542 q 800 537 795 543 q 804 523 806 532 q 796 504 803 514 q 781 486 789 494 q 762 471 772 477 q 746 467 753 466 q 699 465 726 465 q 642 463 672 464 q 581 309 611 385 q 523 161 551 233 q 470 25 495 90 q 424 -94 445 -39 q 470 -89 449 -91 q 503 -87 490 -87 q 533 -90 523 -87 q 546 -97 543 -92 q 546 -107 549 -101 q 538 -119 543 -113 q 529 -132 532 -126 q 520 -141 526 -137 q 505 -149 515 -146 q 475 -155 494 -153 q 437 -159 462 -157 q 383 -163 413 -161 q 321 -168 353 -165 q 260 -171 289 -170 q 210 -174 232 -173 q 179 -176 188 -176 q 149 -175 152 -178 q 164 -151 146 -171 q 188 -135 172 -141 q 229 -126 203 -130 q 241 -124 233 -125 q 258 -121 249 -123 q 335 51 293 -45 q 424 257 378 147 l 178 232 q 123 90 149 159 q 74 -40 97 22 q 138 -37 115 -36 q 157 -47 160 -38 q 142 -67 153 -59 q 113 -85 132 -75 q 86 -91 106 -88 q 39 -97 66 -94 q -18 -102 12 -100 q -75 -106 -48 -104 q -121 -108 -101 -107 q -147 -110 -141 -109 q -169 -101 -167 -112 q -147 -72 -171 -91 q -129 -65 -143 -68 q -83 -58 -115 -62 q -34 67 -62 -3 q 28 215 -5 137 l -58 207 q -64 208 -62 207 q -66 212 -66 209 q -65 218 -68 214 q -60 225 -63 222 l -50 239 q -28 255 -39 252 q -3 261 -18 258 l 50 268 m 505 457 q 384 452 446 455 q 265 447 323 450 q 232 367 248 406 q 200 288 216 328 l 450 321 q 505 457 479 388 z "},"":{"ha":492,"x_min":-85,"x_max":513,"o":"m 501 225 q 451 127 477 172 q 396 51 425 83 q 337 2 367 20 q 275 -16 307 -16 q 236 -5 252 -16 q 208 22 219 5 q 192 63 197 39 q 187 113 187 86 q 197 187 187 149 q 223 262 207 225 q 259 336 239 300 q 301 407 279 372 q 242 357 274 385 q 179 300 210 330 q 122 242 149 271 q 81 192 96 214 q 30 116 50 151 q -5 56 10 81 q -32 16 -20 31 q -57 1 -43 1 q -76 6 -66 1 q -85 26 -85 12 q -70 94 -85 48 q -26 203 -55 139 q 6 279 -12 235 q 46 374 24 322 q 95 482 68 425 q 150 599 121 539 q 176 649 163 624 q 203 700 189 675 l 100 700 q 93 705 93 700 q 94 711 92 707 q 102 718 97 715 l 111 726 q 136 740 125 738 q 161 743 146 742 l 228 747 q 270 819 249 785 q 308 882 290 853 q 340 933 326 911 q 364 970 355 956 q 386 999 376 987 q 406 1010 396 1010 q 418 1000 412 1010 q 429 977 424 991 q 436 948 433 963 q 439 922 439 933 q 438 908 439 919 q 433 881 437 898 q 418 842 428 864 q 389 794 408 820 q 376 777 382 786 q 363 757 370 768 l 486 766 q 507 761 502 766 q 511 749 513 756 q 502 733 509 741 q 486 717 495 724 q 467 706 477 710 q 450 703 457 701 l 326 701 q 271 613 299 661 q 216 518 243 565 q 181 454 200 489 q 143 384 163 420 q 105 313 124 349 q 71 248 87 278 q 130 320 102 288 q 180 373 158 351 q 227 418 205 399 q 340 513 298 481 q 404 545 382 545 q 422 539 412 545 q 441 525 433 534 q 455 503 450 515 q 461 478 461 491 q 448 438 461 461 q 416 386 435 416 q 375 321 397 357 q 335 241 353 285 q 305 156 316 197 q 294 85 294 114 q 300 51 294 65 q 319 36 306 36 q 353 51 334 36 q 395 92 373 66 q 439 155 417 119 q 481 235 462 191 q 493 245 486 245 q 500 243 497 245 q 504 235 504 240 q 503 230 504 233 q 501 225 503 227 z "}}}
